G75*
%MOIN*%
%OFA0B0*%
%FSLAX24Y24*%
%IPPOS*%
%LPD*%
%AMOC8*
5,1,8,0,0,1.08239X$1,22.5*
%
%ADD10C,0.0000*%
%ADD11R,0.0250X0.0591*%
%ADD12R,0.0315X0.0315*%
%ADD13R,0.0591X0.0315*%
%ADD14R,0.0394X0.0591*%
%ADD15R,0.0591X0.0394*%
%ADD16R,0.0827X0.0630*%
%ADD17R,0.0157X0.0531*%
%ADD18R,0.0709X0.0748*%
%ADD19C,0.0709*%
%ADD20R,0.0315X0.0098*%
%ADD21R,0.0476X0.0476*%
%ADD22C,0.0476*%
%ADD23R,0.0394X0.0394*%
%ADD24R,0.0472X0.0787*%
%ADD25R,0.0630X0.0630*%
%ADD26R,0.0400X0.0400*%
%ADD27R,0.0079X0.0276*%
%ADD28R,0.0354X0.0276*%
%ADD29C,0.0079*%
%ADD30C,0.0100*%
%ADD31C,0.0240*%
%ADD32C,0.1181*%
%ADD33C,0.0700*%
%ADD34C,0.0236*%
%ADD35C,0.0080*%
D10*
X000301Y000700D02*
X000301Y013700D01*
X000303Y013744D01*
X000309Y013787D01*
X000318Y013829D01*
X000331Y013871D01*
X000348Y013911D01*
X000368Y013950D01*
X000391Y013987D01*
X000418Y014021D01*
X000447Y014054D01*
X000480Y014083D01*
X000514Y014110D01*
X000551Y014133D01*
X000590Y014153D01*
X000630Y014170D01*
X000672Y014183D01*
X000714Y014192D01*
X000757Y014198D01*
X000801Y014200D01*
X009801Y014200D01*
X009845Y014198D01*
X009888Y014192D01*
X009930Y014183D01*
X009972Y014170D01*
X010012Y014153D01*
X010051Y014133D01*
X010088Y014110D01*
X010122Y014083D01*
X010155Y014054D01*
X010184Y014021D01*
X010211Y013987D01*
X010234Y013950D01*
X010254Y013911D01*
X010271Y013871D01*
X010284Y013829D01*
X010293Y013787D01*
X010299Y013744D01*
X010301Y013700D01*
X010301Y000700D01*
X010299Y000656D01*
X010293Y000613D01*
X010284Y000571D01*
X010271Y000529D01*
X010254Y000489D01*
X010234Y000450D01*
X010211Y000413D01*
X010184Y000379D01*
X010155Y000346D01*
X010122Y000317D01*
X010088Y000290D01*
X010051Y000267D01*
X010012Y000247D01*
X009972Y000230D01*
X009930Y000217D01*
X009888Y000208D01*
X009845Y000202D01*
X009801Y000200D01*
X000801Y000200D01*
X000757Y000202D01*
X000714Y000208D01*
X000672Y000217D01*
X000630Y000230D01*
X000590Y000247D01*
X000551Y000267D01*
X000514Y000290D01*
X000480Y000317D01*
X000447Y000346D01*
X000418Y000379D01*
X000391Y000413D01*
X000368Y000450D01*
X000348Y000489D01*
X000331Y000529D01*
X000318Y000571D01*
X000309Y000613D01*
X000303Y000656D01*
X000301Y000700D01*
X003853Y012704D02*
X003855Y012730D01*
X003861Y012756D01*
X003870Y012780D01*
X003883Y012803D01*
X003900Y012823D01*
X003919Y012841D01*
X003941Y012856D01*
X003964Y012867D01*
X003989Y012875D01*
X004015Y012879D01*
X004041Y012879D01*
X004067Y012875D01*
X004092Y012867D01*
X004116Y012856D01*
X004137Y012841D01*
X004156Y012823D01*
X004173Y012803D01*
X004186Y012780D01*
X004195Y012756D01*
X004201Y012730D01*
X004203Y012704D01*
X004201Y012678D01*
X004195Y012652D01*
X004186Y012628D01*
X004173Y012605D01*
X004156Y012585D01*
X004137Y012567D01*
X004115Y012552D01*
X004092Y012541D01*
X004067Y012533D01*
X004041Y012529D01*
X004015Y012529D01*
X003989Y012533D01*
X003964Y012541D01*
X003940Y012552D01*
X003919Y012567D01*
X003900Y012585D01*
X003883Y012605D01*
X003870Y012628D01*
X003861Y012652D01*
X003855Y012678D01*
X003853Y012704D01*
X007436Y012704D02*
X007438Y012730D01*
X007444Y012756D01*
X007453Y012780D01*
X007466Y012803D01*
X007483Y012823D01*
X007502Y012841D01*
X007524Y012856D01*
X007547Y012867D01*
X007572Y012875D01*
X007598Y012879D01*
X007624Y012879D01*
X007650Y012875D01*
X007675Y012867D01*
X007699Y012856D01*
X007720Y012841D01*
X007739Y012823D01*
X007756Y012803D01*
X007769Y012780D01*
X007778Y012756D01*
X007784Y012730D01*
X007786Y012704D01*
X007784Y012678D01*
X007778Y012652D01*
X007769Y012628D01*
X007756Y012605D01*
X007739Y012585D01*
X007720Y012567D01*
X007698Y012552D01*
X007675Y012541D01*
X007650Y012533D01*
X007624Y012529D01*
X007598Y012529D01*
X007572Y012533D01*
X007547Y012541D01*
X007523Y012552D01*
X007502Y012567D01*
X007483Y012585D01*
X007466Y012605D01*
X007453Y012628D01*
X007444Y012652D01*
X007438Y012678D01*
X007436Y012704D01*
D11*
X006657Y011357D03*
X006223Y011357D03*
X005790Y011357D03*
X005357Y011357D03*
X004924Y011357D03*
X003743Y011357D03*
X003310Y011357D03*
X002877Y011357D03*
X002444Y011357D03*
X002011Y011357D03*
X001578Y011357D03*
X001145Y011357D03*
X001145Y006239D03*
X001578Y006239D03*
X002011Y006239D03*
X002444Y006239D03*
X002877Y006239D03*
X003310Y006239D03*
X003743Y006239D03*
X004924Y006239D03*
X005357Y006239D03*
X005790Y006239D03*
X006223Y006239D03*
X006657Y006239D03*
D12*
X005494Y004722D03*
X005022Y004722D03*
X003899Y004842D03*
X003899Y004402D03*
X003427Y004402D03*
X003427Y004842D03*
X002941Y004758D03*
X002941Y004285D03*
X002777Y003443D03*
X002304Y003443D03*
X001579Y004769D03*
X001107Y004769D03*
X003834Y003363D03*
X003834Y002891D03*
X004275Y003092D03*
X004275Y002619D03*
X004782Y002480D03*
X005254Y002480D03*
X006585Y002443D03*
X007057Y002443D03*
X007101Y003239D03*
X006628Y003239D03*
X009068Y003208D03*
X009068Y003681D03*
X009501Y002841D03*
X009973Y002841D03*
X009535Y002280D03*
X009063Y002280D03*
X008621Y007724D03*
X008621Y008196D03*
X008053Y008440D03*
X007581Y008440D03*
X008384Y009318D03*
X008857Y009318D03*
X008141Y009884D03*
X008141Y010356D03*
X008224Y011000D03*
X008697Y011000D03*
X008704Y011480D03*
X009177Y011480D03*
X009184Y011000D03*
X009657Y011000D03*
X010033Y010270D03*
X010033Y009797D03*
X005737Y012440D03*
X005264Y012440D03*
X004701Y012436D03*
X004701Y011964D03*
X003177Y012200D03*
X002704Y012200D03*
D13*
X006455Y012680D03*
D14*
X007341Y011696D03*
X007341Y013664D03*
D15*
X008226Y012680D03*
D16*
X005281Y001725D03*
X002840Y001725D03*
D17*
X003549Y001774D03*
X003805Y001774D03*
X004061Y001774D03*
X004317Y001774D03*
X004572Y001774D03*
D18*
X004513Y000721D03*
X003608Y000721D03*
X002486Y000721D03*
X005635Y000721D03*
D19*
X005261Y003287D02*
X005261Y003996D01*
D20*
X004670Y003937D03*
X004670Y004134D03*
X004670Y004330D03*
X004670Y003740D03*
X004670Y003543D03*
X004670Y003346D03*
X004670Y003149D03*
X004670Y002953D03*
X005851Y002953D03*
X005851Y003149D03*
X005851Y003346D03*
X005851Y003543D03*
X005851Y003740D03*
X005851Y003937D03*
X005851Y004134D03*
X005851Y004330D03*
D21*
X000797Y002754D03*
D22*
X000797Y002164D03*
D23*
X006749Y003681D03*
X007536Y003681D03*
D24*
X007771Y004364D03*
X006511Y004364D03*
D25*
X009210Y005169D03*
X009210Y006271D03*
D26*
X005776Y013320D03*
X005225Y013320D03*
X002381Y004440D03*
X002381Y003889D03*
X001888Y003687D03*
X001888Y004238D03*
D27*
X008706Y009746D03*
X008863Y009746D03*
X009021Y009746D03*
X009178Y009746D03*
X009336Y009746D03*
X009336Y010494D03*
X009178Y010494D03*
X009021Y010494D03*
X008863Y010494D03*
X008706Y010494D03*
D28*
X009109Y007358D03*
X009109Y006846D03*
D29*
X000447Y000630D02*
X000501Y000500D01*
X000600Y000400D01*
X000730Y000347D01*
X000801Y000340D01*
X001992Y000340D01*
X001992Y000681D01*
X002446Y000681D01*
X002446Y000760D01*
X001992Y000760D01*
X001992Y001113D01*
X002002Y001149D01*
X002020Y001180D01*
X002046Y001206D01*
X002078Y001225D01*
X002113Y001234D01*
X002446Y001234D01*
X002446Y000760D01*
X002525Y000760D01*
X002980Y000760D01*
X002980Y001113D01*
X002970Y001149D01*
X002952Y001180D01*
X002926Y001206D01*
X002894Y001225D01*
X002859Y001234D01*
X002525Y001234D01*
X002525Y000760D01*
X002525Y000681D01*
X002980Y000681D01*
X002980Y000340D01*
X003154Y000340D01*
X003154Y001136D01*
X003212Y001194D01*
X004003Y001194D01*
X004061Y001137D01*
X004118Y001194D01*
X004909Y001194D01*
X004967Y001136D01*
X004967Y000340D01*
X005142Y000340D01*
X005142Y000681D01*
X005596Y000681D01*
X005596Y000760D01*
X005142Y000760D01*
X005142Y001113D01*
X005151Y001149D01*
X005170Y001180D01*
X005196Y001206D01*
X005227Y001225D01*
X005263Y001234D01*
X005596Y001234D01*
X005596Y000760D01*
X005675Y000760D01*
X006129Y000760D01*
X006129Y001113D01*
X006120Y001149D01*
X006101Y001180D01*
X006075Y001206D01*
X006044Y001225D01*
X006008Y001234D01*
X005675Y001234D01*
X005675Y000760D01*
X005675Y000681D01*
X006129Y000681D01*
X006129Y000340D01*
X009801Y000340D01*
X009871Y000347D01*
X010001Y000400D01*
X010100Y000500D01*
X010154Y000630D01*
X010161Y000700D01*
X010161Y002310D01*
X010077Y002225D01*
X009895Y002225D01*
X009792Y002328D01*
X009792Y002082D01*
X009734Y002023D01*
X009613Y002023D01*
X009613Y001954D01*
X009531Y001873D01*
X009374Y001715D01*
X009252Y001715D01*
X009171Y001634D01*
X008989Y001634D01*
X008861Y001763D01*
X008861Y001945D01*
X008900Y001983D01*
X008887Y001983D01*
X008851Y001993D01*
X008819Y002011D01*
X008794Y002037D01*
X008775Y002069D01*
X008766Y002104D01*
X008766Y002241D01*
X009023Y002241D01*
X009023Y002320D01*
X009023Y002577D01*
X008904Y002577D01*
X008904Y002912D01*
X009028Y002912D01*
X009028Y003169D01*
X009107Y003169D01*
X009107Y002912D01*
X009204Y002912D01*
X009204Y002881D01*
X009461Y002881D01*
X009461Y002802D01*
X009204Y002802D01*
X009204Y002666D01*
X009213Y002630D01*
X009232Y002598D01*
X009258Y002572D01*
X009259Y002571D01*
X009238Y002577D01*
X009102Y002577D01*
X009102Y002320D01*
X009023Y002320D01*
X008766Y002320D01*
X008766Y002327D01*
X008511Y002073D01*
X008541Y002073D01*
X008670Y001945D01*
X008670Y001763D01*
X008605Y001698D01*
X008703Y001601D01*
X008817Y001601D01*
X008945Y001472D01*
X008945Y001290D01*
X008817Y001162D01*
X008635Y001162D01*
X008506Y001290D01*
X008506Y001404D01*
X008353Y001558D01*
X008353Y001513D01*
X008398Y001513D01*
X008353Y001513D02*
X008433Y001433D01*
X008433Y001251D01*
X008305Y001123D01*
X008123Y001123D01*
X007995Y001251D01*
X007995Y001433D01*
X008075Y001513D01*
X005834Y001513D01*
X005834Y001436D02*
X007998Y001436D01*
X007995Y001359D02*
X005825Y001359D01*
X005824Y001356D02*
X005834Y001391D01*
X005834Y001676D01*
X005910Y001599D01*
X005991Y001518D01*
X007217Y001518D01*
X007221Y001515D01*
X007274Y001518D01*
X007327Y001518D01*
X007330Y001522D01*
X007336Y001522D01*
X007370Y001562D01*
X007408Y001599D01*
X007408Y001605D01*
X007608Y001833D01*
X007701Y001833D01*
X008527Y002660D01*
X008609Y002741D01*
X008609Y002899D01*
X008626Y002916D01*
X008626Y002916D01*
X008626Y002581D01*
X008075Y002029D01*
X008075Y001513D01*
X008075Y001591D02*
X007399Y001591D01*
X007463Y001668D02*
X008075Y001668D01*
X008075Y001745D02*
X007531Y001745D01*
X007598Y001822D02*
X008075Y001822D01*
X008075Y001900D02*
X007767Y001900D01*
X007844Y001977D02*
X008075Y001977D01*
X008100Y002054D02*
X007921Y002054D01*
X007999Y002131D02*
X008177Y002131D01*
X008254Y002208D02*
X008076Y002208D01*
X008153Y002286D02*
X008332Y002286D01*
X008409Y002363D02*
X008230Y002363D01*
X008308Y002440D02*
X008486Y002440D01*
X008563Y002517D02*
X008385Y002517D01*
X008462Y002595D02*
X008626Y002595D01*
X008626Y002672D02*
X008539Y002672D01*
X008609Y002749D02*
X008626Y002749D01*
X008626Y002826D02*
X008609Y002826D01*
X008614Y002904D02*
X008626Y002904D01*
X008568Y003055D02*
X008568Y003822D01*
X008490Y003901D01*
X008490Y004255D01*
X008588Y004373D01*
X008490Y004610D02*
X008332Y004452D01*
X008332Y003842D01*
X008411Y003763D01*
X008411Y003114D01*
X008312Y003015D01*
X008312Y002877D01*
X007604Y002169D01*
X007009Y002169D01*
X006836Y001972D01*
X006285Y001972D01*
X006246Y002011D01*
X006246Y002366D01*
X006049Y002247D02*
X006049Y001893D01*
X006127Y001814D01*
X007001Y001814D01*
X007108Y001933D01*
X007269Y001657D02*
X006049Y001657D01*
X005891Y001814D01*
X005891Y002090D01*
X005694Y002287D01*
X005492Y002179D02*
X005320Y002179D01*
X005320Y001764D01*
X005242Y001764D01*
X005242Y002179D01*
X004849Y002179D01*
X004814Y002170D01*
X004782Y002151D01*
X004756Y002125D01*
X004738Y002094D01*
X004711Y002120D01*
X004711Y002213D01*
X004721Y002223D01*
X004981Y002223D01*
X004990Y002232D01*
X005011Y002211D01*
X005043Y002192D01*
X005079Y002183D01*
X005215Y002183D01*
X005215Y002440D01*
X005294Y002440D01*
X005294Y002183D01*
X005430Y002183D01*
X005466Y002192D01*
X005475Y002198D01*
X005475Y002196D01*
X005492Y002179D01*
X005320Y002131D02*
X005242Y002131D01*
X005242Y002054D02*
X005320Y002054D01*
X005320Y001977D02*
X005242Y001977D01*
X005242Y001900D02*
X005320Y001900D01*
X005320Y001822D02*
X005242Y001822D01*
X005242Y001685D02*
X005320Y001685D01*
X005320Y001270D01*
X005713Y001270D01*
X005748Y001280D01*
X005780Y001298D01*
X005806Y001324D01*
X005824Y001356D01*
X005751Y001282D02*
X007995Y001282D01*
X008041Y001204D02*
X006077Y001204D01*
X006125Y001127D02*
X008119Y001127D01*
X008309Y001127D02*
X010161Y001127D01*
X010161Y001050D02*
X006129Y001050D01*
X006129Y000973D02*
X010161Y000973D01*
X010161Y000895D02*
X006129Y000895D01*
X006129Y000818D02*
X010161Y000818D01*
X010161Y000741D02*
X005675Y000741D01*
X005675Y000818D02*
X005596Y000818D01*
X005596Y000741D02*
X004967Y000741D01*
X004967Y000818D02*
X005142Y000818D01*
X005142Y000895D02*
X004967Y000895D01*
X004967Y000973D02*
X005142Y000973D01*
X005142Y001050D02*
X004967Y001050D01*
X004967Y001127D02*
X005145Y001127D01*
X005193Y001204D02*
X002928Y001204D01*
X002880Y001270D02*
X003272Y001270D01*
X003307Y001280D01*
X003339Y001298D01*
X003365Y001324D01*
X003383Y001356D01*
X003393Y001391D01*
X003393Y001392D01*
X003416Y001378D01*
X003452Y001369D01*
X003549Y001369D01*
X003646Y001369D01*
X003681Y001378D01*
X003713Y001397D01*
X003725Y001409D01*
X003925Y001409D01*
X003933Y001417D01*
X003941Y001409D01*
X004181Y001409D01*
X004189Y001417D01*
X004197Y001409D01*
X004436Y001409D01*
X004444Y001417D01*
X004453Y001409D01*
X004692Y001409D01*
X004728Y001445D01*
X004728Y001391D01*
X004738Y001356D01*
X004756Y001324D01*
X004782Y001298D01*
X004814Y001280D01*
X004849Y001270D01*
X005242Y001270D01*
X005242Y001685D01*
X005242Y001668D02*
X005320Y001668D01*
X005320Y001591D02*
X005242Y001591D01*
X005242Y001513D02*
X005320Y001513D01*
X005320Y001436D02*
X005242Y001436D01*
X005242Y001359D02*
X005320Y001359D01*
X005320Y001282D02*
X005242Y001282D01*
X005596Y001204D02*
X005675Y001204D01*
X005675Y001127D02*
X005596Y001127D01*
X005596Y001050D02*
X005675Y001050D01*
X005675Y000973D02*
X005596Y000973D01*
X005596Y000895D02*
X005675Y000895D01*
X006129Y000664D02*
X010158Y000664D01*
X010136Y000586D02*
X006129Y000586D01*
X006129Y000509D02*
X010104Y000509D01*
X010033Y000432D02*
X006129Y000432D01*
X006129Y000355D02*
X009891Y000355D01*
X010161Y001204D02*
X008859Y001204D01*
X008936Y001282D02*
X010161Y001282D01*
X010161Y001359D02*
X008945Y001359D01*
X008945Y001436D02*
X010161Y001436D01*
X010161Y001513D02*
X008904Y001513D01*
X008827Y001591D02*
X010161Y001591D01*
X010161Y001668D02*
X009204Y001668D01*
X009316Y001854D02*
X009080Y001854D01*
X008956Y001668D02*
X008636Y001668D01*
X008652Y001745D02*
X008879Y001745D01*
X008861Y001822D02*
X008670Y001822D01*
X008670Y001900D02*
X008861Y001900D01*
X008893Y001977D02*
X008637Y001977D01*
X008560Y002054D02*
X008784Y002054D01*
X008766Y002131D02*
X008570Y002131D01*
X008647Y002208D02*
X008766Y002208D01*
X008724Y002286D02*
X009023Y002286D01*
X009023Y002363D02*
X009102Y002363D01*
X009102Y002440D02*
X009023Y002440D01*
X009023Y002517D02*
X009102Y002517D01*
X009235Y002595D02*
X008904Y002595D01*
X008904Y002672D02*
X009204Y002672D01*
X009204Y002749D02*
X008904Y002749D01*
X008904Y002826D02*
X009461Y002826D01*
X009461Y002802D02*
X009540Y002802D01*
X009540Y002545D01*
X009676Y002545D01*
X009712Y002554D01*
X009744Y002572D01*
X009765Y002594D01*
X009774Y002585D01*
X009816Y002585D01*
X009766Y002535D01*
X009766Y002504D01*
X009734Y002537D01*
X009336Y002537D01*
X009327Y002528D01*
X009306Y002549D01*
X009304Y002550D01*
X009325Y002545D01*
X009461Y002545D01*
X009461Y002802D01*
X009461Y002749D02*
X009540Y002749D01*
X009540Y002672D02*
X009461Y002672D01*
X009461Y002595D02*
X009540Y002595D01*
X009753Y002517D02*
X009766Y002517D01*
X009973Y002457D02*
X009973Y002841D01*
X009986Y002933D01*
X009986Y003114D01*
X010143Y003271D01*
X010143Y007641D01*
X010064Y007720D01*
X010064Y008153D01*
X009828Y007917D01*
X008813Y007917D01*
X008621Y007724D01*
X008608Y007711D02*
X008608Y006775D01*
X008135Y006303D01*
X008291Y006148D02*
X008756Y006148D01*
X008756Y006225D02*
X008355Y006225D01*
X008355Y006212D02*
X008355Y006326D01*
X008746Y006718D01*
X008746Y007467D01*
X008819Y007467D01*
X008832Y007480D01*
X008832Y007179D01*
X008890Y007121D01*
X009308Y007121D01*
X009271Y007083D01*
X008890Y007083D01*
X008832Y007025D01*
X008832Y006711D01*
X008809Y006698D01*
X008783Y006672D01*
X008765Y006640D01*
X008756Y006605D01*
X008756Y006311D01*
X009171Y006311D01*
X009171Y006232D01*
X009249Y006232D01*
X009249Y005817D01*
X009543Y005817D01*
X009579Y005827D01*
X009610Y005845D01*
X009636Y005871D01*
X009655Y005903D01*
X009664Y005938D01*
X009664Y006232D01*
X009249Y006232D01*
X009249Y006311D01*
X009664Y006311D01*
X009664Y006605D01*
X009655Y006640D01*
X009636Y006672D01*
X009610Y006698D01*
X009579Y006716D01*
X009543Y006726D01*
X009385Y006726D01*
X009385Y006805D01*
X009529Y006949D01*
X009643Y006949D01*
X009772Y007078D01*
X009772Y007225D01*
X009773Y007225D01*
X009847Y007151D01*
X009847Y005649D01*
X009840Y005656D01*
X009659Y005656D01*
X009576Y005573D01*
X009566Y005583D01*
X008854Y005583D01*
X008796Y005525D01*
X008796Y005308D01*
X008022Y005308D01*
X007969Y005311D01*
X007965Y005308D01*
X007358Y005308D01*
X007276Y005227D01*
X007251Y005201D01*
X006759Y005201D01*
X006700Y005142D01*
X005220Y005142D01*
X005085Y005277D01*
X005085Y005455D01*
X005013Y005527D01*
X005107Y005621D01*
X005107Y005803D01*
X005065Y005845D01*
X005090Y005845D01*
X005141Y005895D01*
X005191Y005845D01*
X005259Y005845D01*
X005361Y005743D01*
X005443Y005661D01*
X005829Y005661D01*
X005829Y005621D01*
X005958Y005493D01*
X006140Y005493D01*
X006260Y005613D01*
X006426Y005613D01*
X006341Y005527D01*
X006341Y005346D01*
X006470Y005217D01*
X006651Y005217D01*
X006780Y005346D01*
X006780Y005420D01*
X006815Y005455D01*
X006972Y005455D01*
X007366Y005849D01*
X007445Y005849D01*
X007837Y006241D01*
X007916Y006241D01*
X007916Y006212D01*
X008044Y006083D01*
X008226Y006083D01*
X008355Y006212D01*
X008355Y006302D02*
X009171Y006302D01*
X009171Y006232D02*
X008756Y006232D01*
X008756Y005938D01*
X008765Y005903D01*
X008783Y005871D01*
X008809Y005845D01*
X008841Y005827D01*
X008877Y005817D01*
X009171Y005817D01*
X009171Y006232D01*
X009171Y006225D02*
X009249Y006225D01*
X009249Y006302D02*
X009847Y006302D01*
X009847Y006225D02*
X009664Y006225D01*
X009664Y006148D02*
X009847Y006148D01*
X009847Y006071D02*
X009664Y006071D01*
X009664Y005993D02*
X009847Y005993D01*
X009847Y005916D02*
X009658Y005916D01*
X009600Y005839D02*
X009847Y005839D01*
X009847Y005762D02*
X007279Y005762D01*
X007356Y005839D02*
X008820Y005839D01*
X008762Y005916D02*
X007512Y005916D01*
X007589Y005993D02*
X008756Y005993D01*
X008756Y006071D02*
X007666Y006071D01*
X007744Y006148D02*
X007980Y006148D01*
X007916Y006225D02*
X007821Y006225D01*
X007860Y006460D02*
X007387Y005988D01*
X007309Y005988D01*
X006915Y005594D01*
X006757Y005594D01*
X006600Y005436D01*
X006560Y005436D01*
X006732Y005298D02*
X007348Y005298D01*
X007271Y005221D02*
X006655Y005221D01*
X006701Y005144D02*
X005219Y005144D01*
X005142Y005221D02*
X006466Y005221D01*
X006389Y005298D02*
X005085Y005298D01*
X005085Y005375D02*
X006341Y005375D01*
X006341Y005453D02*
X005085Y005453D01*
X005015Y005530D02*
X005921Y005530D01*
X005843Y005607D02*
X005092Y005607D01*
X005107Y005684D02*
X005419Y005684D01*
X005342Y005762D02*
X005107Y005762D01*
X005071Y005839D02*
X005265Y005839D01*
X004887Y005712D02*
X004651Y005712D01*
X004316Y006027D01*
X004316Y006775D01*
X003568Y007523D01*
X003568Y010397D01*
X003332Y010633D01*
X002348Y010633D01*
X001994Y010988D01*
X001994Y011340D01*
X002011Y011357D01*
X002227Y011013D02*
X002196Y010982D01*
X002405Y010772D01*
X003390Y010772D01*
X003471Y010691D01*
X003707Y010455D01*
X003707Y007581D01*
X004455Y006833D01*
X004455Y006087D01*
X004706Y005851D01*
X004716Y005851D01*
X004734Y005869D01*
X004700Y005903D01*
X004700Y006576D01*
X004721Y006597D01*
X004721Y007503D01*
X004161Y008063D01*
X004161Y012419D01*
X004091Y012390D01*
X003966Y012390D01*
X003850Y012438D01*
X003762Y012526D01*
X003714Y012641D01*
X003714Y012767D01*
X003762Y012882D01*
X003850Y012971D01*
X003966Y013018D01*
X004091Y013018D01*
X004206Y012971D01*
X004220Y012957D01*
X004243Y012980D01*
X005283Y012980D01*
X005284Y012981D01*
X005264Y012981D01*
X005264Y013281D01*
X005186Y013281D01*
X005186Y012981D01*
X005007Y012981D01*
X004971Y012990D01*
X004939Y013009D01*
X004914Y013035D01*
X004895Y013066D01*
X004886Y013102D01*
X004886Y013281D01*
X005186Y013281D01*
X005186Y013360D01*
X005186Y013660D01*
X005007Y013660D01*
X004971Y013650D01*
X004939Y013632D01*
X004914Y013606D01*
X004895Y013574D01*
X004886Y013539D01*
X004886Y013360D01*
X005186Y013360D01*
X005264Y013360D01*
X005264Y013660D01*
X005361Y013660D01*
X005361Y014061D01*
X000801Y014061D01*
X000730Y014054D01*
X000600Y014000D01*
X000501Y013901D01*
X000447Y013771D01*
X000440Y013700D01*
X000440Y004118D01*
X000519Y004197D01*
X001289Y004197D01*
X001282Y004204D01*
X001282Y004386D01*
X001363Y004466D01*
X001363Y004513D01*
X001350Y004500D01*
X001318Y004482D01*
X001283Y004472D01*
X001146Y004472D01*
X001146Y004730D01*
X001068Y004730D01*
X001068Y004472D01*
X000931Y004472D01*
X000896Y004482D01*
X000864Y004500D01*
X000838Y004526D01*
X000820Y004558D01*
X000810Y004593D01*
X000810Y004730D01*
X001068Y004730D01*
X001068Y004808D01*
X000810Y004808D01*
X000810Y004945D01*
X000815Y004962D01*
X000597Y005180D01*
X000516Y005261D01*
X000516Y007344D01*
X000792Y007620D01*
X000792Y007620D01*
X000873Y007701D01*
X000875Y007701D01*
X000829Y007747D01*
X000829Y007929D01*
X000958Y008057D01*
X001140Y008057D01*
X001268Y007929D01*
X001268Y007747D01*
X001254Y007733D01*
X001294Y007701D01*
X003043Y007701D01*
X003123Y007782D01*
X003305Y007782D01*
X003430Y007657D01*
X003430Y010340D01*
X003275Y010495D01*
X002290Y010495D01*
X001936Y010849D01*
X001855Y010930D01*
X001855Y010963D01*
X001845Y010963D01*
X001794Y011013D01*
X001744Y010963D01*
X001412Y010963D01*
X001361Y011013D01*
X001311Y010963D01*
X000979Y010963D01*
X000920Y011021D01*
X000920Y011694D01*
X000979Y011752D01*
X001311Y011752D01*
X001361Y011702D01*
X001412Y011752D01*
X001744Y011752D01*
X001794Y011702D01*
X001845Y011752D01*
X002177Y011752D01*
X002227Y011702D01*
X002278Y011752D01*
X002610Y011752D01*
X002660Y011702D01*
X002711Y011752D01*
X003043Y011752D01*
X003094Y011702D01*
X003144Y011752D01*
X003476Y011752D01*
X003527Y011702D01*
X003577Y011752D01*
X003616Y011752D01*
X003616Y012028D01*
X003593Y012051D01*
X003434Y012051D01*
X003434Y012002D01*
X003375Y011943D01*
X002978Y011943D01*
X002969Y011953D01*
X002947Y011931D01*
X002916Y011913D01*
X002880Y011903D01*
X002744Y011903D01*
X002744Y012161D01*
X002665Y012161D01*
X002408Y012161D01*
X002408Y012024D01*
X002417Y011989D01*
X002435Y011957D01*
X002461Y011931D01*
X002493Y011913D01*
X002529Y011903D01*
X002665Y011903D01*
X002665Y012161D01*
X002665Y012240D01*
X002665Y012497D01*
X002529Y012497D01*
X002493Y012488D01*
X002461Y012469D01*
X002435Y012443D01*
X002417Y012412D01*
X002408Y012376D01*
X002408Y012240D01*
X002665Y012240D01*
X002744Y012240D01*
X002744Y012497D01*
X002880Y012497D01*
X002916Y012488D01*
X002947Y012469D01*
X002969Y012448D01*
X002978Y012457D01*
X003375Y012457D01*
X003434Y012399D01*
X003434Y012350D01*
X003717Y012350D01*
X003827Y012239D01*
X003915Y012152D01*
X003915Y011747D01*
X003968Y011694D01*
X003968Y011021D01*
X003909Y010963D01*
X003577Y010963D01*
X003527Y011013D01*
X003476Y010963D01*
X003144Y010963D01*
X003094Y011013D01*
X003043Y010963D01*
X002711Y010963D01*
X002660Y011013D01*
X002610Y010963D01*
X002278Y010963D01*
X002227Y011013D01*
X002241Y010937D02*
X004161Y010937D01*
X004161Y011014D02*
X003960Y011014D01*
X003968Y011091D02*
X004161Y011091D01*
X004161Y011168D02*
X003968Y011168D01*
X003968Y011246D02*
X004161Y011246D01*
X004161Y011323D02*
X003968Y011323D01*
X003968Y011400D02*
X004161Y011400D01*
X004161Y011477D02*
X003968Y011477D01*
X003968Y011555D02*
X004161Y011555D01*
X004161Y011632D02*
X003968Y011632D01*
X003952Y011709D02*
X004161Y011709D01*
X004161Y011786D02*
X003915Y011786D01*
X003915Y011864D02*
X004161Y011864D01*
X004161Y011941D02*
X003915Y011941D01*
X003915Y012018D02*
X004161Y012018D01*
X004161Y012095D02*
X003915Y012095D01*
X003894Y012172D02*
X004161Y012172D01*
X004161Y012250D02*
X003817Y012250D01*
X003739Y012327D02*
X004161Y012327D01*
X004161Y012404D02*
X004126Y012404D01*
X003930Y012404D02*
X003428Y012404D01*
X003434Y012018D02*
X003616Y012018D01*
X003616Y011941D02*
X002957Y011941D01*
X003086Y011709D02*
X003101Y011709D01*
X002744Y011941D02*
X002665Y011941D01*
X002665Y012018D02*
X002744Y012018D01*
X002744Y012095D02*
X002665Y012095D01*
X002665Y012172D02*
X000440Y012172D01*
X000440Y012095D02*
X002408Y012095D01*
X002409Y012018D02*
X000440Y012018D01*
X000440Y011941D02*
X002452Y011941D01*
X002653Y011709D02*
X002668Y011709D01*
X002665Y012250D02*
X002744Y012250D01*
X002744Y012327D02*
X002665Y012327D01*
X002665Y012404D02*
X002744Y012404D01*
X002744Y012481D02*
X002665Y012481D01*
X002483Y012481D02*
X000440Y012481D01*
X000440Y012404D02*
X002415Y012404D01*
X002408Y012327D02*
X000440Y012327D01*
X000440Y012250D02*
X002408Y012250D01*
X002235Y011709D02*
X002220Y011709D01*
X001802Y011709D02*
X001787Y011709D01*
X001369Y011709D02*
X001354Y011709D01*
X000936Y011709D02*
X000440Y011709D01*
X000440Y011632D02*
X000920Y011632D01*
X000920Y011555D02*
X000440Y011555D01*
X000440Y011477D02*
X000920Y011477D01*
X000920Y011400D02*
X000440Y011400D01*
X000440Y011323D02*
X000920Y011323D01*
X000920Y011246D02*
X000440Y011246D01*
X000440Y011168D02*
X000920Y011168D01*
X000920Y011091D02*
X000440Y011091D01*
X000440Y011014D02*
X000927Y011014D01*
X000440Y010937D02*
X001855Y010937D01*
X001926Y010859D02*
X000440Y010859D01*
X000440Y010782D02*
X002003Y010782D01*
X002080Y010705D02*
X000440Y010705D01*
X000440Y010628D02*
X002157Y010628D01*
X002235Y010550D02*
X000440Y010550D01*
X000440Y010473D02*
X003296Y010473D01*
X003373Y010396D02*
X000440Y010396D01*
X000440Y010319D02*
X003430Y010319D01*
X003430Y010241D02*
X000440Y010241D01*
X000440Y010164D02*
X003430Y010164D01*
X003430Y010087D02*
X000440Y010087D01*
X000440Y010010D02*
X003430Y010010D01*
X003430Y009933D02*
X000440Y009933D01*
X000440Y009855D02*
X003430Y009855D01*
X003430Y009778D02*
X000440Y009778D01*
X000440Y009701D02*
X003430Y009701D01*
X003430Y009624D02*
X000440Y009624D01*
X000440Y009546D02*
X003430Y009546D01*
X003430Y009469D02*
X000440Y009469D01*
X000440Y009392D02*
X003430Y009392D01*
X003430Y009315D02*
X000440Y009315D01*
X000440Y009237D02*
X003430Y009237D01*
X003430Y009160D02*
X000440Y009160D01*
X000440Y009083D02*
X003430Y009083D01*
X003430Y009006D02*
X000440Y009006D01*
X000440Y008928D02*
X003430Y008928D01*
X003430Y008851D02*
X002039Y008851D01*
X002006Y008884D02*
X001824Y008884D01*
X001704Y008764D01*
X001444Y008764D01*
X001406Y008727D01*
X001312Y008727D01*
X001184Y008598D01*
X001184Y008416D01*
X001312Y008288D01*
X001494Y008288D01*
X001622Y008416D01*
X001622Y008487D01*
X001783Y008487D01*
X001824Y008445D01*
X002006Y008445D01*
X002134Y008574D01*
X002134Y008756D01*
X002006Y008884D01*
X002116Y008774D02*
X003430Y008774D01*
X003430Y008697D02*
X002134Y008697D01*
X002134Y008619D02*
X003430Y008619D01*
X003430Y008542D02*
X002102Y008542D01*
X002025Y008465D02*
X003430Y008465D01*
X003430Y008388D02*
X001594Y008388D01*
X001622Y008465D02*
X001804Y008465D01*
X001875Y008625D02*
X001915Y008665D01*
X001875Y008625D02*
X001501Y008625D01*
X001403Y008527D01*
X001403Y008507D01*
X001516Y008310D02*
X003430Y008310D01*
X003430Y008233D02*
X000440Y008233D01*
X000440Y008156D02*
X003430Y008156D01*
X003430Y008079D02*
X000440Y008079D01*
X000440Y008002D02*
X000902Y008002D01*
X000829Y007924D02*
X000440Y007924D01*
X000440Y007847D02*
X000829Y007847D01*
X000829Y007770D02*
X000440Y007770D01*
X000440Y007693D02*
X000864Y007693D01*
X000787Y007615D02*
X000440Y007615D01*
X000440Y007538D02*
X000710Y007538D01*
X000633Y007461D02*
X000440Y007461D01*
X000440Y007384D02*
X000555Y007384D01*
X000516Y007306D02*
X000440Y007306D01*
X000440Y007229D02*
X000516Y007229D01*
X000516Y007152D02*
X000440Y007152D01*
X000440Y007075D02*
X000516Y007075D01*
X000516Y006997D02*
X000440Y006997D01*
X000440Y006920D02*
X000516Y006920D01*
X000516Y006843D02*
X000440Y006843D01*
X000440Y006766D02*
X000516Y006766D01*
X000516Y006688D02*
X000440Y006688D01*
X000440Y006611D02*
X000516Y006611D01*
X000516Y006534D02*
X000440Y006534D01*
X000440Y006457D02*
X000516Y006457D01*
X000516Y006379D02*
X000440Y006379D01*
X000440Y006302D02*
X000516Y006302D01*
X000516Y006225D02*
X000440Y006225D01*
X000440Y006148D02*
X000516Y006148D01*
X000516Y006071D02*
X000440Y006071D01*
X000440Y005993D02*
X000516Y005993D01*
X000516Y005916D02*
X000440Y005916D01*
X000440Y005839D02*
X000516Y005839D01*
X000516Y005762D02*
X000440Y005762D01*
X000440Y005684D02*
X000516Y005684D01*
X000516Y005607D02*
X000440Y005607D01*
X000440Y005530D02*
X000516Y005530D01*
X000516Y005453D02*
X000440Y005453D01*
X000440Y005375D02*
X000516Y005375D01*
X000516Y005298D02*
X000440Y005298D01*
X000440Y005221D02*
X000556Y005221D01*
X000633Y005144D02*
X000440Y005144D01*
X000440Y005066D02*
X000711Y005066D01*
X000788Y004989D02*
X000440Y004989D01*
X000440Y004912D02*
X000810Y004912D01*
X000810Y004835D02*
X000440Y004835D01*
X000440Y004757D02*
X001068Y004757D01*
X001068Y004680D02*
X001146Y004680D01*
X001146Y004603D02*
X001068Y004603D01*
X001068Y004526D02*
X001146Y004526D01*
X001282Y004371D02*
X000440Y004371D01*
X000440Y004294D02*
X001282Y004294D01*
X001282Y004217D02*
X000440Y004217D01*
X000440Y004139D02*
X000461Y004139D01*
X000576Y004059D02*
X000517Y003999D01*
X000517Y003035D01*
X000797Y002754D01*
X000656Y003091D02*
X000655Y003092D01*
X000655Y003920D01*
X001588Y003920D01*
X001588Y003446D01*
X001646Y003388D01*
X001935Y003388D01*
X001935Y003382D01*
X001973Y003343D01*
X002007Y003301D01*
X002016Y003300D01*
X002022Y003294D01*
X002048Y003294D01*
X002048Y003245D01*
X002106Y003187D01*
X002286Y003187D01*
X002286Y003019D01*
X002414Y002890D01*
X002596Y002890D01*
X002715Y003009D01*
X002913Y003009D01*
X002957Y002965D01*
X002957Y002505D01*
X003038Y002424D01*
X003287Y002175D01*
X003272Y002179D01*
X002880Y002179D01*
X002880Y001764D01*
X002801Y001764D01*
X002801Y002179D01*
X002787Y002179D01*
X002843Y002235D01*
X002843Y002417D01*
X002714Y002546D01*
X002533Y002546D01*
X002452Y002465D01*
X001464Y002465D01*
X001382Y002384D01*
X001382Y002384D01*
X001346Y002347D01*
X001264Y002266D01*
X001264Y002069D01*
X001190Y001994D01*
X001136Y001994D01*
X001160Y002054D01*
X001250Y002054D01*
X001264Y002131D02*
X001174Y002131D01*
X001174Y002134D02*
X000827Y002134D01*
X000827Y002193D01*
X001174Y002193D01*
X001174Y002201D01*
X001160Y002274D01*
X001132Y002342D01*
X001090Y002404D01*
X001077Y002417D01*
X001134Y002475D01*
X001134Y003033D01*
X001076Y003091D01*
X000656Y003091D01*
X000655Y003135D02*
X002286Y003135D01*
X002286Y003058D02*
X001109Y003058D01*
X001134Y002981D02*
X002324Y002981D01*
X002401Y002904D02*
X001134Y002904D01*
X001134Y002826D02*
X002957Y002826D01*
X002957Y002749D02*
X001134Y002749D01*
X001134Y002672D02*
X002957Y002672D01*
X002957Y002595D02*
X001134Y002595D01*
X001134Y002517D02*
X002504Y002517D01*
X002623Y002326D02*
X001521Y002326D01*
X001403Y002208D01*
X001403Y002011D01*
X001167Y001775D01*
X001293Y001591D02*
X002287Y001591D01*
X002287Y001668D02*
X001370Y001668D01*
X001386Y001684D02*
X001258Y001556D01*
X001076Y001556D01*
X000947Y001684D01*
X000947Y001817D01*
X000907Y001801D01*
X000834Y001786D01*
X000827Y001786D01*
X000827Y002134D01*
X000768Y002134D01*
X000768Y001786D01*
X000760Y001786D01*
X000687Y001801D01*
X000619Y001829D01*
X000557Y001871D01*
X000504Y001923D01*
X000463Y001985D01*
X000440Y002041D01*
X000440Y000700D01*
X000447Y000630D01*
X000444Y000664D02*
X001992Y000664D01*
X001992Y000586D02*
X000465Y000586D01*
X000497Y000509D02*
X001992Y000509D01*
X001992Y000432D02*
X000569Y000432D01*
X000711Y000355D02*
X001992Y000355D01*
X001992Y000818D02*
X000440Y000818D01*
X000440Y000741D02*
X002446Y000741D01*
X002446Y000818D02*
X002525Y000818D01*
X002525Y000741D02*
X003154Y000741D01*
X003154Y000818D02*
X002980Y000818D01*
X002980Y000895D02*
X003154Y000895D01*
X003154Y000973D02*
X002980Y000973D01*
X002980Y001050D02*
X003154Y001050D01*
X003154Y001127D02*
X002976Y001127D01*
X002880Y001270D02*
X002880Y001685D01*
X002801Y001685D01*
X002801Y001270D01*
X002408Y001270D01*
X002373Y001280D01*
X002341Y001298D01*
X002315Y001324D01*
X002297Y001356D01*
X002287Y001391D01*
X002287Y001685D01*
X002801Y001685D01*
X002801Y001764D01*
X002287Y001764D01*
X002287Y002058D01*
X002297Y002094D01*
X002315Y002125D01*
X002341Y002151D01*
X002373Y002170D01*
X002408Y002179D01*
X002460Y002179D01*
X002452Y002187D01*
X001579Y002187D01*
X001542Y002151D01*
X001542Y001954D01*
X001386Y001798D01*
X001386Y001684D01*
X001386Y001745D02*
X002801Y001745D01*
X002801Y001668D02*
X002880Y001668D01*
X002880Y001591D02*
X002801Y001591D01*
X002801Y001513D02*
X002880Y001513D01*
X002880Y001436D02*
X002801Y001436D01*
X002801Y001359D02*
X002880Y001359D01*
X002880Y001282D02*
X002801Y001282D01*
X002525Y001204D02*
X002446Y001204D01*
X002446Y001127D02*
X002525Y001127D01*
X002525Y001050D02*
X002446Y001050D01*
X002446Y000973D02*
X002525Y000973D01*
X002525Y000895D02*
X002446Y000895D01*
X002370Y001282D02*
X000440Y001282D01*
X000440Y001359D02*
X002296Y001359D01*
X002287Y001436D02*
X000440Y001436D01*
X000440Y001513D02*
X002287Y001513D01*
X002287Y001822D02*
X001410Y001822D01*
X001487Y001900D02*
X002287Y001900D01*
X002287Y001977D02*
X001542Y001977D01*
X001542Y002054D02*
X002287Y002054D01*
X002321Y002131D02*
X001542Y002131D01*
X001362Y002363D02*
X001118Y002363D01*
X001100Y002440D02*
X001439Y002440D01*
X001284Y002286D02*
X001155Y002286D01*
X001173Y002208D02*
X001264Y002208D01*
X001174Y002134D02*
X001174Y002126D01*
X001160Y002054D01*
X000947Y001745D02*
X000440Y001745D01*
X000440Y001668D02*
X000964Y001668D01*
X001041Y001591D02*
X000440Y001591D01*
X000440Y001822D02*
X000636Y001822D01*
X000768Y001822D02*
X000827Y001822D01*
X000827Y001900D02*
X000768Y001900D01*
X000768Y001977D02*
X000827Y001977D01*
X000827Y002054D02*
X000768Y002054D01*
X000768Y002131D02*
X000827Y002131D01*
X000528Y001900D02*
X000440Y001900D01*
X000440Y001977D02*
X000469Y001977D01*
X000440Y001204D02*
X002044Y001204D01*
X001996Y001127D02*
X000440Y001127D01*
X000440Y001050D02*
X001992Y001050D01*
X001992Y000973D02*
X000440Y000973D01*
X000440Y000895D02*
X001992Y000895D01*
X002801Y001822D02*
X002880Y001822D01*
X002880Y001900D02*
X002801Y001900D01*
X002801Y001977D02*
X002880Y001977D01*
X002880Y002054D02*
X002801Y002054D01*
X002801Y002131D02*
X002880Y002131D01*
X002816Y002208D02*
X003254Y002208D01*
X003176Y002286D02*
X002843Y002286D01*
X002843Y002363D02*
X003099Y002363D01*
X003022Y002440D02*
X002820Y002440D01*
X002742Y002517D02*
X002957Y002517D01*
X003096Y002562D02*
X003096Y003022D01*
X002971Y003148D01*
X002539Y003148D01*
X002505Y003110D01*
X002610Y002904D02*
X002957Y002904D01*
X002941Y002981D02*
X002687Y002981D01*
X002777Y003443D02*
X002979Y003625D01*
X004198Y003625D01*
X004281Y003543D01*
X004670Y003543D01*
X004670Y003346D02*
X004556Y003346D01*
X004434Y003389D01*
X003899Y003389D01*
X003834Y003363D01*
X003545Y003095D02*
X003537Y003067D01*
X003537Y002930D01*
X003795Y002930D01*
X003795Y002852D01*
X003537Y002852D01*
X003537Y002715D01*
X003547Y002680D01*
X003565Y002648D01*
X003591Y002622D01*
X003623Y002604D01*
X003658Y002594D01*
X003795Y002594D01*
X003795Y002852D01*
X003874Y002852D01*
X003874Y002594D01*
X004010Y002594D01*
X004045Y002604D01*
X004077Y002622D01*
X004103Y002648D01*
X004109Y002659D01*
X004235Y002659D01*
X004235Y002580D01*
X003978Y002580D01*
X003978Y002465D01*
X003626Y002465D01*
X003392Y002699D01*
X003392Y003052D01*
X003502Y003052D01*
X003545Y003095D01*
X003537Y003058D02*
X003508Y003058D01*
X003537Y002981D02*
X003392Y002981D01*
X003392Y002904D02*
X003795Y002904D01*
X003795Y002826D02*
X003874Y002826D01*
X003874Y002749D02*
X003795Y002749D01*
X003795Y002672D02*
X003874Y002672D01*
X003874Y002595D02*
X003795Y002595D01*
X003656Y002595D02*
X003496Y002595D01*
X003551Y002672D02*
X003419Y002672D01*
X003392Y002749D02*
X003537Y002749D01*
X003537Y002826D02*
X003392Y002826D01*
X003253Y002641D02*
X003253Y003114D01*
X003411Y003271D01*
X003253Y002641D02*
X003568Y002326D01*
X004120Y002326D01*
X004316Y002129D01*
X004316Y001814D01*
X004080Y001833D02*
X004080Y002051D01*
X003962Y002169D01*
X003490Y002169D01*
X003096Y002562D01*
X003573Y002517D02*
X003978Y002517D01*
X004012Y002595D02*
X004235Y002595D01*
X004572Y002270D02*
X004782Y002480D01*
X004789Y002487D02*
X004789Y002834D01*
X004670Y002953D01*
X004670Y003149D02*
X004333Y003149D01*
X004275Y003092D01*
X004399Y003740D02*
X004041Y004098D01*
X003128Y004098D01*
X002941Y004285D01*
X002911Y004728D02*
X002668Y004728D01*
X002381Y004440D01*
X002484Y004740D02*
X002139Y004740D01*
X002081Y004681D01*
X002081Y004538D01*
X001804Y004538D01*
X001836Y004570D01*
X001836Y004968D01*
X001778Y005026D01*
X001718Y005026D01*
X001718Y005042D01*
X001620Y005140D01*
X001539Y005221D01*
X000949Y005221D01*
X000794Y005376D01*
X000794Y007229D01*
X001439Y007229D01*
X001439Y007152D02*
X000794Y007152D01*
X000794Y007075D02*
X001439Y007075D01*
X001439Y006997D02*
X000794Y006997D01*
X000794Y006920D02*
X001439Y006920D01*
X001439Y006843D02*
X000794Y006843D01*
X000794Y006766D02*
X001439Y006766D01*
X001439Y006688D02*
X000794Y006688D01*
X000794Y006611D02*
X000903Y006611D01*
X000908Y006620D02*
X000890Y006588D01*
X000880Y006553D01*
X000880Y006262D01*
X001122Y006262D01*
X001122Y006216D01*
X001168Y006216D01*
X001168Y005846D01*
X001125Y005803D01*
X001125Y005621D01*
X001253Y005493D01*
X001304Y005493D01*
X001304Y005438D01*
X001385Y005357D01*
X001444Y005298D01*
X002034Y005298D01*
X002227Y005105D01*
X002227Y005031D01*
X002355Y004902D01*
X002537Y004902D01*
X002666Y005031D01*
X002666Y005212D01*
X002537Y005341D01*
X002384Y005341D01*
X002231Y005494D01*
X002149Y005575D01*
X001852Y005575D01*
X001889Y005613D01*
X002192Y005613D01*
X002310Y005495D01*
X002664Y005495D01*
X003058Y005101D01*
X003161Y005101D01*
X003195Y005066D01*
X002666Y005066D01*
X002666Y005144D02*
X003015Y005144D01*
X002938Y005221D02*
X002657Y005221D01*
X002580Y005298D02*
X002861Y005298D01*
X002784Y005375D02*
X002349Y005375D01*
X002272Y005453D02*
X002706Y005453D01*
X002722Y005633D02*
X002368Y005633D01*
X002249Y005751D01*
X001718Y005751D01*
X001884Y005607D02*
X002198Y005607D01*
X002195Y005530D02*
X002275Y005530D01*
X002092Y005436D02*
X001501Y005436D01*
X001442Y005496D01*
X001442Y005614D01*
X001344Y005712D01*
X001216Y005530D02*
X000794Y005530D01*
X000794Y005607D02*
X001139Y005607D01*
X001125Y005684D02*
X000794Y005684D01*
X000794Y005762D02*
X001125Y005762D01*
X001122Y005805D02*
X001001Y005805D01*
X000966Y005814D01*
X000934Y005832D01*
X000908Y005858D01*
X000890Y005890D01*
X000880Y005926D01*
X000880Y006216D01*
X001122Y006216D01*
X001122Y005805D01*
X001122Y005839D02*
X001160Y005839D01*
X001168Y005916D02*
X001122Y005916D01*
X001122Y005993D02*
X001168Y005993D01*
X001168Y006071D02*
X001122Y006071D01*
X001122Y006148D02*
X001168Y006148D01*
X001122Y006225D02*
X000794Y006225D01*
X000794Y006302D02*
X000880Y006302D01*
X000880Y006379D02*
X000794Y006379D01*
X000794Y006457D02*
X000880Y006457D01*
X000880Y006534D02*
X000794Y006534D01*
X000908Y006620D02*
X000934Y006646D01*
X000966Y006664D01*
X001001Y006674D01*
X001122Y006674D01*
X001122Y006262D01*
X001168Y006262D01*
X001168Y006674D01*
X001288Y006674D01*
X001324Y006664D01*
X001355Y006646D01*
X001381Y006620D01*
X001387Y006610D01*
X001412Y006634D01*
X001439Y006634D01*
X001439Y007322D01*
X001520Y007404D01*
X001520Y007404D01*
X001540Y007424D01*
X001253Y007424D01*
X001204Y007418D01*
X001197Y007424D01*
X000988Y007424D01*
X000794Y007229D01*
X000871Y007306D02*
X001439Y007306D01*
X001500Y007384D02*
X000948Y007384D01*
X000931Y007562D02*
X001246Y007562D01*
X001049Y007720D01*
X001049Y007838D01*
X001195Y008002D02*
X003430Y008002D01*
X003430Y007924D02*
X001268Y007924D01*
X001268Y007847D02*
X003430Y007847D01*
X003430Y007770D02*
X003317Y007770D01*
X003394Y007693D02*
X003430Y007693D01*
X003214Y007562D02*
X003844Y006933D01*
X004120Y006657D01*
X004120Y005968D01*
X004612Y005476D01*
X004868Y005476D01*
X004946Y005397D01*
X004946Y005220D01*
X005163Y005003D01*
X006757Y005003D01*
X006816Y005062D01*
X007309Y005062D01*
X007415Y005169D01*
X008017Y005169D01*
X007860Y005031D01*
X007840Y004964D01*
X008017Y005169D02*
X009210Y005169D01*
X009198Y004728D02*
X009120Y004649D01*
X009120Y004354D01*
X008883Y004118D01*
X008824Y004118D01*
X008765Y004059D01*
X008765Y002523D01*
X008214Y001972D01*
X008214Y001342D01*
X008433Y001359D02*
X008506Y001359D01*
X008515Y001282D02*
X008433Y001282D01*
X008387Y001204D02*
X008593Y001204D01*
X008726Y001381D02*
X008450Y001657D01*
X008450Y001854D01*
X008430Y001436D02*
X008475Y001436D01*
X009316Y001854D02*
X009474Y002011D01*
X009474Y002219D01*
X009535Y002280D01*
X009792Y002286D02*
X009834Y002286D01*
X009792Y002208D02*
X010161Y002208D01*
X010161Y002131D02*
X009792Y002131D01*
X009764Y002054D02*
X010161Y002054D01*
X010161Y001977D02*
X009613Y001977D01*
X009558Y001900D02*
X010161Y001900D01*
X010161Y001822D02*
X009481Y001822D01*
X009404Y001745D02*
X010161Y001745D01*
X010137Y002286D02*
X010161Y002286D01*
X009986Y002444D02*
X009973Y002457D01*
X009671Y003232D02*
X009434Y003232D01*
X009671Y003232D02*
X009868Y003429D01*
X009868Y004295D01*
X009907Y004334D01*
X009690Y004393D02*
X009690Y004669D01*
X009907Y004885D01*
X009671Y004846D02*
X009553Y004728D01*
X009198Y004728D01*
X009029Y004755D02*
X008981Y004707D01*
X008981Y004645D01*
X008974Y004652D01*
X008874Y004652D01*
X008865Y004662D01*
X008865Y004667D01*
X008827Y004705D01*
X008791Y004745D01*
X008787Y004745D01*
X008783Y004748D01*
X008730Y004748D01*
X008677Y004752D01*
X008673Y004748D01*
X008432Y004748D01*
X008193Y004510D01*
X008193Y003784D01*
X008272Y003706D01*
X008272Y003171D01*
X008174Y003073D01*
X008174Y002935D01*
X007546Y002307D01*
X007354Y002307D01*
X007354Y002403D01*
X007097Y002403D01*
X007097Y002482D01*
X007354Y002482D01*
X007354Y002619D01*
X007345Y002654D01*
X007326Y002686D01*
X007301Y002712D01*
X007269Y002730D01*
X007233Y002740D01*
X007166Y002740D01*
X007204Y002778D01*
X007563Y002778D01*
X007917Y003132D01*
X007998Y003214D01*
X007998Y003871D01*
X008049Y003871D01*
X008107Y003929D01*
X008107Y004799D01*
X008049Y004857D01*
X008043Y004857D01*
X008059Y004873D01*
X008059Y005022D01*
X008069Y005030D01*
X008796Y005030D01*
X008796Y004813D01*
X008854Y004755D01*
X009029Y004755D01*
X008981Y004680D02*
X008852Y004680D01*
X008851Y004757D02*
X008107Y004757D01*
X008107Y004680D02*
X008364Y004680D01*
X008287Y004603D02*
X008107Y004603D01*
X008107Y004526D02*
X008209Y004526D01*
X008193Y004448D02*
X008107Y004448D01*
X008107Y004371D02*
X008193Y004371D01*
X008193Y004294D02*
X008107Y004294D01*
X008107Y004217D02*
X008193Y004217D01*
X008193Y004139D02*
X008107Y004139D01*
X008107Y004062D02*
X008193Y004062D01*
X008193Y003985D02*
X008107Y003985D01*
X008085Y003908D02*
X008193Y003908D01*
X008193Y003831D02*
X007998Y003831D01*
X007998Y003753D02*
X008225Y003753D01*
X008272Y003676D02*
X007998Y003676D01*
X007998Y003599D02*
X008272Y003599D01*
X008272Y003522D02*
X007998Y003522D01*
X007998Y003444D02*
X008272Y003444D01*
X008272Y003367D02*
X007998Y003367D01*
X007998Y003290D02*
X008272Y003290D01*
X008272Y003213D02*
X007997Y003213D01*
X007920Y003135D02*
X008236Y003135D01*
X008174Y003058D02*
X007843Y003058D01*
X007766Y002981D02*
X008174Y002981D01*
X008142Y002904D02*
X007688Y002904D01*
X007611Y002826D02*
X008065Y002826D01*
X007988Y002749D02*
X007176Y002749D01*
X007334Y002672D02*
X007911Y002672D01*
X007834Y002595D02*
X007354Y002595D01*
X007354Y002517D02*
X007756Y002517D01*
X007679Y002440D02*
X007097Y002440D01*
X007354Y002363D02*
X007602Y002363D01*
X007643Y001972D02*
X007545Y001972D01*
X007269Y001657D01*
X007643Y001972D02*
X008470Y002799D01*
X008470Y002956D01*
X008568Y003055D01*
X008904Y002904D02*
X009204Y002904D01*
X009107Y002981D02*
X009028Y002981D01*
X009028Y003058D02*
X009107Y003058D01*
X009107Y003135D02*
X009028Y003135D01*
X009068Y003681D02*
X009120Y003693D01*
X009120Y004137D01*
X009356Y004373D01*
X009434Y004137D02*
X009690Y004393D01*
X009434Y004137D02*
X009434Y003547D01*
X008883Y004433D02*
X008726Y004610D01*
X008490Y004610D01*
X008796Y004835D02*
X008071Y004835D01*
X008059Y004912D02*
X008796Y004912D01*
X008796Y004989D02*
X008059Y004989D01*
X007781Y004590D02*
X007309Y005062D01*
X007251Y004924D02*
X007436Y004739D01*
X007436Y004017D01*
X007321Y004017D01*
X007286Y004008D01*
X007254Y003989D01*
X007228Y003963D01*
X007209Y003932D01*
X007200Y003896D01*
X007200Y003720D01*
X007497Y003720D01*
X007497Y003641D01*
X007576Y003641D01*
X007576Y003345D01*
X007721Y003345D01*
X007721Y003329D01*
X007448Y003056D01*
X007395Y003056D01*
X007397Y003063D01*
X007397Y003200D01*
X007140Y003200D01*
X007140Y003278D01*
X007397Y003278D01*
X007397Y003345D01*
X007497Y003345D01*
X007497Y003641D01*
X007200Y003641D01*
X007200Y003536D01*
X007140Y003536D01*
X007140Y003278D01*
X007061Y003278D01*
X007061Y003536D01*
X007045Y003536D01*
X007045Y003781D01*
X007093Y003829D01*
X007093Y004281D01*
X007174Y004361D01*
X007174Y004543D01*
X007045Y004672D01*
X006863Y004672D01*
X006847Y004655D01*
X006847Y004799D01*
X006789Y004857D01*
X006234Y004857D01*
X006176Y004799D01*
X006176Y004272D01*
X006148Y004272D01*
X006148Y004330D01*
X005851Y004330D01*
X005851Y004330D01*
X005851Y004519D01*
X005784Y004519D01*
X005791Y004546D01*
X005791Y004683D01*
X005534Y004683D01*
X005534Y004761D01*
X005791Y004761D01*
X005791Y004865D01*
X006815Y004865D01*
X006874Y004924D01*
X007251Y004924D01*
X007263Y004912D02*
X006862Y004912D01*
X006811Y004835D02*
X007340Y004835D01*
X007417Y004757D02*
X006847Y004757D01*
X006847Y004680D02*
X007436Y004680D01*
X007436Y004603D02*
X007114Y004603D01*
X007174Y004526D02*
X007436Y004526D01*
X007436Y004448D02*
X007174Y004448D01*
X007174Y004371D02*
X007436Y004371D01*
X007436Y004294D02*
X007106Y004294D01*
X007093Y004217D02*
X007436Y004217D01*
X007436Y004139D02*
X007093Y004139D01*
X007093Y004062D02*
X007436Y004062D01*
X007250Y003985D02*
X007093Y003985D01*
X007093Y003908D02*
X007203Y003908D01*
X007200Y003831D02*
X007093Y003831D01*
X007045Y003753D02*
X007200Y003753D01*
X007200Y003599D02*
X007045Y003599D01*
X007045Y003676D02*
X007497Y003676D01*
X007497Y003599D02*
X007576Y003599D01*
X007576Y003522D02*
X007497Y003522D01*
X007497Y003444D02*
X007576Y003444D01*
X007576Y003367D02*
X007497Y003367D01*
X007397Y003290D02*
X007682Y003290D01*
X007605Y003213D02*
X007140Y003213D01*
X007140Y003290D02*
X007061Y003290D01*
X007061Y003367D02*
X007140Y003367D01*
X007140Y003444D02*
X007061Y003444D01*
X007061Y003522D02*
X007140Y003522D01*
X006954Y003886D02*
X006749Y003681D01*
X006693Y003586D02*
X006285Y003586D01*
X006206Y003665D01*
X006206Y003822D01*
X006088Y003940D01*
X005855Y003940D01*
X005851Y003937D01*
X005851Y004134D02*
X006438Y004134D01*
X006176Y004294D02*
X006148Y004294D01*
X006148Y004330D02*
X006148Y004398D01*
X006139Y004433D01*
X006120Y004465D01*
X006094Y004491D01*
X006062Y004510D01*
X006027Y004519D01*
X005851Y004519D01*
X005851Y004330D01*
X005851Y004330D01*
X006148Y004330D01*
X006148Y004371D02*
X006176Y004371D01*
X006176Y004448D02*
X006130Y004448D01*
X006176Y004526D02*
X005786Y004526D01*
X005791Y004603D02*
X006176Y004603D01*
X006176Y004680D02*
X005791Y004680D01*
X005791Y004835D02*
X006212Y004835D01*
X006176Y004757D02*
X005534Y004757D01*
X005534Y004683D02*
X005534Y004425D01*
X005562Y004425D01*
X005554Y004398D01*
X005554Y004393D01*
X005519Y004418D01*
X005455Y004451D01*
X005455Y004683D01*
X005534Y004683D01*
X005534Y004680D02*
X005455Y004680D01*
X005455Y004603D02*
X005534Y004603D01*
X005534Y004526D02*
X005455Y004526D01*
X005460Y004448D02*
X005534Y004448D01*
X005851Y004448D02*
X005851Y004448D01*
X005851Y004371D02*
X005851Y004371D01*
X005300Y003602D02*
X005221Y003602D01*
X005221Y002794D01*
X005145Y002806D01*
X005071Y002830D01*
X005002Y002865D01*
X004939Y002911D01*
X004927Y002923D01*
X004927Y002892D01*
X004928Y002891D01*
X004928Y002736D01*
X004981Y002736D01*
X004990Y002727D01*
X005011Y002749D01*
X005043Y002767D01*
X005079Y002776D01*
X005215Y002776D01*
X005215Y002519D01*
X005294Y002519D01*
X005294Y002776D01*
X005430Y002776D01*
X005466Y002767D01*
X005497Y002749D01*
X005514Y002732D01*
X005603Y002821D01*
X005635Y002821D01*
X005594Y002862D01*
X005594Y002923D01*
X005582Y002911D01*
X005519Y002865D01*
X005450Y002830D01*
X005376Y002806D01*
X005300Y002794D01*
X005300Y003602D01*
X005300Y003599D02*
X005221Y003599D01*
X005221Y003522D02*
X005300Y003522D01*
X005300Y003444D02*
X005221Y003444D01*
X005221Y003367D02*
X005300Y003367D01*
X005300Y003290D02*
X005221Y003290D01*
X005221Y003213D02*
X005300Y003213D01*
X005300Y003135D02*
X005221Y003135D01*
X005221Y003058D02*
X005300Y003058D01*
X005300Y002981D02*
X005221Y002981D01*
X005221Y002904D02*
X005300Y002904D01*
X005300Y002826D02*
X005221Y002826D01*
X005215Y002749D02*
X005294Y002749D01*
X005294Y002672D02*
X005215Y002672D01*
X005215Y002595D02*
X005294Y002595D01*
X005294Y002440D02*
X005215Y002440D01*
X005215Y002363D02*
X005294Y002363D01*
X005294Y002286D02*
X005215Y002286D01*
X005215Y002208D02*
X005294Y002208D01*
X005015Y002208D02*
X004711Y002208D01*
X004711Y002131D02*
X004762Y002131D01*
X004572Y002270D02*
X004572Y001774D01*
X004720Y001436D02*
X004728Y001436D01*
X004737Y001359D02*
X003384Y001359D01*
X003310Y001282D02*
X004811Y001282D01*
X004967Y000664D02*
X005142Y000664D01*
X005142Y000586D02*
X004967Y000586D01*
X004967Y000509D02*
X005142Y000509D01*
X005142Y000432D02*
X004967Y000432D01*
X004967Y000355D02*
X005142Y000355D01*
X005834Y001591D02*
X005919Y001591D01*
X005842Y001668D02*
X005834Y001668D01*
X006049Y002247D02*
X005694Y002602D01*
X005531Y002749D02*
X005496Y002749D01*
X005440Y002826D02*
X005630Y002826D01*
X005594Y002904D02*
X005573Y002904D01*
X005851Y002953D02*
X005930Y002917D01*
X006167Y002681D01*
X006387Y002681D01*
X006585Y002443D01*
X006560Y002576D02*
X006560Y002681D01*
X006679Y002799D01*
X006639Y003153D02*
X006639Y003228D01*
X006628Y003239D01*
X006621Y003232D01*
X006364Y003232D01*
X006249Y003346D01*
X005851Y003346D01*
X005851Y003149D02*
X006111Y003149D01*
X006206Y003055D01*
X006954Y003886D02*
X006954Y004452D01*
X006780Y005375D02*
X008796Y005375D01*
X008796Y005453D02*
X006812Y005453D01*
X007047Y005530D02*
X008800Y005530D01*
X009171Y005839D02*
X009249Y005839D01*
X009249Y005916D02*
X009171Y005916D01*
X009171Y005993D02*
X009249Y005993D01*
X009249Y006071D02*
X009171Y006071D01*
X009171Y006148D02*
X009249Y006148D01*
X009664Y006379D02*
X009847Y006379D01*
X009847Y006457D02*
X009664Y006457D01*
X009664Y006534D02*
X009847Y006534D01*
X009847Y006611D02*
X009663Y006611D01*
X009620Y006688D02*
X009847Y006688D01*
X009847Y006766D02*
X009385Y006766D01*
X009423Y006843D02*
X009847Y006843D01*
X009847Y006920D02*
X009500Y006920D01*
X009691Y006997D02*
X009847Y006997D01*
X009847Y007075D02*
X009769Y007075D01*
X009772Y007152D02*
X009846Y007152D01*
X009986Y007208D02*
X009986Y005318D01*
X009671Y005003D01*
X009671Y004846D01*
X009610Y005607D02*
X007124Y005607D01*
X007201Y005684D02*
X009847Y005684D01*
X009230Y006846D02*
X009109Y006846D01*
X009230Y006846D02*
X009553Y007169D01*
X009385Y007311D02*
X009462Y007388D01*
X009530Y007388D01*
X009530Y007535D01*
X009659Y007664D01*
X009840Y007664D01*
X009969Y007535D01*
X009969Y007421D01*
X010004Y007386D01*
X010004Y007584D01*
X009926Y007662D01*
X009926Y007818D01*
X009886Y007778D01*
X009771Y007778D01*
X009450Y007778D01*
X009457Y007771D01*
X009457Y007590D01*
X009385Y007518D01*
X009385Y007311D01*
X009385Y007384D02*
X009457Y007384D01*
X009385Y007461D02*
X009530Y007461D01*
X009533Y007538D02*
X009405Y007538D01*
X009457Y007615D02*
X009610Y007615D01*
X009749Y007444D02*
X009986Y007208D01*
X009969Y007461D02*
X010004Y007461D01*
X010004Y007538D02*
X009966Y007538D01*
X009973Y007615D02*
X009889Y007615D01*
X009926Y007693D02*
X009457Y007693D01*
X009457Y007770D02*
X009926Y007770D01*
X009771Y008056D02*
X008877Y008056D01*
X008877Y008395D01*
X008819Y008453D01*
X008759Y008453D01*
X008759Y008502D01*
X008783Y008526D01*
X008980Y008526D01*
X009177Y008723D01*
X009453Y008723D01*
X009610Y008880D01*
X009691Y008962D01*
X009691Y009281D01*
X009713Y009302D01*
X009713Y009469D01*
X009762Y009469D01*
X009926Y009469D01*
X009926Y009541D02*
X009834Y009541D01*
X009834Y009541D01*
X009762Y009469D01*
X009713Y009392D02*
X009926Y009392D01*
X009926Y009315D02*
X009713Y009315D01*
X009691Y009237D02*
X009926Y009237D01*
X009926Y009160D02*
X009691Y009160D01*
X009691Y009083D02*
X009926Y009083D01*
X009926Y009006D02*
X009691Y009006D01*
X009658Y008928D02*
X009926Y008928D01*
X009926Y008851D02*
X009581Y008851D01*
X009504Y008774D02*
X009926Y008774D01*
X009926Y008697D02*
X009151Y008697D01*
X009074Y008619D02*
X009926Y008619D01*
X009926Y008542D02*
X008996Y008542D01*
X008923Y008665D02*
X009120Y008862D01*
X009395Y008862D01*
X009553Y009019D01*
X009553Y009334D01*
X009494Y009393D01*
X009336Y009551D01*
X009336Y009746D01*
X009474Y009802D02*
X009474Y009925D01*
X009416Y009983D01*
X009159Y009983D01*
X009159Y010199D01*
X009101Y010257D01*
X009198Y010257D01*
X009211Y010245D01*
X009242Y010227D01*
X009278Y010217D01*
X009336Y010217D01*
X009393Y010217D01*
X009429Y010227D01*
X009461Y010245D01*
X009486Y010271D01*
X009501Y010295D01*
X009501Y009829D01*
X009474Y009802D01*
X009474Y009925D01*
X009416Y009983D01*
X009159Y009983D01*
X009159Y010199D01*
X009101Y010257D01*
X009198Y010257D01*
X009211Y010245D01*
X009242Y010227D01*
X009278Y010217D01*
X009336Y010217D01*
X009336Y010494D01*
X009336Y010494D01*
X009514Y010494D01*
X009514Y010338D01*
X009505Y010303D01*
X009486Y010271D01*
X009461Y010245D01*
X009429Y010227D01*
X009393Y010217D01*
X009336Y010217D01*
X009336Y010494D01*
X009336Y010494D01*
X009336Y010494D01*
X009514Y010494D01*
X009514Y010650D01*
X009505Y010686D01*
X009495Y010703D01*
X009617Y010703D01*
X009617Y010961D01*
X009696Y010961D01*
X009696Y010703D01*
X009833Y010703D01*
X009868Y010713D01*
X009900Y010731D01*
X009926Y010757D01*
X009944Y010789D01*
X009954Y010824D01*
X009954Y010961D01*
X009696Y010961D01*
X009696Y011040D01*
X009617Y011040D01*
X009617Y011297D01*
X009481Y011297D01*
X009471Y011294D01*
X009474Y011304D01*
X009474Y011441D01*
X009216Y011441D01*
X009216Y011520D01*
X009137Y011520D01*
X009137Y011777D01*
X009001Y011777D01*
X008966Y011768D01*
X008934Y011749D01*
X008912Y011728D01*
X008903Y011737D01*
X008860Y011737D01*
X008915Y011792D01*
X009053Y011792D01*
X009181Y011920D01*
X009181Y012102D01*
X009053Y012231D01*
X008871Y012231D01*
X008840Y012200D01*
X008842Y012252D01*
X008840Y012255D01*
X008840Y014061D01*
X009801Y014061D01*
X009871Y014054D01*
X010001Y014000D01*
X010100Y013901D01*
X010154Y013771D01*
X010161Y013700D01*
X010161Y010567D01*
X010072Y010567D01*
X010072Y010309D01*
X009993Y010309D01*
X009993Y010230D01*
X009736Y010230D01*
X009736Y010094D01*
X009745Y010059D01*
X009764Y010027D01*
X009785Y010005D01*
X009776Y009996D01*
X009776Y009894D01*
X009762Y009908D01*
X009580Y009908D01*
X009474Y009802D01*
X009474Y009855D02*
X009501Y009855D01*
X009527Y009855D02*
X009474Y009855D01*
X009467Y009933D02*
X009501Y009933D01*
X009467Y009933D02*
X009776Y009933D01*
X009781Y010010D02*
X009159Y010010D01*
X009501Y010010D01*
X009501Y010087D02*
X009159Y010087D01*
X009738Y010087D01*
X009736Y010164D02*
X009159Y010164D01*
X009501Y010164D01*
X009501Y010241D02*
X009455Y010241D01*
X009993Y010241D01*
X009993Y010309D02*
X009736Y010309D01*
X009736Y010446D01*
X009745Y010481D01*
X009764Y010513D01*
X009790Y010539D01*
X009821Y010557D01*
X009857Y010567D01*
X009993Y010567D01*
X009993Y010309D01*
X009993Y010319D02*
X010072Y010319D01*
X010072Y010396D02*
X009993Y010396D01*
X009993Y010473D02*
X010072Y010473D01*
X010072Y010550D02*
X009993Y010550D01*
X009838Y010705D02*
X010161Y010705D01*
X010161Y010782D02*
X009940Y010782D01*
X009954Y010859D02*
X010161Y010859D01*
X010161Y010937D02*
X009954Y010937D01*
X009954Y011040D02*
X009954Y011176D01*
X009944Y011212D01*
X009926Y011243D01*
X009900Y011269D01*
X009868Y011288D01*
X009833Y011297D01*
X009696Y011297D01*
X009696Y011040D01*
X009954Y011040D01*
X009954Y011091D02*
X010161Y011091D01*
X010161Y011014D02*
X009696Y011014D01*
X009696Y011091D02*
X009617Y011091D01*
X009617Y011168D02*
X009696Y011168D01*
X009696Y011246D02*
X009617Y011246D01*
X009474Y011323D02*
X010161Y011323D01*
X010161Y011400D02*
X009474Y011400D01*
X009474Y011520D02*
X009474Y011656D01*
X009464Y011692D01*
X009446Y011723D01*
X009420Y011749D01*
X009388Y011768D01*
X009353Y011777D01*
X009216Y011777D01*
X009216Y011520D01*
X009474Y011520D01*
X009474Y011555D02*
X010161Y011555D01*
X010161Y011632D02*
X009474Y011632D01*
X009454Y011709D02*
X010161Y011709D01*
X010161Y011786D02*
X008909Y011786D01*
X009125Y011864D02*
X010161Y011864D01*
X010161Y011941D02*
X009181Y011941D01*
X009181Y012018D02*
X010161Y012018D01*
X010161Y012095D02*
X009181Y012095D01*
X009111Y012172D02*
X010161Y012172D01*
X010161Y012250D02*
X008842Y012250D01*
X008840Y012327D02*
X010161Y012327D01*
X010161Y012404D02*
X008840Y012404D01*
X008840Y012481D02*
X010161Y012481D01*
X010161Y012559D02*
X008840Y012559D01*
X008840Y012636D02*
X010161Y012636D01*
X010161Y012713D02*
X008840Y012713D01*
X008840Y012790D02*
X010161Y012790D01*
X010161Y012868D02*
X008840Y012868D01*
X008840Y012945D02*
X010161Y012945D01*
X010161Y013022D02*
X008840Y013022D01*
X008840Y013099D02*
X010161Y013099D01*
X010161Y013177D02*
X008840Y013177D01*
X008840Y013254D02*
X010161Y013254D01*
X010161Y013331D02*
X008840Y013331D01*
X008840Y013408D02*
X010161Y013408D01*
X010161Y013486D02*
X008840Y013486D01*
X008840Y013563D02*
X010161Y013563D01*
X010161Y013640D02*
X008840Y013640D01*
X008840Y013717D02*
X010160Y013717D01*
X010144Y013795D02*
X008840Y013795D01*
X008840Y013872D02*
X010112Y013872D01*
X010052Y013949D02*
X008840Y013949D01*
X008840Y014026D02*
X009938Y014026D01*
X008743Y012049D02*
X008743Y012043D01*
X008625Y011924D01*
X008537Y011837D01*
X008537Y011737D01*
X008506Y011737D01*
X008448Y011679D01*
X008448Y011282D01*
X008450Y011280D01*
X008436Y011288D01*
X008400Y011297D01*
X008264Y011297D01*
X008264Y011040D01*
X008185Y011040D01*
X008185Y011297D01*
X008049Y011297D01*
X008013Y011288D01*
X007981Y011269D01*
X007955Y011243D01*
X007937Y011212D01*
X007928Y011176D01*
X007928Y011040D01*
X008185Y011040D01*
X008185Y010961D01*
X007928Y010961D01*
X007928Y010824D01*
X007937Y010789D01*
X007955Y010757D01*
X007981Y010731D01*
X008013Y010713D01*
X008049Y010703D01*
X008185Y010703D01*
X008185Y010961D01*
X008264Y010961D01*
X008264Y010703D01*
X008400Y010703D01*
X008436Y010713D01*
X008467Y010731D01*
X008489Y010753D01*
X008498Y010743D01*
X008724Y010743D01*
X008724Y010731D01*
X008625Y010731D01*
X008567Y010673D01*
X008567Y010633D01*
X008451Y010633D01*
X008385Y010568D01*
X008339Y010613D01*
X007942Y010613D01*
X007884Y010555D01*
X007884Y010158D01*
X007893Y010149D01*
X007872Y010127D01*
X007853Y010095D01*
X007844Y010060D01*
X007844Y009923D01*
X008101Y009923D01*
X008101Y009845D01*
X007844Y009845D01*
X007844Y009708D01*
X007853Y009673D01*
X007872Y009641D01*
X007898Y009615D01*
X007929Y009597D01*
X007965Y009587D01*
X008101Y009587D01*
X008101Y009845D01*
X008180Y009845D01*
X008180Y009923D01*
X008437Y009923D01*
X008437Y010060D01*
X008428Y010095D01*
X008410Y010127D01*
X008388Y010149D01*
X008397Y010158D01*
X008397Y010219D01*
X008429Y010219D01*
X008510Y010300D01*
X008565Y010356D01*
X008567Y010356D01*
X008567Y010315D01*
X008625Y010257D01*
X008724Y010257D01*
X008724Y010242D01*
X008882Y010084D01*
X008882Y009983D01*
X008843Y009983D01*
X008831Y009996D01*
X008799Y010014D01*
X008763Y010023D01*
X008706Y010023D01*
X008706Y009746D01*
X008706Y009746D01*
X008706Y009746D01*
X008706Y010023D01*
X008763Y010023D01*
X008799Y010014D01*
X008831Y009996D01*
X008843Y009983D01*
X008882Y009983D01*
X008882Y010084D01*
X008724Y010242D01*
X008724Y010257D01*
X008625Y010257D01*
X008567Y010315D01*
X008567Y010356D01*
X008565Y010356D01*
X008541Y010331D01*
X008541Y009945D01*
X008555Y009970D01*
X008581Y009996D01*
X008613Y010014D01*
X008648Y010023D01*
X008706Y010023D01*
X008706Y009746D01*
X008527Y009746D01*
X008527Y009615D01*
X008424Y009615D01*
X008424Y009357D01*
X008345Y009357D01*
X008345Y009278D01*
X008088Y009278D01*
X008088Y009142D01*
X008094Y009119D01*
X007684Y009119D01*
X007603Y009037D01*
X007442Y008876D01*
X007442Y008697D01*
X007382Y008697D01*
X007324Y008639D01*
X007324Y008242D01*
X007382Y008183D01*
X007779Y008183D01*
X007817Y008221D01*
X007854Y008183D01*
X008252Y008183D01*
X008310Y008242D01*
X008310Y008639D01*
X008265Y008684D01*
X008548Y008684D01*
X008482Y008617D01*
X008482Y008453D01*
X008422Y008453D01*
X008364Y008395D01*
X008364Y007998D01*
X008401Y007960D01*
X008364Y007923D01*
X008364Y007525D01*
X008422Y007467D01*
X008469Y007467D01*
X008469Y006833D01*
X008158Y006522D01*
X008079Y006522D01*
X008079Y006551D01*
X007951Y006679D01*
X007769Y006679D01*
X007640Y006551D01*
X007640Y006437D01*
X007330Y006126D01*
X007290Y006126D01*
X007290Y006363D01*
X007325Y006398D01*
X007439Y006398D01*
X007567Y006527D01*
X007567Y006708D01*
X007439Y006837D01*
X007257Y006837D01*
X007240Y006820D01*
X007240Y009108D01*
X007762Y009705D01*
X007800Y009743D01*
X007800Y009748D01*
X007804Y009752D01*
X007800Y009805D01*
X007800Y011179D01*
X008743Y012049D01*
X008718Y012018D02*
X008709Y012018D01*
X008641Y011941D02*
X008625Y011941D01*
X008564Y011864D02*
X008541Y011864D01*
X008537Y011786D02*
X008458Y011786D01*
X008478Y011709D02*
X008374Y011709D01*
X008448Y011632D02*
X008290Y011632D01*
X008207Y011555D02*
X008448Y011555D01*
X008448Y011477D02*
X008123Y011477D01*
X008039Y011400D02*
X008448Y011400D01*
X008448Y011323D02*
X007956Y011323D01*
X007958Y011246D02*
X007872Y011246D01*
X007928Y011168D02*
X007800Y011168D01*
X007800Y011091D02*
X007928Y011091D01*
X007928Y010937D02*
X007800Y010937D01*
X007800Y011014D02*
X008185Y011014D01*
X008185Y011091D02*
X008264Y011091D01*
X008264Y011168D02*
X008185Y011168D01*
X008185Y011246D02*
X008264Y011246D01*
X008264Y010937D02*
X008185Y010937D01*
X008185Y010859D02*
X008264Y010859D01*
X008264Y010782D02*
X008185Y010782D01*
X008185Y010705D02*
X008264Y010705D01*
X008406Y010705D02*
X008599Y010705D01*
X008445Y010628D02*
X007800Y010628D01*
X007800Y010705D02*
X008043Y010705D01*
X007941Y010782D02*
X007800Y010782D01*
X007800Y010859D02*
X007928Y010859D01*
X007884Y010550D02*
X007800Y010550D01*
X007800Y010473D02*
X007884Y010473D01*
X007884Y010396D02*
X007800Y010396D01*
X007800Y010319D02*
X007884Y010319D01*
X007884Y010241D02*
X007800Y010241D01*
X007800Y010164D02*
X007884Y010164D01*
X007851Y010087D02*
X007800Y010087D01*
X007800Y010010D02*
X007844Y010010D01*
X007844Y009933D02*
X007800Y009933D01*
X007800Y009855D02*
X008101Y009855D01*
X008101Y009778D02*
X008180Y009778D01*
X008180Y009845D02*
X008180Y009607D01*
X008173Y009605D01*
X008141Y009587D01*
X008115Y009561D01*
X008097Y009529D01*
X008088Y009494D01*
X008088Y009357D01*
X008345Y009357D01*
X008345Y009595D01*
X008352Y009597D01*
X008384Y009615D01*
X008410Y009641D01*
X008428Y009673D01*
X008437Y009708D01*
X008437Y009845D01*
X008180Y009845D01*
X008180Y009855D02*
X008527Y009855D01*
X008527Y009902D02*
X008527Y009746D01*
X008706Y009746D01*
X008706Y009746D01*
X008706Y010023D01*
X008648Y010023D01*
X008613Y010014D01*
X008581Y009996D01*
X008555Y009970D01*
X008536Y009938D01*
X008527Y009902D01*
X008535Y009933D02*
X008437Y009933D01*
X008437Y010010D02*
X008605Y010010D01*
X008541Y010010D01*
X008541Y010087D02*
X008879Y010087D01*
X008430Y010087D01*
X008397Y010164D02*
X008802Y010164D01*
X008541Y010164D01*
X008541Y010241D02*
X008725Y010241D01*
X008451Y010241D01*
X008529Y010319D02*
X008567Y010319D01*
X008541Y010319D01*
X008371Y010358D02*
X008508Y010494D01*
X008706Y010494D01*
X008863Y010494D02*
X008863Y010299D01*
X009021Y010142D01*
X009021Y009746D01*
X009021Y009590D01*
X008962Y009492D01*
X008962Y009423D01*
X008857Y009318D01*
X008844Y009305D01*
X008844Y009098D01*
X008726Y008980D01*
X007742Y008980D01*
X007581Y008819D01*
X007581Y008440D01*
X007324Y008465D02*
X007240Y008465D01*
X007240Y008542D02*
X007324Y008542D01*
X007324Y008619D02*
X007240Y008619D01*
X007240Y008697D02*
X007382Y008697D01*
X007442Y008774D02*
X007240Y008774D01*
X007240Y008851D02*
X007442Y008851D01*
X007494Y008928D02*
X007240Y008928D01*
X007240Y009006D02*
X007571Y009006D01*
X007648Y009083D02*
X007240Y009083D01*
X007286Y009160D02*
X008088Y009160D01*
X008088Y009237D02*
X007353Y009237D01*
X007421Y009315D02*
X008345Y009315D01*
X008345Y009392D02*
X008424Y009392D01*
X008424Y009469D02*
X008345Y009469D01*
X008345Y009546D02*
X008424Y009546D01*
X008392Y009624D02*
X008527Y009624D01*
X008527Y009701D02*
X008436Y009701D01*
X008437Y009778D02*
X008527Y009778D01*
X008706Y009778D02*
X008706Y009778D01*
X008706Y009778D01*
X008706Y009855D02*
X008706Y009855D01*
X008706Y009855D01*
X008706Y009933D02*
X008706Y009933D01*
X008706Y009933D01*
X008706Y010010D02*
X008706Y010010D01*
X008706Y010010D01*
X008806Y010010D02*
X008882Y010010D01*
X008806Y010010D01*
X009117Y010241D02*
X009217Y010241D01*
X009117Y010241D01*
X009336Y010241D02*
X009336Y010241D01*
X009336Y010241D01*
X009336Y010217D02*
X009336Y010494D01*
X009336Y010217D01*
X009336Y010319D02*
X009336Y010319D01*
X009336Y010319D01*
X009336Y010396D02*
X009336Y010396D01*
X009336Y010396D01*
X009336Y010473D02*
X009336Y010473D01*
X009336Y010473D01*
X009178Y010494D02*
X009178Y010994D01*
X009184Y011000D01*
X008863Y010834D02*
X008697Y011000D01*
X008863Y010834D02*
X008863Y010494D01*
X008371Y010358D02*
X008142Y010358D01*
X008141Y010356D01*
X007844Y009778D02*
X007802Y009778D01*
X007759Y009701D02*
X007846Y009701D01*
X007889Y009624D02*
X007691Y009624D01*
X007624Y009546D02*
X008107Y009546D01*
X008101Y009624D02*
X008180Y009624D01*
X008180Y009701D02*
X008101Y009701D01*
X008088Y009469D02*
X007556Y009469D01*
X007488Y009392D02*
X008088Y009392D01*
X008096Y008822D02*
X008844Y008822D01*
X009041Y009019D01*
X009120Y009019D01*
X009277Y009177D01*
X009277Y009334D01*
X009178Y009433D01*
X009178Y009746D01*
X009179Y009746D01*
X009509Y010319D02*
X009736Y010319D01*
X009736Y010396D02*
X009514Y010396D01*
X009514Y010473D02*
X009743Y010473D01*
X009810Y010550D02*
X009514Y010550D01*
X009514Y010628D02*
X010161Y010628D01*
X010161Y011168D02*
X009954Y011168D01*
X009924Y011246D02*
X010161Y011246D01*
X010161Y011477D02*
X009216Y011477D01*
X009216Y011555D02*
X009137Y011555D01*
X009137Y011632D02*
X009216Y011632D01*
X009216Y011709D02*
X009137Y011709D01*
X009617Y010937D02*
X009696Y010937D01*
X009696Y010859D02*
X009617Y010859D01*
X009617Y010782D02*
X009696Y010782D01*
X009696Y010705D02*
X009617Y010705D01*
X010033Y009797D02*
X009924Y009688D01*
X009671Y009688D01*
X009926Y009541D02*
X009926Y008210D01*
X009771Y008056D01*
X009794Y008079D02*
X008877Y008079D01*
X008877Y008156D02*
X009871Y008156D01*
X009926Y008233D02*
X008877Y008233D01*
X008877Y008310D02*
X009926Y008310D01*
X009926Y008388D02*
X008877Y008388D01*
X008759Y008465D02*
X009926Y008465D01*
X010064Y008153D02*
X010064Y009766D01*
X010033Y009797D01*
X008923Y008665D02*
X008726Y008665D01*
X008621Y008560D01*
X008621Y008196D01*
X008625Y008192D01*
X008364Y008156D02*
X007240Y008156D01*
X007240Y008233D02*
X007332Y008233D01*
X007324Y008310D02*
X007240Y008310D01*
X007240Y008388D02*
X007324Y008388D01*
X007240Y008079D02*
X008364Y008079D01*
X008364Y008002D02*
X007240Y008002D01*
X007240Y007924D02*
X008365Y007924D01*
X008364Y007847D02*
X007240Y007847D01*
X007240Y007770D02*
X008364Y007770D01*
X008364Y007693D02*
X007240Y007693D01*
X007240Y007615D02*
X008364Y007615D01*
X008364Y007538D02*
X007240Y007538D01*
X007240Y007461D02*
X008469Y007461D01*
X008469Y007384D02*
X007240Y007384D01*
X007240Y007306D02*
X008469Y007306D01*
X008469Y007229D02*
X007240Y007229D01*
X007240Y007152D02*
X008469Y007152D01*
X008469Y007075D02*
X007240Y007075D01*
X007240Y006997D02*
X008469Y006997D01*
X008469Y006920D02*
X007240Y006920D01*
X007240Y006843D02*
X008469Y006843D01*
X008402Y006766D02*
X007510Y006766D01*
X007567Y006688D02*
X008325Y006688D01*
X008248Y006611D02*
X008019Y006611D01*
X008079Y006534D02*
X008170Y006534D01*
X008408Y006379D02*
X008756Y006379D01*
X008756Y006457D02*
X008486Y006457D01*
X008563Y006534D02*
X008756Y006534D01*
X008757Y006611D02*
X008640Y006611D01*
X008717Y006688D02*
X008800Y006688D01*
X008832Y006766D02*
X008746Y006766D01*
X008746Y006843D02*
X008832Y006843D01*
X008832Y006920D02*
X008746Y006920D01*
X008746Y006997D02*
X008832Y006997D01*
X008882Y007075D02*
X008746Y007075D01*
X008746Y007152D02*
X008859Y007152D01*
X008832Y007229D02*
X008746Y007229D01*
X008746Y007306D02*
X008832Y007306D01*
X008832Y007384D02*
X008746Y007384D01*
X008746Y007461D02*
X008832Y007461D01*
X009109Y007551D02*
X009109Y007358D01*
X009109Y007551D02*
X009238Y007681D01*
X008482Y008465D02*
X008310Y008465D01*
X008310Y008542D02*
X008482Y008542D01*
X008484Y008619D02*
X008310Y008619D01*
X008310Y008388D02*
X008364Y008388D01*
X008364Y008310D02*
X008310Y008310D01*
X008302Y008233D02*
X008364Y008233D01*
X008053Y008440D02*
X008041Y008547D01*
X008041Y008768D01*
X008096Y008822D01*
X007701Y006611D02*
X007567Y006611D01*
X007567Y006534D02*
X007640Y006534D01*
X007640Y006457D02*
X007497Y006457D01*
X007583Y006379D02*
X007306Y006379D01*
X007290Y006302D02*
X007506Y006302D01*
X007428Y006225D02*
X007290Y006225D01*
X007290Y006148D02*
X007351Y006148D01*
X007151Y006027D02*
X007151Y006421D01*
X007348Y006618D01*
X007151Y006027D02*
X006875Y005751D01*
X006088Y005751D01*
X006049Y005712D01*
X006177Y005530D02*
X006344Y005530D01*
X006421Y005607D02*
X006254Y005607D01*
X005163Y005003D02*
X004454Y005003D01*
X004316Y005121D01*
X003568Y005121D01*
X003411Y004964D01*
X003411Y004858D01*
X003170Y004984D02*
X003139Y005015D01*
X002742Y005015D01*
X002684Y004956D01*
X002684Y004867D01*
X002611Y004867D01*
X002484Y004740D01*
X002502Y004757D02*
X001836Y004757D01*
X001836Y004680D02*
X002081Y004680D01*
X002081Y004603D02*
X001836Y004603D01*
X001836Y004835D02*
X002579Y004835D01*
X002547Y004912D02*
X002684Y004912D01*
X002717Y004989D02*
X002624Y004989D01*
X002446Y005121D02*
X002407Y005121D01*
X002092Y005436D01*
X002111Y005221D02*
X001539Y005221D01*
X001616Y005144D02*
X002189Y005144D01*
X002227Y005066D02*
X001694Y005066D01*
X001815Y004989D02*
X002268Y004989D01*
X002346Y004912D02*
X001836Y004912D01*
X001579Y004984D02*
X001579Y004769D01*
X001501Y004691D01*
X001501Y004295D01*
X001688Y004059D02*
X001888Y004238D01*
X001727Y004137D01*
X001688Y004059D02*
X000576Y004059D01*
X000655Y003908D02*
X001588Y003908D01*
X001588Y003831D02*
X000655Y003831D01*
X000655Y003753D02*
X001588Y003753D01*
X001588Y003676D02*
X000655Y003676D01*
X000655Y003599D02*
X001588Y003599D01*
X001588Y003522D02*
X000655Y003522D01*
X000655Y003444D02*
X001590Y003444D01*
X001949Y003367D02*
X000655Y003367D01*
X000655Y003290D02*
X002048Y003290D01*
X002080Y003213D02*
X000655Y003213D01*
X000440Y004448D02*
X001345Y004448D01*
X001579Y004707D02*
X001579Y004769D01*
X001579Y004984D02*
X001482Y005082D01*
X000891Y005082D01*
X000655Y005318D01*
X000655Y007287D01*
X000931Y007562D01*
X001246Y007562D02*
X001875Y007562D01*
X003214Y007562D01*
X003083Y007384D02*
X001893Y007384D01*
X001933Y007424D02*
X003043Y007424D01*
X003123Y007343D01*
X003237Y007343D01*
X003625Y006956D01*
X003625Y006842D01*
X003753Y006713D01*
X003867Y006713D01*
X003981Y006599D01*
X003981Y005910D01*
X004062Y005829D01*
X004554Y005337D01*
X004808Y005337D01*
X004808Y005162D01*
X004828Y005142D01*
X004505Y005142D01*
X004411Y005223D01*
X004374Y005260D01*
X004368Y005260D01*
X004363Y005264D01*
X004311Y005260D01*
X004037Y005260D01*
X004162Y005385D01*
X004162Y005567D01*
X004081Y005647D01*
X004081Y005789D01*
X004022Y005848D01*
X004022Y005848D01*
X003967Y005903D01*
X003968Y005903D01*
X003968Y006576D01*
X003909Y006634D01*
X003577Y006634D01*
X003527Y006584D01*
X003476Y006634D01*
X003144Y006634D01*
X003094Y006584D01*
X003043Y006634D01*
X002711Y006634D01*
X002660Y006584D01*
X002610Y006634D01*
X002278Y006634D01*
X002227Y006584D01*
X002177Y006634D01*
X001845Y006634D01*
X001794Y006584D01*
X001744Y006634D01*
X001717Y006634D01*
X001717Y007207D01*
X001933Y007424D01*
X001875Y007562D02*
X001578Y007265D01*
X001578Y006239D01*
X001767Y006611D02*
X001822Y006611D01*
X001717Y006688D02*
X003892Y006688D01*
X003932Y006611D02*
X003969Y006611D01*
X003968Y006534D02*
X003981Y006534D01*
X003981Y006457D02*
X003968Y006457D01*
X003968Y006379D02*
X003981Y006379D01*
X003981Y006302D02*
X003968Y006302D01*
X003968Y006225D02*
X003981Y006225D01*
X003981Y006148D02*
X003968Y006148D01*
X003968Y006071D02*
X003981Y006071D01*
X003981Y005993D02*
X003968Y005993D01*
X003968Y005916D02*
X003981Y005916D01*
X004032Y005839D02*
X004052Y005839D01*
X004081Y005762D02*
X004130Y005762D01*
X004081Y005684D02*
X004207Y005684D01*
X004284Y005607D02*
X004121Y005607D01*
X004162Y005530D02*
X004361Y005530D01*
X004439Y005453D02*
X004162Y005453D01*
X004152Y005375D02*
X004516Y005375D01*
X004414Y005221D02*
X004808Y005221D01*
X004808Y005298D02*
X004075Y005298D01*
X003942Y005476D02*
X003942Y005732D01*
X003883Y005791D01*
X003017Y005791D01*
X002899Y005909D01*
X002899Y006217D01*
X002877Y006239D01*
X002688Y006611D02*
X002633Y006611D01*
X002427Y006222D02*
X002427Y005870D01*
X002505Y005791D01*
X002781Y005791D01*
X002938Y005633D01*
X003490Y005633D01*
X003627Y005515D01*
X003627Y005417D01*
X003332Y005240D02*
X003116Y005240D01*
X002722Y005633D01*
X003195Y005066D02*
X003170Y005041D01*
X003170Y004984D01*
X003170Y004989D02*
X003165Y004989D01*
X003899Y004842D02*
X003941Y004801D01*
X004943Y004801D01*
X004765Y004662D02*
X004765Y004523D01*
X004769Y004519D01*
X004670Y004519D01*
X004595Y004519D01*
X004595Y004641D01*
X004574Y004662D01*
X004765Y004662D01*
X004765Y004603D02*
X004595Y004603D01*
X004595Y004526D02*
X004765Y004526D01*
X004670Y004519D02*
X004670Y004330D01*
X004670Y004519D01*
X004670Y004448D02*
X004670Y004448D01*
X004670Y004371D02*
X004670Y004371D01*
X004670Y004330D02*
X004670Y004330D01*
X004670Y004134D02*
X004517Y004134D01*
X004356Y004295D01*
X004356Y004531D01*
X004100Y004314D02*
X003987Y004314D01*
X003899Y004402D01*
X004100Y004314D02*
X004477Y003937D01*
X004670Y003937D01*
X004670Y003740D02*
X004399Y003740D01*
X003962Y003850D02*
X003923Y003889D01*
X002381Y003889D01*
X001444Y005298D02*
X000871Y005298D01*
X000794Y005375D02*
X001366Y005375D01*
X001304Y005453D02*
X000794Y005453D01*
X000794Y005839D02*
X000928Y005839D01*
X000883Y005916D02*
X000794Y005916D01*
X000794Y005993D02*
X000880Y005993D01*
X000880Y006071D02*
X000794Y006071D01*
X000794Y006148D02*
X000880Y006148D01*
X001122Y006302D02*
X001168Y006302D01*
X001168Y006379D02*
X001122Y006379D01*
X001122Y006457D02*
X001168Y006457D01*
X001168Y006534D02*
X001122Y006534D01*
X001122Y006611D02*
X001168Y006611D01*
X001386Y006611D02*
X001389Y006611D01*
X001717Y006766D02*
X003701Y006766D01*
X003625Y006843D02*
X001717Y006843D01*
X001717Y006920D02*
X003625Y006920D01*
X003583Y006997D02*
X001717Y006997D01*
X001717Y007075D02*
X003506Y007075D01*
X003428Y007152D02*
X001717Y007152D01*
X001738Y007229D02*
X003351Y007229D01*
X003274Y007306D02*
X001816Y007306D01*
X001268Y007770D02*
X003111Y007770D01*
X003707Y007770D02*
X004454Y007770D01*
X004377Y007847D02*
X003707Y007847D01*
X003707Y007924D02*
X004299Y007924D01*
X004222Y008002D02*
X003707Y008002D01*
X003707Y008079D02*
X004161Y008079D01*
X004161Y008156D02*
X003707Y008156D01*
X003707Y008233D02*
X004161Y008233D01*
X004161Y008310D02*
X003707Y008310D01*
X003707Y008388D02*
X004161Y008388D01*
X004161Y008465D02*
X003707Y008465D01*
X003707Y008542D02*
X004161Y008542D01*
X004161Y008619D02*
X003707Y008619D01*
X003707Y008697D02*
X004161Y008697D01*
X004161Y008774D02*
X003707Y008774D01*
X003707Y008851D02*
X004161Y008851D01*
X004161Y008928D02*
X003707Y008928D01*
X003707Y009006D02*
X004161Y009006D01*
X004161Y009083D02*
X003707Y009083D01*
X003707Y009160D02*
X004161Y009160D01*
X004161Y009237D02*
X003707Y009237D01*
X003707Y009315D02*
X004161Y009315D01*
X004161Y009392D02*
X003707Y009392D01*
X003707Y009469D02*
X004161Y009469D01*
X004161Y009546D02*
X003707Y009546D01*
X003707Y009624D02*
X004161Y009624D01*
X004161Y009701D02*
X003707Y009701D01*
X003707Y009778D02*
X004161Y009778D01*
X004161Y009855D02*
X003707Y009855D01*
X003707Y009933D02*
X004161Y009933D01*
X004161Y010010D02*
X003707Y010010D01*
X003707Y010087D02*
X004161Y010087D01*
X004161Y010164D02*
X003707Y010164D01*
X003707Y010241D02*
X004161Y010241D01*
X004161Y010319D02*
X003707Y010319D01*
X003707Y010396D02*
X004161Y010396D01*
X004161Y010473D02*
X003688Y010473D01*
X003611Y010550D02*
X004161Y010550D01*
X004161Y010628D02*
X003534Y010628D01*
X003457Y010705D02*
X004161Y010705D01*
X004161Y010782D02*
X002395Y010782D01*
X002318Y010859D02*
X004161Y010859D01*
X003534Y011709D02*
X003519Y011709D01*
X003616Y011786D02*
X000440Y011786D01*
X000440Y011864D02*
X003616Y011864D01*
X003806Y012481D02*
X002926Y012481D01*
X003716Y012636D02*
X000440Y012636D01*
X000440Y012713D02*
X003714Y012713D01*
X003724Y012790D02*
X000440Y012790D01*
X000440Y012868D02*
X003756Y012868D01*
X003824Y012945D02*
X000440Y012945D01*
X000440Y013022D02*
X004926Y013022D01*
X004886Y013099D02*
X000440Y013099D01*
X000440Y013177D02*
X004886Y013177D01*
X004886Y013254D02*
X000440Y013254D01*
X000440Y013331D02*
X005186Y013331D01*
X005186Y013254D02*
X005264Y013254D01*
X005264Y013177D02*
X005186Y013177D01*
X005186Y013099D02*
X005264Y013099D01*
X005264Y013022D02*
X005186Y013022D01*
X005186Y013408D02*
X005264Y013408D01*
X005264Y013486D02*
X005186Y013486D01*
X005186Y013563D02*
X005264Y013563D01*
X005264Y013640D02*
X005186Y013640D01*
X005361Y013717D02*
X000442Y013717D01*
X000440Y013640D02*
X004954Y013640D01*
X004892Y013563D02*
X000440Y013563D01*
X000440Y013486D02*
X004886Y013486D01*
X004886Y013408D02*
X000440Y013408D01*
X000457Y013795D02*
X005361Y013795D01*
X005361Y013872D02*
X000489Y013872D01*
X000549Y013949D02*
X005361Y013949D01*
X005361Y014026D02*
X000663Y014026D01*
X000440Y012559D02*
X003748Y012559D01*
X001791Y008851D02*
X000440Y008851D01*
X000440Y008774D02*
X001714Y008774D01*
X001282Y008697D02*
X000440Y008697D01*
X000440Y008619D02*
X001205Y008619D01*
X001184Y008542D02*
X000440Y008542D01*
X000440Y008465D02*
X001184Y008465D01*
X001212Y008388D02*
X000440Y008388D01*
X000440Y008310D02*
X001290Y008310D01*
X002200Y006611D02*
X002255Y006611D01*
X003066Y006611D02*
X003121Y006611D01*
X003499Y006611D02*
X003554Y006611D01*
X004059Y007229D02*
X004721Y007229D01*
X004721Y007152D02*
X004136Y007152D01*
X004213Y007075D02*
X004721Y007075D01*
X004721Y006997D02*
X004290Y006997D01*
X004367Y006920D02*
X004721Y006920D01*
X004721Y006843D02*
X004445Y006843D01*
X004455Y006766D02*
X004721Y006766D01*
X004721Y006688D02*
X004455Y006688D01*
X004455Y006611D02*
X004721Y006611D01*
X004700Y006534D02*
X004455Y006534D01*
X004455Y006457D02*
X004700Y006457D01*
X004700Y006379D02*
X004455Y006379D01*
X004455Y006302D02*
X004700Y006302D01*
X004700Y006225D02*
X004455Y006225D01*
X004455Y006148D02*
X004700Y006148D01*
X004700Y006071D02*
X004473Y006071D01*
X004555Y005993D02*
X004700Y005993D01*
X004700Y005916D02*
X004637Y005916D01*
X004504Y005144D02*
X004826Y005144D01*
X003899Y004842D02*
X003899Y004803D01*
X003901Y004801D01*
X004927Y002904D02*
X004949Y002904D01*
X004928Y002826D02*
X005081Y002826D01*
X005012Y002749D02*
X004928Y002749D01*
X003549Y001774D02*
X003549Y001369D01*
X003549Y001774D01*
X003549Y001774D01*
X003549Y001745D02*
X003549Y001745D01*
X003549Y001668D02*
X003549Y001668D01*
X003549Y001591D02*
X003549Y001591D01*
X003549Y001513D02*
X003549Y001513D01*
X003549Y001436D02*
X003549Y001436D01*
X003154Y000664D02*
X002980Y000664D01*
X002980Y000586D02*
X003154Y000586D01*
X003154Y000509D02*
X002980Y000509D01*
X002980Y000432D02*
X003154Y000432D01*
X003154Y000355D02*
X002980Y000355D01*
X000838Y004526D02*
X000440Y004526D01*
X000440Y004603D02*
X000810Y004603D01*
X000810Y004680D02*
X000440Y004680D01*
X003750Y007538D02*
X004686Y007538D01*
X004721Y007461D02*
X003827Y007461D01*
X003904Y007384D02*
X004721Y007384D01*
X004721Y007306D02*
X003981Y007306D01*
X003707Y007615D02*
X004608Y007615D01*
X004531Y007693D02*
X003707Y007693D01*
X007033Y002917D02*
X006994Y002877D01*
X007033Y002917D02*
X007505Y002917D01*
X007860Y003271D01*
X007860Y004354D01*
X007771Y004364D01*
X007528Y003135D02*
X007397Y003135D01*
X007396Y003058D02*
X007451Y003058D01*
D30*
X006765Y003625D02*
X006749Y003681D01*
X006693Y003586D01*
X006757Y003625D02*
X006765Y003625D01*
X006749Y003681D02*
X006654Y003744D01*
X006836Y003744D01*
X006628Y003239D02*
X006621Y003192D01*
X006639Y003153D02*
X006679Y003153D01*
X006628Y003239D02*
X006542Y003192D01*
X006560Y002576D02*
X006585Y002443D01*
X006438Y004134D02*
X006511Y004364D01*
X005851Y004330D02*
X005573Y004330D01*
X005340Y004137D01*
X005340Y003721D01*
X005261Y003641D01*
X005340Y004137D02*
X005068Y004330D01*
X004670Y004330D01*
X004375Y004551D02*
X004356Y004531D01*
X003899Y004402D02*
X003899Y004842D01*
X003427Y004842D02*
X003427Y004402D01*
X003427Y004842D02*
X003411Y004858D01*
X002941Y004758D02*
X002911Y004728D01*
X002381Y004440D02*
X002375Y004440D01*
X002231Y004019D02*
X002092Y004019D01*
X001853Y004238D01*
X001888Y004238D01*
X001821Y004137D01*
X001888Y003687D02*
X002084Y003443D01*
X002304Y003443D01*
X002381Y003889D02*
X002231Y004019D01*
X002777Y003443D02*
X002877Y003543D01*
X003834Y003363D02*
X003891Y003346D01*
X003899Y003350D02*
X003834Y003363D01*
X004254Y003149D02*
X004275Y003092D01*
X004372Y003149D01*
X004789Y002487D02*
X004782Y002480D01*
X004316Y001814D02*
X004317Y001774D01*
X004080Y001833D02*
X004061Y001774D01*
X003549Y001774D02*
X003549Y001283D01*
X003529Y001303D01*
X005022Y004722D02*
X004943Y004801D01*
X002877Y006239D02*
X002860Y006222D01*
X002444Y006239D02*
X002427Y006222D01*
X001600Y006261D02*
X001578Y006239D01*
X003765Y011261D02*
X003743Y011357D01*
X003765Y011261D02*
X003765Y012090D01*
X003655Y012200D01*
X003177Y012200D01*
X004701Y011964D02*
X004924Y011740D01*
X004924Y011357D01*
X005357Y011357D01*
X005261Y012436D02*
X004701Y012436D01*
X005261Y012436D02*
X005264Y012440D01*
X005737Y012440D02*
X005808Y012440D01*
X006009Y012641D01*
X006031Y012641D01*
X006223Y012449D01*
X008686Y011775D02*
X008686Y011498D01*
X008704Y011480D01*
X008704Y011008D01*
X008697Y011000D01*
X008686Y011775D02*
X008923Y012011D01*
X008962Y012011D01*
X008625Y007724D02*
X008621Y007724D01*
X008608Y007711D01*
X009749Y005436D02*
X009533Y005220D01*
X009025Y005240D01*
X009210Y005169D01*
X009001Y005141D01*
X007820Y004629D02*
X007781Y004590D01*
X007712Y004521D01*
X007771Y004364D01*
D31*
X007840Y004964D03*
X007545Y005830D03*
X007860Y006460D03*
X008135Y006303D03*
X008627Y006440D03*
X009553Y007169D03*
X009749Y007444D03*
X009553Y007681D03*
X009238Y007681D03*
X009198Y008507D03*
X009277Y009177D03*
X009494Y009393D03*
X009671Y009688D03*
X009828Y009177D03*
X009868Y011814D03*
X008962Y012011D03*
X007742Y009373D03*
X007309Y007247D03*
X007348Y006618D03*
X006560Y005436D03*
X006994Y004807D03*
X006954Y004452D03*
X006206Y003665D03*
X006206Y003055D03*
X006679Y002799D03*
X006994Y002877D03*
X007108Y001933D03*
X007860Y001618D03*
X008214Y001342D03*
X008450Y001854D03*
X008663Y002066D03*
X009080Y001854D03*
X008726Y001381D03*
X009151Y002803D03*
X009434Y003232D03*
X009434Y003547D03*
X009356Y004373D03*
X008883Y004433D03*
X008588Y004373D03*
X007978Y002917D03*
X006246Y002366D03*
X005694Y002287D03*
X005694Y002602D03*
X004375Y004551D03*
X004671Y005240D03*
X004887Y005712D03*
X005222Y005673D03*
X006049Y005712D03*
X003942Y005476D03*
X003627Y005417D03*
X003332Y005240D03*
X002446Y005121D03*
X002368Y004822D03*
X001718Y005751D03*
X001344Y005712D03*
X000616Y004885D03*
X001501Y004295D03*
X000773Y003389D03*
X001167Y001775D03*
X002505Y003110D03*
X002623Y002326D03*
X003411Y003271D03*
X003490Y002759D03*
X003962Y003850D03*
X003529Y001303D03*
X006521Y000673D03*
X009907Y004334D03*
X009907Y004885D03*
X009749Y005436D03*
X009986Y002444D03*
X009946Y001854D03*
X003923Y008873D03*
X003332Y008074D03*
X003214Y007562D03*
X003096Y007169D03*
X003844Y006933D03*
X002348Y006775D03*
X001088Y007129D03*
X001049Y007838D03*
X000616Y007799D03*
X001364Y008940D03*
X001403Y008507D03*
X001915Y008665D03*
D32*
X001088Y013413D03*
X009513Y013413D03*
X009513Y000988D03*
X001088Y000988D03*
D33*
X006246Y012169D02*
X006246Y012471D01*
X006455Y012680D01*
X006246Y012471D02*
X006223Y012449D01*
D34*
X006246Y012169D02*
X006223Y012107D01*
X006223Y011357D01*
D35*
X006033Y010986D02*
X006057Y010962D01*
X006390Y010962D01*
X006414Y010986D01*
X006420Y010976D01*
X006446Y010950D01*
X006477Y010932D01*
X006513Y010922D01*
X006634Y010922D01*
X006634Y011335D01*
X006679Y011335D01*
X006679Y011380D01*
X006634Y011380D01*
X006634Y011793D01*
X006513Y011793D01*
X006503Y011790D01*
X006627Y011914D01*
X006696Y012079D01*
X006696Y012285D01*
X006836Y012425D01*
X006905Y012591D01*
X006905Y012770D01*
X006836Y012935D01*
X006710Y013062D01*
X006544Y013130D01*
X006365Y013130D01*
X006200Y013062D01*
X005864Y012726D01*
X005864Y012726D01*
X005842Y012704D01*
X005839Y012698D01*
X005538Y012698D01*
X005501Y012660D01*
X005463Y012698D01*
X005066Y012698D01*
X005007Y012639D01*
X005007Y012586D01*
X004958Y012586D01*
X004958Y012635D01*
X004900Y012694D01*
X004502Y012694D01*
X004443Y012635D01*
X004443Y012238D01*
X004480Y012200D01*
X004443Y012163D01*
X004443Y011765D01*
X004502Y011707D01*
X004712Y011707D01*
X004699Y011694D01*
X004699Y011021D01*
X004758Y010962D01*
X005091Y010962D01*
X005141Y011012D01*
X005191Y010962D01*
X005524Y010962D01*
X005548Y010986D01*
X005553Y010976D01*
X005579Y010950D01*
X005611Y010932D01*
X005647Y010922D01*
X005768Y010922D01*
X005768Y011335D01*
X005813Y011335D01*
X005813Y010922D01*
X005934Y010922D01*
X005969Y010932D01*
X006001Y010950D01*
X006027Y010976D01*
X006033Y010986D01*
X006006Y010955D02*
X006441Y010955D01*
X006634Y010955D02*
X006679Y010955D01*
X006679Y010922D02*
X006800Y010922D01*
X006836Y010932D01*
X006867Y010950D01*
X006894Y010976D01*
X006912Y011008D01*
X006922Y011044D01*
X006922Y011335D01*
X006679Y011335D01*
X006679Y010922D01*
X006679Y011033D02*
X006634Y011033D01*
X006634Y011112D02*
X006679Y011112D01*
X006679Y011190D02*
X006634Y011190D01*
X006634Y011269D02*
X006679Y011269D01*
X006679Y011347D02*
X007013Y011347D01*
X007032Y011315D01*
X007058Y011289D01*
X007090Y011270D01*
X007125Y011261D01*
X007301Y011261D01*
X007301Y011656D01*
X007381Y011656D01*
X007381Y011736D01*
X007677Y011736D01*
X007677Y012010D01*
X007668Y012045D01*
X007650Y012077D01*
X007623Y012103D01*
X007592Y012122D01*
X007556Y012131D01*
X007381Y012131D01*
X007381Y011736D01*
X007301Y011736D01*
X007301Y012131D01*
X007125Y012131D01*
X007090Y012122D01*
X007058Y012103D01*
X007032Y012077D01*
X007013Y012045D01*
X007004Y012010D01*
X007004Y011736D01*
X007301Y011736D01*
X007301Y011656D01*
X007004Y011656D01*
X007004Y011382D01*
X007013Y011347D01*
X007004Y011426D02*
X006922Y011426D01*
X006922Y011380D02*
X006922Y011671D01*
X006912Y011707D01*
X006894Y011739D01*
X006867Y011765D01*
X006836Y011783D01*
X006800Y011793D01*
X006679Y011793D01*
X006679Y011380D01*
X006922Y011380D01*
X006922Y011269D02*
X007095Y011269D01*
X007004Y011504D02*
X006922Y011504D01*
X006922Y011583D02*
X007004Y011583D01*
X006922Y011661D02*
X007301Y011661D01*
X007301Y011583D02*
X007381Y011583D01*
X007381Y011656D02*
X007381Y011261D01*
X007556Y011261D01*
X007592Y011270D01*
X007623Y011289D01*
X007650Y011315D01*
X007668Y011347D01*
X007777Y011347D01*
X007677Y011382D02*
X007677Y011656D01*
X007381Y011656D01*
X007381Y011661D02*
X008117Y011661D01*
X008032Y011583D02*
X007677Y011583D01*
X007677Y011504D02*
X007947Y011504D01*
X007862Y011426D02*
X007677Y011426D01*
X007677Y011382D02*
X007668Y011347D01*
X007692Y011269D02*
X007586Y011269D01*
X007661Y011240D02*
X007661Y009800D01*
X007101Y009160D01*
X007101Y007351D01*
X007089Y007339D01*
X007089Y007156D01*
X007101Y007144D01*
X007101Y006567D01*
X007012Y006478D01*
X007012Y006111D01*
X006922Y006021D01*
X006922Y006217D01*
X006679Y006217D01*
X006679Y006262D01*
X006634Y006262D01*
X006634Y006675D01*
X006513Y006675D01*
X006477Y006665D01*
X006446Y006647D01*
X006420Y006621D01*
X006414Y006611D01*
X006390Y006635D01*
X006057Y006635D01*
X006007Y006584D01*
X005957Y006635D01*
X005624Y006635D01*
X005574Y006584D01*
X005524Y006635D01*
X005191Y006635D01*
X005141Y006584D01*
X005091Y006635D01*
X004861Y006635D01*
X004861Y007560D01*
X004301Y008120D01*
X004301Y012539D01*
X004343Y012641D01*
X004343Y012767D01*
X004313Y012840D01*
X005341Y012840D01*
X005501Y013000D01*
X005501Y013002D01*
X005522Y012990D01*
X005558Y012980D01*
X005736Y012980D01*
X005736Y013280D01*
X005816Y013280D01*
X005816Y012980D01*
X005995Y012980D01*
X006030Y012990D01*
X006062Y013008D01*
X006088Y013034D01*
X006107Y013066D01*
X006116Y013102D01*
X006116Y013280D01*
X005816Y013280D01*
X005816Y013360D01*
X005736Y013360D01*
X005736Y013660D01*
X005558Y013660D01*
X005522Y013651D01*
X005501Y013638D01*
X005501Y014060D01*
X007046Y014060D01*
X007032Y014046D01*
X007013Y014014D01*
X007004Y013978D01*
X007004Y013704D01*
X007301Y013704D01*
X007301Y013624D01*
X007381Y013624D01*
X007381Y013229D01*
X007556Y013229D01*
X007592Y013239D01*
X007623Y013257D01*
X007650Y013283D01*
X007668Y013315D01*
X007677Y013351D01*
X007677Y013624D01*
X008701Y013624D01*
X008701Y013702D02*
X007381Y013702D01*
X007381Y013704D02*
X007677Y013704D01*
X007677Y013978D01*
X007668Y014014D01*
X007650Y014046D01*
X007635Y014060D01*
X008701Y014060D01*
X008701Y012200D01*
X007661Y011240D01*
X007661Y011190D02*
X006922Y011190D01*
X006922Y011112D02*
X007661Y011112D01*
X007661Y011033D02*
X006919Y011033D01*
X006872Y010955D02*
X007661Y010955D01*
X007661Y010876D02*
X004301Y010876D01*
X004301Y010798D02*
X007661Y010798D01*
X007661Y010719D02*
X004301Y010719D01*
X004301Y010641D02*
X007661Y010641D01*
X007661Y010562D02*
X004301Y010562D01*
X004301Y010484D02*
X007661Y010484D01*
X007661Y010405D02*
X004301Y010405D01*
X004301Y010327D02*
X007661Y010327D01*
X007661Y010248D02*
X004301Y010248D01*
X004301Y010170D02*
X007661Y010170D01*
X007661Y010091D02*
X004301Y010091D01*
X004301Y010013D02*
X007661Y010013D01*
X007661Y009934D02*
X004301Y009934D01*
X004301Y009856D02*
X007661Y009856D01*
X007641Y009777D02*
X004301Y009777D01*
X004301Y009699D02*
X007572Y009699D01*
X007503Y009620D02*
X004301Y009620D01*
X004301Y009542D02*
X007434Y009542D01*
X007366Y009463D02*
X004301Y009463D01*
X004301Y009385D02*
X007297Y009385D01*
X007228Y009306D02*
X004301Y009306D01*
X004301Y009228D02*
X007160Y009228D01*
X007101Y009149D02*
X004301Y009149D01*
X004301Y009071D02*
X007101Y009071D01*
X007101Y008992D02*
X004301Y008992D01*
X004301Y008914D02*
X007101Y008914D01*
X007101Y008835D02*
X004301Y008835D01*
X004301Y008757D02*
X007101Y008757D01*
X007101Y008678D02*
X004301Y008678D01*
X004301Y008600D02*
X007101Y008600D01*
X007101Y008521D02*
X004301Y008521D01*
X004301Y008443D02*
X007101Y008443D01*
X007101Y008364D02*
X004301Y008364D01*
X004301Y008286D02*
X007101Y008286D01*
X007101Y008207D02*
X004301Y008207D01*
X004301Y008129D02*
X007101Y008129D01*
X007101Y008050D02*
X004371Y008050D01*
X004449Y007972D02*
X007101Y007972D01*
X007101Y007893D02*
X004528Y007893D01*
X004606Y007815D02*
X007101Y007815D01*
X007101Y007736D02*
X004685Y007736D01*
X004763Y007658D02*
X007101Y007658D01*
X007101Y007579D02*
X004842Y007579D01*
X004861Y007501D02*
X007101Y007501D01*
X007101Y007422D02*
X004861Y007422D01*
X004861Y007344D02*
X007094Y007344D01*
X007089Y007265D02*
X004861Y007265D01*
X004861Y007187D02*
X007089Y007187D01*
X007101Y007108D02*
X004861Y007108D01*
X004861Y007030D02*
X007101Y007030D01*
X007101Y006951D02*
X004861Y006951D01*
X004861Y006873D02*
X007101Y006873D01*
X007101Y006794D02*
X004861Y006794D01*
X004861Y006716D02*
X007101Y006716D01*
X007101Y006637D02*
X006877Y006637D01*
X006867Y006647D02*
X006894Y006621D01*
X006912Y006589D01*
X006922Y006553D01*
X006922Y006262D01*
X006679Y006262D01*
X006679Y006675D01*
X006800Y006675D01*
X006836Y006665D01*
X006867Y006647D01*
X006920Y006559D02*
X007092Y006559D01*
X007013Y006480D02*
X006922Y006480D01*
X006922Y006402D02*
X007012Y006402D01*
X007012Y006323D02*
X006922Y006323D01*
X007012Y006245D02*
X006679Y006245D01*
X006679Y006323D02*
X006634Y006323D01*
X006634Y006402D02*
X006679Y006402D01*
X006679Y006480D02*
X006634Y006480D01*
X006634Y006559D02*
X006679Y006559D01*
X006679Y006637D02*
X006634Y006637D01*
X006436Y006637D02*
X004861Y006637D01*
X006922Y006166D02*
X007012Y006166D01*
X006988Y006088D02*
X006922Y006088D01*
X005813Y010955D02*
X005768Y010955D01*
X005768Y011033D02*
X005813Y011033D01*
X005813Y011112D02*
X005768Y011112D01*
X005768Y011190D02*
X005813Y011190D01*
X005813Y011269D02*
X005768Y011269D01*
X005768Y011380D02*
X005768Y011793D01*
X005647Y011793D01*
X005611Y011783D01*
X005579Y011765D01*
X005553Y011739D01*
X005548Y011729D01*
X005524Y011753D01*
X005191Y011753D01*
X005141Y011703D01*
X005091Y011753D01*
X005074Y011753D01*
X005074Y011803D01*
X004958Y011919D01*
X004958Y012163D01*
X004921Y012200D01*
X004958Y012238D01*
X004958Y012286D01*
X005007Y012286D01*
X005007Y012241D01*
X005066Y012183D01*
X005463Y012183D01*
X005501Y012220D01*
X005538Y012183D01*
X005796Y012183D01*
X005796Y012079D01*
X005864Y011914D01*
X005991Y011787D01*
X006005Y011781D01*
X006005Y011761D01*
X006001Y011765D01*
X005969Y011783D01*
X005934Y011793D01*
X005813Y011793D01*
X005813Y011380D01*
X005768Y011380D01*
X005768Y011426D02*
X005813Y011426D01*
X005813Y011504D02*
X005768Y011504D01*
X005768Y011583D02*
X005813Y011583D01*
X005813Y011661D02*
X005768Y011661D01*
X005768Y011740D02*
X005813Y011740D01*
X005960Y011818D02*
X005059Y011818D01*
X005104Y011740D02*
X005178Y011740D01*
X004980Y011897D02*
X005881Y011897D01*
X005839Y011975D02*
X004958Y011975D01*
X004958Y012054D02*
X005806Y012054D01*
X005796Y012132D02*
X004958Y012132D01*
X004931Y012211D02*
X005037Y012211D01*
X005007Y012603D02*
X004958Y012603D01*
X004912Y012682D02*
X005050Y012682D01*
X005479Y012682D02*
X005522Y012682D01*
X005418Y012917D02*
X006055Y012917D01*
X006041Y012996D02*
X006134Y012996D01*
X006109Y013074D02*
X006230Y013074D01*
X006116Y013153D02*
X008701Y013153D01*
X008701Y013231D02*
X007564Y013231D01*
X007665Y013310D02*
X008701Y013310D01*
X008701Y013388D02*
X007677Y013388D01*
X007677Y013467D02*
X008701Y013467D01*
X008701Y013545D02*
X007677Y013545D01*
X007677Y013624D02*
X007381Y013624D01*
X007301Y013624D01*
X007301Y013229D01*
X007125Y013229D01*
X007090Y013239D01*
X007058Y013257D01*
X007032Y013283D01*
X007013Y013315D01*
X007004Y013351D01*
X007004Y013624D01*
X006071Y013624D01*
X006062Y013632D02*
X006030Y013651D01*
X005995Y013660D01*
X005816Y013660D01*
X005816Y013360D01*
X006116Y013360D01*
X006116Y013539D01*
X006107Y013574D01*
X006088Y013606D01*
X006062Y013632D01*
X006114Y013545D02*
X007004Y013545D01*
X007004Y013467D02*
X006116Y013467D01*
X006116Y013388D02*
X007004Y013388D01*
X007016Y013310D02*
X005816Y013310D01*
X005816Y013388D02*
X005736Y013388D01*
X005736Y013467D02*
X005816Y013467D01*
X005816Y013545D02*
X005736Y013545D01*
X005736Y013624D02*
X005816Y013624D01*
X005501Y013702D02*
X007301Y013702D01*
X007301Y013624D02*
X007004Y013624D01*
X007004Y013781D02*
X005501Y013781D01*
X005501Y013859D02*
X007004Y013859D01*
X007004Y013938D02*
X005501Y013938D01*
X005501Y014016D02*
X007015Y014016D01*
X007381Y013704D02*
X007381Y013624D01*
X007381Y013545D02*
X007301Y013545D01*
X007301Y013467D02*
X007381Y013467D01*
X007381Y013388D02*
X007301Y013388D01*
X007301Y013310D02*
X007381Y013310D01*
X007381Y013231D02*
X007301Y013231D01*
X007118Y013231D02*
X006116Y013231D01*
X005816Y013231D02*
X005736Y013231D01*
X005736Y013153D02*
X005816Y013153D01*
X005816Y013074D02*
X005736Y013074D01*
X005736Y012996D02*
X005816Y012996D01*
X005977Y012839D02*
X004313Y012839D01*
X004343Y012760D02*
X005898Y012760D01*
X005512Y012996D02*
X005496Y012996D01*
X005491Y012211D02*
X005510Y012211D01*
X005537Y011740D02*
X005555Y011740D01*
X005575Y010955D02*
X004301Y010955D01*
X004301Y011033D02*
X004699Y011033D01*
X004699Y011112D02*
X004301Y011112D01*
X004301Y011190D02*
X004699Y011190D01*
X004699Y011269D02*
X004301Y011269D01*
X004301Y011347D02*
X004699Y011347D01*
X004699Y011426D02*
X004301Y011426D01*
X004301Y011504D02*
X004699Y011504D01*
X004699Y011583D02*
X004301Y011583D01*
X004301Y011661D02*
X004699Y011661D01*
X004468Y011740D02*
X004301Y011740D01*
X004301Y011818D02*
X004443Y011818D01*
X004443Y011897D02*
X004301Y011897D01*
X004301Y011975D02*
X004443Y011975D01*
X004443Y012054D02*
X004301Y012054D01*
X004301Y012132D02*
X004443Y012132D01*
X004470Y012211D02*
X004301Y012211D01*
X004301Y012289D02*
X004443Y012289D01*
X004443Y012368D02*
X004301Y012368D01*
X004301Y012446D02*
X004443Y012446D01*
X004443Y012525D02*
X004301Y012525D01*
X004327Y012603D02*
X004443Y012603D01*
X004490Y012682D02*
X004343Y012682D01*
X006531Y011818D02*
X007004Y011818D01*
X007004Y011740D02*
X006892Y011740D01*
X007004Y011897D02*
X006610Y011897D01*
X006652Y011975D02*
X007004Y011975D01*
X007018Y012054D02*
X006685Y012054D01*
X006696Y012132D02*
X008627Y012132D01*
X008701Y012211D02*
X006696Y012211D01*
X006700Y012289D02*
X008701Y012289D01*
X008701Y012368D02*
X008601Y012368D01*
X008608Y012371D02*
X008634Y012397D01*
X008652Y012429D01*
X008662Y012465D01*
X008662Y012640D01*
X008266Y012640D01*
X008266Y012343D01*
X008540Y012343D01*
X008576Y012353D01*
X008608Y012371D01*
X008657Y012446D02*
X008701Y012446D01*
X008701Y012525D02*
X008662Y012525D01*
X008662Y012603D02*
X008701Y012603D01*
X008701Y012682D02*
X008266Y012682D01*
X008266Y012720D02*
X008266Y012640D01*
X008186Y012640D01*
X008186Y012343D01*
X007913Y012343D01*
X007877Y012353D01*
X007845Y012371D01*
X007819Y012397D01*
X007801Y012429D01*
X007797Y012444D01*
X007789Y012437D01*
X007674Y012389D01*
X007548Y012389D01*
X007432Y012437D01*
X007344Y012526D01*
X007296Y012641D01*
X007296Y012767D01*
X007344Y012882D01*
X007432Y012971D01*
X007548Y013019D01*
X007674Y013019D01*
X007789Y012971D01*
X007811Y012949D01*
X007819Y012963D01*
X007845Y012989D01*
X007877Y013008D01*
X007913Y013017D01*
X008186Y013017D01*
X008186Y012720D01*
X008266Y012720D01*
X008266Y013017D01*
X008540Y013017D01*
X008576Y013008D01*
X008608Y012989D01*
X008634Y012963D01*
X008652Y012931D01*
X008662Y012896D01*
X008662Y012720D01*
X008266Y012720D01*
X008266Y012760D02*
X008186Y012760D01*
X008186Y012839D02*
X008266Y012839D01*
X008266Y012917D02*
X008186Y012917D01*
X008186Y012996D02*
X008266Y012996D01*
X008596Y012996D02*
X008701Y012996D01*
X008701Y013074D02*
X006679Y013074D01*
X006776Y012996D02*
X007492Y012996D01*
X007379Y012917D02*
X006844Y012917D01*
X006876Y012839D02*
X007326Y012839D01*
X007296Y012760D02*
X006905Y012760D01*
X006905Y012682D02*
X007296Y012682D01*
X007312Y012603D02*
X006905Y012603D01*
X006877Y012525D02*
X007345Y012525D01*
X007423Y012446D02*
X006845Y012446D01*
X006779Y012368D02*
X007851Y012368D01*
X007663Y012054D02*
X008542Y012054D01*
X008457Y011975D02*
X007677Y011975D01*
X007677Y011897D02*
X008372Y011897D01*
X008287Y011818D02*
X007677Y011818D01*
X007677Y011740D02*
X008202Y011740D01*
X008186Y012368D02*
X008266Y012368D01*
X008266Y012446D02*
X008186Y012446D01*
X008186Y012525D02*
X008266Y012525D01*
X008266Y012603D02*
X008186Y012603D01*
X007857Y012996D02*
X007730Y012996D01*
X007677Y013781D02*
X008701Y013781D01*
X008701Y013859D02*
X007677Y013859D01*
X007677Y013938D02*
X008701Y013938D01*
X008701Y014016D02*
X007667Y014016D01*
X008656Y012917D02*
X008701Y012917D01*
X008701Y012839D02*
X008662Y012839D01*
X008662Y012760D02*
X008701Y012760D01*
X007381Y012054D02*
X007301Y012054D01*
X007301Y011975D02*
X007381Y011975D01*
X007381Y011897D02*
X007301Y011897D01*
X007301Y011818D02*
X007381Y011818D01*
X007381Y011740D02*
X007301Y011740D01*
X007301Y011504D02*
X007381Y011504D01*
X007381Y011426D02*
X007301Y011426D01*
X007301Y011347D02*
X007381Y011347D01*
X007381Y011269D02*
X007301Y011269D01*
X006679Y011426D02*
X006634Y011426D01*
X006634Y011504D02*
X006679Y011504D01*
X006679Y011583D02*
X006634Y011583D01*
X006634Y011661D02*
X006679Y011661D01*
X006679Y011740D02*
X006634Y011740D01*
M02*
