%
M48
M72
T01C0.0120
T02C0.0276
T03C0.0350
T04C0.0472
T05C0.0787
%
T01
X1167Y1775
X773Y3389
X1501Y4295
X2368Y4822
X2446Y5121
X1718Y5751
X1344Y5712
X616Y4885
X1088Y7129
X1049Y7838
X616Y7799
X1364Y8940
X1403Y8507
X1915Y8665
X3096Y7169
X3214Y7562
X3332Y8074
X3923Y8873
X3844Y6933
X4887Y5712
X5222Y5673
X4671Y5240
X4375Y4551
X3962Y3850
X3411Y3271
X3490Y2759
X2623Y2326
X2505Y3110
X3529Y1303
X5694Y2287
X5694Y2602
X6206Y3055
X6206Y3665
X6679Y2799
X6994Y2877
X7108Y1933
X7860Y1618
X8214Y1342
X8450Y1854
X8663Y2066
X9080Y1854
X8726Y1381
X9151Y2803
X9434Y3232
X9434Y3547
X9356Y4373
X8883Y4433
X8588Y4373
X7840Y4964
X7545Y5830
X7860Y6460
X8135Y6303
X8627Y6440
X9553Y7169
X9749Y7444
X9553Y7681
X9238Y7681
X9198Y8507
X9277Y9177
X9494Y9393
X9671Y9688
X9828Y9177
X9868Y11814
X8962Y12011
X7742Y9373
X7309Y7247
X7348Y6618
X6560Y5436
X6994Y4807
X6954Y4452
X6049Y5712
X7978Y2917
X6246Y2366
X6521Y673
X9907Y4334
X9907Y4885
X9749Y5436
X9986Y2444
X9946Y1854
X3942Y5476
X3627Y5417
X3332Y5240
X2348Y6775
T02
X797Y2754
X797Y2164
T03
X4028Y12704
X7611Y12704
T04
X5261Y3641
T05
X1088Y988
X9513Y988
X9513Y13413
X1088Y13413
M30
