G75*
%MOIN*%
%OFA0B0*%
%FSLAX24Y24*%
%IPPOS*%
%LPD*%
%AMOC8*
5,1,8,0,0,1.08239X$1,22.5*
%
%ADD10C,0.0000*%
%ADD11R,0.0315X0.0126*%
%ADD12R,0.0126X0.0315*%
%ADD13R,0.0394X0.0472*%
%ADD14R,0.0276X0.0472*%
%ADD15R,0.0512X0.0748*%
%ADD16R,0.0394X0.1102*%
%ADD17R,0.0394X0.0315*%
%ADD18R,0.0315X0.0315*%
%ADD19C,0.0709*%
%ADD20R,0.0476X0.0476*%
%ADD21C,0.0476*%
%ADD22R,0.0610X0.0236*%
%ADD23R,0.0709X0.0472*%
%ADD24R,0.0472X0.0236*%
%ADD25R,0.0472X0.0118*%
%ADD26R,0.0118X0.0472*%
%ADD27R,0.0669X0.0315*%
%ADD28R,0.0394X0.0433*%
%ADD29R,0.0354X0.0276*%
%ADD30R,0.0394X0.0354*%
%ADD31C,0.0079*%
%ADD32C,0.0100*%
%ADD33C,0.0240*%
%ADD34C,0.1181*%
D10*
X000301Y000700D02*
X000301Y013700D01*
X000303Y013744D01*
X000309Y013787D01*
X000318Y013829D01*
X000331Y013871D01*
X000348Y013911D01*
X000368Y013950D01*
X000391Y013987D01*
X000418Y014021D01*
X000447Y014054D01*
X000480Y014083D01*
X000514Y014110D01*
X000551Y014133D01*
X000590Y014153D01*
X000630Y014170D01*
X000672Y014183D01*
X000714Y014192D01*
X000757Y014198D01*
X000801Y014200D01*
X009801Y014200D01*
X009845Y014198D01*
X009888Y014192D01*
X009930Y014183D01*
X009972Y014170D01*
X010012Y014153D01*
X010051Y014133D01*
X010088Y014110D01*
X010122Y014083D01*
X010155Y014054D01*
X010184Y014021D01*
X010211Y013987D01*
X010234Y013950D01*
X010254Y013911D01*
X010271Y013871D01*
X010284Y013829D01*
X010293Y013787D01*
X010299Y013744D01*
X010301Y013700D01*
X010301Y000700D01*
X010299Y000656D01*
X010293Y000613D01*
X010284Y000571D01*
X010271Y000529D01*
X010254Y000489D01*
X010234Y000450D01*
X010211Y000413D01*
X010184Y000379D01*
X010155Y000346D01*
X010122Y000317D01*
X010088Y000290D01*
X010051Y000267D01*
X010012Y000247D01*
X009972Y000230D01*
X009930Y000217D01*
X009888Y000208D01*
X009845Y000202D01*
X009801Y000200D01*
X000801Y000200D01*
X000757Y000202D01*
X000714Y000208D01*
X000672Y000217D01*
X000630Y000230D01*
X000590Y000247D01*
X000551Y000267D01*
X000514Y000290D01*
X000480Y000317D01*
X000447Y000346D01*
X000418Y000379D01*
X000391Y000413D01*
X000368Y000450D01*
X000348Y000489D01*
X000331Y000529D01*
X000318Y000571D01*
X000309Y000613D01*
X000303Y000656D01*
X000301Y000700D01*
X003853Y012704D02*
X003855Y012730D01*
X003861Y012756D01*
X003870Y012780D01*
X003883Y012803D01*
X003900Y012823D01*
X003919Y012841D01*
X003941Y012856D01*
X003964Y012867D01*
X003989Y012875D01*
X004015Y012879D01*
X004041Y012879D01*
X004067Y012875D01*
X004092Y012867D01*
X004116Y012856D01*
X004137Y012841D01*
X004156Y012823D01*
X004173Y012803D01*
X004186Y012780D01*
X004195Y012756D01*
X004201Y012730D01*
X004203Y012704D01*
X004201Y012678D01*
X004195Y012652D01*
X004186Y012628D01*
X004173Y012605D01*
X004156Y012585D01*
X004137Y012567D01*
X004115Y012552D01*
X004092Y012541D01*
X004067Y012533D01*
X004041Y012529D01*
X004015Y012529D01*
X003989Y012533D01*
X003964Y012541D01*
X003940Y012552D01*
X003919Y012567D01*
X003900Y012585D01*
X003883Y012605D01*
X003870Y012628D01*
X003861Y012652D01*
X003855Y012678D01*
X003853Y012704D01*
X007436Y012704D02*
X007438Y012730D01*
X007444Y012756D01*
X007453Y012780D01*
X007466Y012803D01*
X007483Y012823D01*
X007502Y012841D01*
X007524Y012856D01*
X007547Y012867D01*
X007572Y012875D01*
X007598Y012879D01*
X007624Y012879D01*
X007650Y012875D01*
X007675Y012867D01*
X007699Y012856D01*
X007720Y012841D01*
X007739Y012823D01*
X007756Y012803D01*
X007769Y012780D01*
X007778Y012756D01*
X007784Y012730D01*
X007786Y012704D01*
X007784Y012678D01*
X007778Y012652D01*
X007769Y012628D01*
X007756Y012605D01*
X007739Y012585D01*
X007720Y012567D01*
X007698Y012552D01*
X007675Y012541D01*
X007650Y012533D01*
X007624Y012529D01*
X007598Y012529D01*
X007572Y012533D01*
X007547Y012541D01*
X007523Y012552D01*
X007502Y012567D01*
X007483Y012585D01*
X007466Y012605D01*
X007453Y012628D01*
X007444Y012652D01*
X007438Y012678D01*
X007436Y012704D01*
D11*
X008433Y003731D03*
X008433Y003534D03*
X008433Y003337D03*
X008433Y003141D03*
X008433Y002944D03*
X008433Y002747D03*
X010007Y002747D03*
X010007Y002944D03*
X010007Y003141D03*
X010007Y003337D03*
X010007Y003534D03*
X010007Y003731D03*
D12*
X009712Y004026D03*
X009515Y004026D03*
X009318Y004026D03*
X009122Y004026D03*
X008925Y004026D03*
X008728Y004026D03*
X008728Y002452D03*
X008925Y002452D03*
X009122Y002452D03*
X009318Y002452D03*
X009515Y002452D03*
X009712Y002452D03*
D13*
X008280Y009397D03*
X003890Y007704D03*
D14*
X004501Y007704D03*
X004934Y007704D03*
X005367Y007704D03*
X005800Y007704D03*
X006233Y007704D03*
X006666Y007704D03*
X007099Y007704D03*
X007532Y007704D03*
X007906Y007704D03*
D15*
X002965Y013649D03*
D16*
X008280Y013472D03*
D17*
X008280Y011838D03*
D18*
X006875Y007051D03*
X006403Y007051D03*
X005835Y006883D03*
X005362Y006883D03*
X004690Y006893D03*
X004218Y006893D03*
X003194Y006799D03*
X003194Y006326D03*
X002269Y002759D03*
X002269Y002287D03*
X003057Y001814D03*
X003057Y001342D03*
X006797Y001066D03*
X007269Y001066D03*
X007466Y001972D03*
X007938Y001972D03*
X008844Y005043D03*
X009316Y005043D03*
X007899Y005358D03*
X007899Y005830D03*
D19*
X005261Y003996D02*
X005261Y003287D01*
D20*
X000797Y002754D03*
D21*
X000797Y002164D03*
D22*
X002380Y007102D03*
X002380Y007495D03*
X002380Y007889D03*
X002380Y008283D03*
X002380Y008676D03*
X002380Y009070D03*
X002380Y009464D03*
X002380Y009858D03*
X002380Y010251D03*
X002380Y010645D03*
X002380Y011039D03*
X002380Y011432D03*
D23*
X000854Y011944D03*
X000854Y006590D03*
D24*
X008850Y010008D03*
X008850Y010500D03*
X008850Y010992D03*
X008850Y011485D03*
X009755Y011485D03*
X009755Y010992D03*
X009755Y010500D03*
X009755Y010008D03*
D25*
X007419Y005510D03*
X007419Y005313D03*
X007419Y005116D03*
X007419Y004919D03*
X007419Y004722D03*
X007419Y004526D03*
X007419Y004329D03*
X007419Y004132D03*
X007419Y003935D03*
X007419Y003738D03*
X007419Y003541D03*
X007419Y003344D03*
X007419Y003148D03*
X007419Y002951D03*
X007419Y002754D03*
X007419Y002557D03*
X002892Y002557D03*
X002892Y002754D03*
X002892Y002951D03*
X002892Y003148D03*
X002892Y003344D03*
X002892Y003541D03*
X002892Y003738D03*
X002892Y003935D03*
X002892Y004132D03*
X002892Y004329D03*
X002892Y004526D03*
X002892Y004722D03*
X002892Y004919D03*
X002892Y005116D03*
X002892Y005313D03*
X002892Y005510D03*
D26*
X003679Y006297D03*
X003876Y006297D03*
X004073Y006297D03*
X004270Y006297D03*
X004467Y006297D03*
X004663Y006297D03*
X004860Y006297D03*
X005057Y006297D03*
X005254Y006297D03*
X005451Y006297D03*
X005648Y006297D03*
X005845Y006297D03*
X006041Y006297D03*
X006238Y006297D03*
X006435Y006297D03*
X006632Y006297D03*
X006632Y001770D03*
X006435Y001770D03*
X006238Y001770D03*
X006041Y001770D03*
X005845Y001770D03*
X005648Y001770D03*
X005451Y001770D03*
X005254Y001770D03*
X005057Y001770D03*
X004860Y001770D03*
X004663Y001770D03*
X004467Y001770D03*
X004270Y001770D03*
X004073Y001770D03*
X003876Y001770D03*
X003679Y001770D03*
D27*
X009228Y006825D03*
X009228Y008164D03*
D28*
X000609Y005954D03*
X000609Y005284D03*
X000609Y004480D03*
X000609Y003810D03*
D29*
X001141Y003783D03*
X001141Y004294D03*
X001145Y004863D03*
X001145Y005375D03*
D30*
X008686Y005594D03*
X008686Y006106D03*
X009356Y006106D03*
X009356Y005594D03*
D31*
X000447Y000630D02*
X000501Y000500D01*
X000600Y000400D01*
X000730Y000347D01*
X000801Y000340D01*
X009801Y000340D01*
X009871Y000347D01*
X010001Y000400D01*
X010100Y000500D01*
X010154Y000630D01*
X010161Y000700D01*
X010161Y002310D01*
X010077Y002225D01*
X009895Y002225D01*
X009871Y002249D01*
X009849Y002227D01*
X009849Y002072D01*
X009768Y001991D01*
X009256Y001479D01*
X009138Y001479D01*
X008901Y001243D01*
X008897Y001243D01*
X008817Y001162D01*
X008635Y001162D01*
X008506Y001290D01*
X008506Y001439D01*
X008427Y001439D01*
X008433Y001433D01*
X008433Y001251D01*
X008305Y001123D01*
X008191Y001123D01*
X008153Y001085D01*
X007605Y001085D01*
X007566Y001125D01*
X007566Y001106D01*
X007309Y001106D01*
X007309Y001027D01*
X007566Y001027D01*
X007566Y000891D01*
X007556Y000855D01*
X007538Y000823D01*
X007512Y000797D01*
X007480Y000779D01*
X007445Y000770D01*
X007309Y000770D01*
X007309Y001027D01*
X007230Y001027D01*
X007230Y000770D01*
X007093Y000770D01*
X007058Y000779D01*
X007026Y000797D01*
X007005Y000819D01*
X006995Y000810D01*
X006598Y000810D01*
X006540Y000868D01*
X006540Y001112D01*
X006483Y001169D01*
X006483Y001394D01*
X006435Y001394D01*
X006376Y001394D01*
X006303Y001321D01*
X006303Y001321D01*
X006187Y001206D01*
X006187Y001088D01*
X006106Y001006D01*
X005516Y000416D01*
X002448Y000416D01*
X002367Y000497D01*
X001857Y001006D01*
X001776Y001088D01*
X001776Y001403D01*
X001660Y001518D01*
X001582Y001518D01*
X001500Y001599D01*
X001386Y001714D01*
X001386Y001684D01*
X001258Y001556D01*
X001076Y001556D01*
X000947Y001684D01*
X000947Y001817D01*
X000907Y001801D01*
X000834Y001786D01*
X000827Y001786D01*
X000827Y002134D01*
X000768Y002134D01*
X000768Y001786D01*
X000760Y001786D01*
X000687Y001801D01*
X000619Y001829D01*
X000557Y001871D01*
X000504Y001923D01*
X000463Y001985D01*
X000440Y002041D01*
X000440Y000700D01*
X000447Y000630D01*
X000444Y000664D02*
X002200Y000664D01*
X002123Y000741D02*
X000440Y000741D01*
X000440Y000818D02*
X002046Y000818D01*
X001968Y000895D02*
X000440Y000895D01*
X000440Y000973D02*
X001891Y000973D01*
X001814Y001050D02*
X000440Y001050D01*
X000440Y001127D02*
X001776Y001127D01*
X001776Y001204D02*
X000440Y001204D01*
X000440Y001282D02*
X001776Y001282D01*
X001776Y001359D02*
X000440Y001359D01*
X000440Y001436D02*
X001743Y001436D01*
X001665Y001513D02*
X000440Y001513D01*
X000440Y001591D02*
X001041Y001591D01*
X000964Y001668D02*
X000440Y001668D01*
X000440Y001745D02*
X000947Y001745D01*
X000827Y001822D02*
X000768Y001822D01*
X000768Y001900D02*
X000827Y001900D01*
X000827Y001977D02*
X000768Y001977D01*
X000768Y002054D02*
X000827Y002054D01*
X000827Y002131D02*
X000768Y002131D01*
X000528Y001900D02*
X000440Y001900D01*
X000440Y001977D02*
X000469Y001977D01*
X000440Y001822D02*
X000636Y001822D01*
X000440Y002286D02*
X000440Y003494D01*
X000847Y003494D01*
X000883Y003530D01*
X000910Y003515D01*
X000945Y003505D01*
X001111Y003505D01*
X001111Y003753D01*
X001170Y003753D01*
X001170Y003510D01*
X001028Y003368D01*
X001028Y003091D01*
X000518Y003091D01*
X000460Y003033D01*
X000460Y002475D01*
X000518Y002417D01*
X000504Y002404D01*
X000463Y002342D01*
X000440Y002286D01*
X000440Y002363D02*
X000477Y002363D01*
X000495Y002440D02*
X000440Y002440D01*
X000440Y002517D02*
X000460Y002517D01*
X000460Y002595D02*
X000440Y002595D01*
X000440Y002672D02*
X000460Y002672D01*
X000460Y002749D02*
X000440Y002749D01*
X000440Y002826D02*
X000460Y002826D01*
X000460Y002904D02*
X000440Y002904D01*
X000440Y002981D02*
X000460Y002981D01*
X000440Y003058D02*
X000485Y003058D01*
X000440Y003135D02*
X001028Y003135D01*
X001028Y003213D02*
X000440Y003213D01*
X000440Y003290D02*
X001028Y003290D01*
X001028Y003367D02*
X000440Y003367D01*
X000440Y003444D02*
X001104Y003444D01*
X001111Y003522D02*
X001170Y003522D01*
X001170Y003599D02*
X001111Y003599D01*
X001111Y003676D02*
X001170Y003676D01*
X001442Y003586D02*
X001167Y003310D01*
X001167Y001775D01*
X001293Y001591D02*
X001509Y001591D01*
X001432Y001668D02*
X001370Y001668D01*
X001639Y001657D02*
X001324Y001972D01*
X001324Y003232D01*
X001600Y003507D01*
X001600Y004059D01*
X001738Y004196D01*
X001738Y004413D01*
X001600Y004551D01*
X001600Y005259D01*
X001954Y005614D01*
X001954Y006145D01*
X001482Y006618D01*
X001482Y007759D01*
X000891Y008350D01*
X000891Y009177D01*
X001560Y009846D01*
X002368Y009846D01*
X002400Y010232D02*
X002400Y010271D01*
X002824Y010271D01*
X002824Y010388D01*
X002815Y010423D01*
X002797Y010455D01*
X002775Y010476D01*
X002784Y010486D01*
X002784Y010630D01*
X002918Y010497D01*
X002918Y008529D01*
X002999Y008447D01*
X003157Y008290D01*
X003393Y008290D01*
X003590Y008093D01*
X004847Y008093D01*
X004834Y008080D01*
X004795Y008040D01*
X004795Y008040D01*
X004755Y008040D01*
X004717Y008002D01*
X004680Y008040D01*
X004322Y008040D01*
X004263Y007981D01*
X004263Y007489D01*
X004227Y007489D01*
X004227Y007665D01*
X003930Y007665D01*
X003930Y007743D01*
X004227Y007743D01*
X004227Y007959D01*
X004217Y007994D01*
X004199Y008026D01*
X004173Y008052D01*
X004141Y008070D01*
X004106Y008080D01*
X003930Y008080D01*
X003930Y007743D01*
X003851Y007743D01*
X003851Y007665D01*
X003554Y007665D01*
X003554Y007489D01*
X003484Y007489D01*
X003433Y007539D01*
X003433Y007653D01*
X003305Y007782D01*
X003123Y007782D01*
X002995Y007653D01*
X002995Y007472D01*
X003123Y007343D01*
X003237Y007343D01*
X003369Y007211D01*
X005730Y007211D01*
X005730Y007140D01*
X005636Y007140D01*
X005627Y007131D01*
X005605Y007152D01*
X005574Y007171D01*
X005538Y007180D01*
X005402Y007180D01*
X005402Y006923D01*
X005323Y006923D01*
X005323Y007180D01*
X005187Y007180D01*
X005151Y007171D01*
X005119Y007152D01*
X004944Y007152D01*
X004933Y007162D02*
X004902Y007181D01*
X004866Y007190D01*
X004730Y007190D01*
X004730Y006933D01*
X004651Y006933D01*
X004651Y007190D01*
X004515Y007190D01*
X004479Y007181D01*
X004447Y007162D01*
X004426Y007141D01*
X004417Y007150D01*
X004019Y007150D01*
X003978Y007109D01*
X003935Y007152D01*
X004437Y007152D01*
X004651Y007152D02*
X004730Y007152D01*
X004730Y007075D02*
X004651Y007075D01*
X004651Y006997D02*
X004730Y006997D01*
X004730Y006933D02*
X004987Y006933D01*
X004987Y007069D01*
X004978Y007104D01*
X004959Y007136D01*
X004933Y007162D01*
X004986Y007075D02*
X005070Y007075D01*
X005066Y007059D02*
X005075Y007095D01*
X005093Y007126D01*
X005119Y007152D01*
X005066Y007059D02*
X005066Y006923D01*
X005323Y006923D01*
X005323Y006844D01*
X005066Y006844D01*
X005066Y006707D01*
X005075Y006672D01*
X005093Y006640D01*
X005101Y006633D01*
X004942Y006633D01*
X004959Y006650D01*
X004978Y006682D01*
X004987Y006717D01*
X004987Y006854D01*
X004730Y006854D01*
X004730Y006933D01*
X004730Y006920D02*
X005323Y006920D01*
X005323Y006997D02*
X005402Y006997D01*
X005402Y007075D02*
X005323Y007075D01*
X005323Y007152D02*
X005402Y007152D01*
X005606Y007152D02*
X005730Y007152D01*
X005869Y007350D02*
X005869Y007635D01*
X006016Y007406D02*
X006008Y007397D01*
X006008Y007140D01*
X006033Y007140D01*
X006039Y007134D01*
X006105Y007200D01*
X006146Y007200D01*
X006146Y007249D01*
X006204Y007307D01*
X006602Y007307D01*
X006611Y007298D01*
X006632Y007320D01*
X006664Y007338D01*
X006696Y007346D01*
X006696Y007674D01*
X006636Y007674D01*
X006636Y007328D01*
X006510Y007328D01*
X006474Y007338D01*
X006443Y007356D01*
X006421Y007378D01*
X006412Y007368D01*
X006054Y007368D01*
X006016Y007406D01*
X006008Y007384D02*
X006039Y007384D01*
X006008Y007306D02*
X006203Y007306D01*
X006146Y007229D02*
X006008Y007229D01*
X006008Y007152D02*
X006057Y007152D01*
X005869Y007350D02*
X005869Y006908D01*
X005835Y006883D01*
X005869Y007350D02*
X003427Y007350D01*
X003214Y007562D01*
X003083Y007384D02*
X002959Y007384D01*
X002959Y007423D02*
X002878Y007504D01*
X002821Y007561D01*
X002784Y007598D01*
X002784Y007655D01*
X002747Y007692D01*
X002784Y007730D01*
X002784Y008048D01*
X002747Y008086D01*
X002784Y008123D01*
X002784Y008442D01*
X002747Y008480D01*
X002784Y008517D01*
X002784Y008836D01*
X002747Y008873D01*
X002784Y008911D01*
X002784Y009229D01*
X002747Y009267D01*
X002784Y009305D01*
X002784Y009623D01*
X002747Y009661D01*
X002784Y009698D01*
X002784Y010017D01*
X002775Y010026D01*
X002797Y010048D01*
X002815Y010079D01*
X002824Y010115D01*
X002824Y010232D01*
X002400Y010232D01*
X002400Y010241D02*
X002918Y010241D01*
X002918Y010164D02*
X002824Y010164D01*
X002817Y010087D02*
X002918Y010087D01*
X002918Y010010D02*
X002784Y010010D01*
X002784Y009933D02*
X002918Y009933D01*
X002918Y009855D02*
X002784Y009855D01*
X002784Y009778D02*
X002918Y009778D01*
X002918Y009701D02*
X002784Y009701D01*
X002784Y009624D02*
X002918Y009624D01*
X002918Y009546D02*
X002784Y009546D01*
X002784Y009469D02*
X002918Y009469D01*
X002918Y009392D02*
X002784Y009392D01*
X002784Y009315D02*
X002918Y009315D01*
X002918Y009237D02*
X002776Y009237D01*
X002784Y009160D02*
X002918Y009160D01*
X002918Y009083D02*
X002784Y009083D01*
X002784Y009006D02*
X002918Y009006D01*
X002918Y008928D02*
X002784Y008928D01*
X002769Y008851D02*
X002918Y008851D01*
X002918Y008774D02*
X002784Y008774D01*
X002784Y008697D02*
X002918Y008697D01*
X002918Y008619D02*
X002784Y008619D01*
X002784Y008542D02*
X002918Y008542D01*
X002981Y008465D02*
X002761Y008465D01*
X002784Y008388D02*
X003059Y008388D01*
X002999Y008447D02*
X002999Y008447D01*
X003057Y008586D02*
X003214Y008429D01*
X003450Y008429D01*
X003647Y008232D01*
X004809Y008232D01*
X005045Y008468D01*
X005931Y008468D01*
X006127Y008665D01*
X006679Y008665D01*
X006954Y008940D01*
X009159Y008940D01*
X009828Y008350D01*
X009828Y007523D01*
X009749Y007444D01*
X009610Y007615D02*
X009457Y007615D01*
X009457Y007590D02*
X009329Y007461D01*
X009147Y007461D01*
X009018Y007590D01*
X009018Y007771D01*
X009099Y007852D01*
X009099Y007907D01*
X008951Y007907D01*
X008943Y007899D01*
X008943Y007122D01*
X009188Y007122D01*
X009188Y006864D01*
X009188Y006786D01*
X008754Y006786D01*
X008754Y006649D01*
X008763Y006614D01*
X008781Y006582D01*
X008807Y006556D01*
X008839Y006538D01*
X008875Y006528D01*
X009188Y006528D01*
X009188Y006786D01*
X009267Y006786D01*
X009689Y006786D01*
X009689Y006864D01*
X009267Y006864D01*
X009267Y006786D01*
X009267Y006528D01*
X009581Y006528D01*
X009616Y006538D01*
X009648Y006556D01*
X009674Y006582D01*
X009689Y006609D01*
X009689Y005656D01*
X009659Y005656D01*
X009652Y005649D01*
X009652Y005812D01*
X009614Y005850D01*
X009652Y005887D01*
X009652Y006324D01*
X009594Y006382D01*
X009118Y006382D01*
X009060Y006324D01*
X009060Y006263D01*
X009023Y006263D01*
X009023Y006301D01*
X009013Y006337D01*
X008995Y006368D01*
X008969Y006394D01*
X008937Y006413D01*
X008902Y006422D01*
X008726Y006422D01*
X008726Y006263D01*
X008647Y006263D01*
X008647Y006422D01*
X008510Y006422D01*
X008510Y006639D01*
X008754Y006882D01*
X008754Y006864D01*
X009188Y006864D01*
X009267Y006864D01*
X009267Y007122D01*
X009333Y007122D01*
X009333Y007260D01*
X009462Y007388D01*
X009530Y007388D01*
X009530Y007535D01*
X009659Y007664D01*
X009689Y007664D01*
X009689Y008287D01*
X009662Y008312D01*
X009662Y007965D01*
X009603Y007907D01*
X009376Y007907D01*
X009376Y007852D01*
X009457Y007771D01*
X009457Y007590D01*
X009405Y007538D02*
X009533Y007538D01*
X009530Y007461D02*
X008943Y007461D01*
X008943Y007538D02*
X009070Y007538D01*
X009018Y007615D02*
X008943Y007615D01*
X008943Y007693D02*
X009018Y007693D01*
X009018Y007770D02*
X008943Y007770D01*
X008943Y007847D02*
X009094Y007847D01*
X009238Y007681D02*
X009238Y008016D01*
X009228Y008164D01*
X009296Y008074D01*
X008923Y008074D01*
X008805Y007956D01*
X008805Y007129D01*
X008371Y006696D01*
X008371Y006224D01*
X008332Y006165D01*
X008332Y005555D01*
X008293Y005515D01*
X008293Y005377D01*
X008175Y005240D01*
X008175Y005082D01*
X008076Y004984D01*
X008076Y004826D01*
X008057Y004807D01*
X007781Y004551D01*
X007781Y003822D01*
X007697Y003738D01*
X007419Y003738D01*
X007419Y003344D02*
X007756Y003344D01*
X007938Y003507D01*
X007938Y004472D01*
X008234Y004747D01*
X008234Y004905D01*
X008332Y005003D01*
X008332Y005200D01*
X008686Y005594D01*
X008552Y005237D02*
X008547Y005219D01*
X008547Y005082D01*
X008805Y005082D01*
X008805Y005003D01*
X008883Y005003D01*
X008883Y004746D01*
X009020Y004746D01*
X009055Y004755D01*
X009087Y004774D01*
X009108Y004795D01*
X009118Y004786D01*
X009515Y004786D01*
X009532Y004803D01*
X009532Y004631D01*
X009689Y004473D01*
X009689Y004427D01*
X009688Y004425D01*
X009688Y004283D01*
X009642Y004283D01*
X009575Y004350D01*
X009575Y004464D01*
X009447Y004593D01*
X009265Y004593D01*
X009136Y004464D01*
X009136Y004283D01*
X009063Y004283D01*
X009063Y004302D01*
X009103Y004342D01*
X009103Y004523D01*
X008974Y004652D01*
X008792Y004652D01*
X008706Y004566D01*
X008679Y004593D01*
X008497Y004593D01*
X008369Y004464D01*
X008369Y004283D01*
X008497Y004154D01*
X008566Y004154D01*
X008566Y003933D01*
X008433Y003933D01*
X008433Y003731D01*
X008433Y003731D01*
X008729Y003731D01*
X008729Y003650D01*
X008720Y003614D01*
X008702Y003583D01*
X008689Y003570D01*
X008689Y003455D01*
X008725Y003490D01*
X008725Y003545D01*
X008784Y003604D01*
X008865Y003685D01*
X009263Y003685D01*
X009344Y003766D01*
X009525Y003766D01*
X009654Y003638D01*
X009654Y003456D01*
X009587Y003389D01*
X009654Y003323D01*
X009654Y003141D01*
X009525Y003012D01*
X009344Y003012D01*
X009302Y003054D01*
X009061Y003054D01*
X009061Y002889D01*
X009069Y002844D01*
X009061Y002833D01*
X009061Y002820D01*
X009029Y002787D01*
X008973Y002708D01*
X009355Y002708D01*
X009367Y002721D01*
X009398Y002739D01*
X009434Y002748D01*
X009515Y002748D01*
X009515Y002452D01*
X009515Y002452D01*
X009515Y002748D01*
X009597Y002748D01*
X009632Y002739D01*
X009664Y002721D01*
X009676Y002708D01*
X009751Y002708D01*
X009751Y003570D01*
X009738Y003583D01*
X009720Y003614D01*
X009711Y003650D01*
X009711Y003731D01*
X010007Y003731D01*
X010007Y003731D01*
X009711Y003731D01*
X009711Y003770D01*
X008729Y003770D01*
X008729Y003731D01*
X008433Y003731D01*
X008433Y003731D01*
X008433Y003933D01*
X008257Y003933D01*
X008221Y003924D01*
X008190Y003906D01*
X008164Y003880D01*
X008145Y003848D01*
X008136Y003812D01*
X008136Y003731D01*
X008136Y003650D01*
X008145Y003614D01*
X008164Y003583D01*
X008176Y003570D01*
X008176Y002643D01*
X008234Y002584D01*
X008566Y002584D01*
X008566Y002253D01*
X008624Y002195D01*
X008910Y002195D01*
X008666Y001951D01*
X008666Y001948D01*
X008541Y002073D01*
X008427Y002073D01*
X008392Y002108D01*
X008392Y002226D01*
X008311Y002307D01*
X008232Y002386D01*
X008114Y002386D01*
X007998Y002502D01*
X007998Y002699D01*
X007917Y002780D01*
X007804Y002893D01*
X007755Y002893D01*
X007755Y003206D01*
X007805Y003203D01*
X007809Y003206D01*
X007813Y003206D01*
X007851Y003244D01*
X007991Y003369D01*
X007996Y003369D01*
X008034Y003406D01*
X008074Y003442D01*
X008074Y003447D01*
X008077Y003450D01*
X008077Y003503D01*
X008080Y003557D01*
X008077Y003560D01*
X008077Y004412D01*
X008288Y004609D01*
X008291Y004609D01*
X008330Y004648D01*
X008370Y004685D01*
X008370Y004688D01*
X008372Y004690D01*
X008372Y004745D01*
X008374Y004800D01*
X008372Y004802D01*
X008372Y004847D01*
X008390Y004865D01*
X008471Y004946D01*
X008471Y005147D01*
X008552Y005237D01*
X008548Y005221D02*
X008537Y005221D01*
X008547Y005144D02*
X008471Y005144D01*
X008471Y005066D02*
X008805Y005066D01*
X008844Y005043D02*
X009001Y005220D01*
X009001Y006027D01*
X008903Y006106D01*
X008686Y006106D01*
X008647Y006302D02*
X008726Y006302D01*
X008726Y006379D02*
X008647Y006379D01*
X008510Y006457D02*
X009689Y006457D01*
X009689Y006534D02*
X009602Y006534D01*
X009597Y006379D02*
X009689Y006379D01*
X009689Y006302D02*
X009652Y006302D01*
X009652Y006225D02*
X009689Y006225D01*
X009689Y006148D02*
X009652Y006148D01*
X009652Y006071D02*
X009689Y006071D01*
X009689Y005993D02*
X009652Y005993D01*
X009652Y005916D02*
X009689Y005916D01*
X009689Y005839D02*
X009625Y005839D01*
X009652Y005762D02*
X009689Y005762D01*
X009689Y005684D02*
X009652Y005684D01*
X009828Y005535D02*
X009749Y005436D01*
X009395Y005082D01*
X009356Y005082D01*
X009316Y005043D01*
X009356Y005082D02*
X009356Y005594D01*
X009356Y006106D01*
X009115Y006379D02*
X008984Y006379D01*
X009022Y006302D02*
X009060Y006302D01*
X009188Y006534D02*
X009267Y006534D01*
X009267Y006611D02*
X009188Y006611D01*
X009188Y006688D02*
X009267Y006688D01*
X009267Y006766D02*
X009188Y006766D01*
X009228Y006825D02*
X009237Y006834D01*
X009474Y006834D01*
X009513Y006795D01*
X009689Y006843D02*
X009267Y006843D01*
X009267Y006920D02*
X009188Y006920D01*
X009188Y006843D02*
X008714Y006843D01*
X008754Y006766D02*
X008637Y006766D01*
X008560Y006688D02*
X008754Y006688D01*
X008765Y006611D02*
X008510Y006611D01*
X008510Y006534D02*
X008853Y006534D01*
X009188Y006997D02*
X009267Y006997D01*
X009267Y007075D02*
X009188Y007075D01*
X009333Y007152D02*
X008943Y007152D01*
X008943Y007229D02*
X009333Y007229D01*
X009380Y007306D02*
X008943Y007306D01*
X008943Y007384D02*
X009457Y007384D01*
X009553Y007169D02*
X009749Y007169D01*
X009828Y007090D01*
X009828Y005535D01*
X009986Y005318D02*
X009986Y008429D01*
X009395Y008940D01*
X009395Y009059D01*
X009277Y009177D01*
X009139Y009315D01*
X009139Y009746D01*
X008929Y009996D01*
X008850Y010008D01*
X008920Y009791D02*
X008572Y009791D01*
X008514Y009849D01*
X008514Y010167D01*
X008572Y010226D01*
X009127Y010226D01*
X009178Y010175D01*
X009178Y010333D01*
X009127Y010283D01*
X008572Y010283D01*
X008514Y010341D01*
X008514Y010660D01*
X008572Y010718D01*
X009127Y010718D01*
X009185Y010660D01*
X009185Y010615D01*
X009256Y010615D01*
X009256Y011836D01*
X009220Y011873D01*
X009134Y011873D01*
X009053Y011792D01*
X008871Y011792D01*
X008743Y011920D01*
X008743Y012102D01*
X008871Y012231D01*
X009053Y012231D01*
X009134Y012150D01*
X009334Y012150D01*
X009453Y012032D01*
X009453Y012032D01*
X009534Y011951D01*
X009534Y011742D01*
X009736Y011742D01*
X009736Y011504D01*
X009775Y011504D01*
X010131Y011504D01*
X010131Y011621D01*
X010121Y011656D01*
X010103Y011688D01*
X010077Y011714D01*
X010045Y011733D01*
X010010Y011742D01*
X009775Y011742D01*
X009775Y011504D01*
X009775Y011465D01*
X010131Y011465D01*
X010131Y011348D01*
X010121Y011313D01*
X010103Y011281D01*
X010077Y011255D01*
X010049Y011239D01*
X010077Y011222D01*
X010103Y011196D01*
X010121Y011164D01*
X010131Y011129D01*
X010131Y011012D01*
X009775Y011012D01*
X009775Y010973D01*
X010131Y010973D01*
X010131Y010856D01*
X010121Y010821D01*
X010103Y010789D01*
X010077Y010763D01*
X010045Y010744D01*
X010010Y010735D01*
X009775Y010735D01*
X009775Y010973D01*
X009736Y010973D01*
X009736Y010735D01*
X009534Y010735D01*
X009534Y010718D01*
X010033Y010718D01*
X010091Y010660D01*
X010091Y010341D01*
X010033Y010283D01*
X009894Y010283D01*
X009894Y010226D01*
X010033Y010226D01*
X010091Y010167D01*
X010091Y009849D01*
X010033Y009791D01*
X009879Y009791D01*
X009890Y009779D01*
X009890Y009598D01*
X009762Y009469D01*
X010161Y009469D01*
X010161Y009392D02*
X009713Y009392D01*
X009713Y009469D02*
X009762Y009469D01*
X009713Y009469D02*
X009713Y009302D01*
X009691Y009281D01*
X009691Y009082D01*
X010161Y008675D01*
X010161Y013700D01*
X010154Y013771D01*
X010100Y013901D01*
X010001Y014000D01*
X009871Y014054D01*
X009801Y014061D01*
X008611Y014061D01*
X008616Y014041D01*
X008616Y013511D01*
X008320Y013511D01*
X008320Y013432D01*
X008616Y013432D01*
X008616Y012902D01*
X008607Y012867D01*
X008589Y012835D01*
X008563Y012809D01*
X008531Y012791D01*
X008495Y012781D01*
X008320Y012781D01*
X008320Y013432D01*
X008241Y013432D01*
X008241Y012781D01*
X008065Y012781D01*
X008030Y012791D01*
X007998Y012809D01*
X007972Y012835D01*
X007953Y012867D01*
X007944Y012902D01*
X007944Y013432D01*
X008241Y013432D01*
X008241Y013511D01*
X007944Y013511D01*
X007944Y014041D01*
X007949Y014061D01*
X003355Y014061D01*
X003360Y014041D01*
X003360Y013688D01*
X003005Y013688D01*
X003005Y013610D01*
X003360Y013610D01*
X003360Y013257D01*
X003351Y013221D01*
X003333Y013189D01*
X003307Y013163D01*
X003275Y013145D01*
X003239Y013136D01*
X003005Y013136D01*
X003005Y013610D01*
X002926Y013610D01*
X002570Y013610D01*
X002570Y013257D01*
X002579Y013221D01*
X002598Y013189D01*
X002624Y013163D01*
X002655Y013145D01*
X002691Y013136D01*
X002926Y013136D01*
X002926Y013610D01*
X002926Y013688D01*
X002570Y013688D01*
X002570Y014041D01*
X002575Y014061D01*
X000801Y014061D01*
X000730Y014054D01*
X000600Y014000D01*
X000501Y013901D01*
X000447Y013771D01*
X000440Y013700D01*
X000440Y012307D01*
X000446Y012310D01*
X000482Y012320D01*
X000815Y012320D01*
X000815Y011984D01*
X000894Y011984D01*
X000894Y012320D01*
X001227Y012320D01*
X001262Y012310D01*
X001294Y012292D01*
X001320Y012266D01*
X001339Y012234D01*
X001348Y012199D01*
X001348Y011984D01*
X000894Y011984D01*
X000894Y011905D01*
X001348Y011905D01*
X001348Y011690D01*
X001339Y011654D01*
X001320Y011622D01*
X001294Y011596D01*
X001262Y011578D01*
X001227Y011569D01*
X000894Y011569D01*
X000894Y011905D01*
X000815Y011905D01*
X000815Y011569D01*
X000482Y011569D01*
X000446Y011578D01*
X000440Y011582D01*
X000440Y006952D01*
X000446Y006956D01*
X000482Y006965D01*
X000815Y006965D01*
X000815Y006629D01*
X000894Y006629D01*
X001343Y006629D01*
X001343Y006560D01*
X001815Y006088D01*
X001815Y005964D01*
X001809Y005971D01*
X001707Y005971D01*
X001674Y006007D01*
X001674Y006011D01*
X001636Y006049D01*
X001600Y006089D01*
X001596Y006089D01*
X001593Y006092D01*
X001539Y006092D01*
X001485Y006095D01*
X001482Y006092D01*
X000906Y006092D01*
X000906Y006211D01*
X000903Y006214D01*
X001227Y006214D01*
X001262Y006224D01*
X001294Y006242D01*
X001320Y006268D01*
X001339Y006300D01*
X001348Y006335D01*
X001348Y006550D01*
X000894Y006550D01*
X000894Y006629D01*
X000894Y006965D01*
X001227Y006965D01*
X001262Y006956D01*
X001294Y006938D01*
X001320Y006912D01*
X001339Y006880D01*
X001343Y006863D01*
X001343Y007702D01*
X001268Y007777D01*
X001268Y007747D01*
X001140Y007619D01*
X000958Y007619D01*
X000829Y007747D01*
X000829Y007861D01*
X000556Y008135D01*
X000556Y009313D01*
X000637Y009394D01*
X001424Y010181D01*
X001660Y010181D01*
X001737Y010258D01*
X001737Y010415D01*
X001818Y010496D01*
X001975Y010654D01*
X001975Y010804D01*
X001985Y010814D01*
X001963Y010835D01*
X001945Y010867D01*
X001935Y010902D01*
X001935Y011019D01*
X002360Y011019D01*
X002360Y011058D01*
X001935Y011058D01*
X001935Y011175D01*
X001945Y011211D01*
X001963Y011242D01*
X001985Y011264D01*
X001975Y011273D01*
X001975Y011592D01*
X002034Y011650D01*
X002726Y011650D01*
X002784Y011592D01*
X002784Y011535D01*
X002957Y011363D01*
X003038Y011281D01*
X003038Y010770D01*
X003114Y010693D01*
X003195Y010612D01*
X003195Y008644D01*
X003271Y008567D01*
X003508Y008567D01*
X003589Y008486D01*
X003705Y008370D01*
X004751Y008370D01*
X004987Y008607D01*
X005873Y008607D01*
X005989Y008722D01*
X006070Y008804D01*
X006621Y008804D01*
X006815Y008998D01*
X006815Y008998D01*
X006897Y009079D01*
X008024Y009079D01*
X007984Y009120D01*
X007984Y009674D01*
X008042Y009733D01*
X008518Y009733D01*
X008576Y009674D01*
X008576Y009120D01*
X008536Y009079D01*
X009064Y009079D01*
X009058Y009086D01*
X009058Y009200D01*
X009000Y009257D01*
X009000Y009696D01*
X008920Y009791D01*
X008931Y009778D02*
X003195Y009778D01*
X003195Y009701D02*
X008010Y009701D01*
X007984Y009624D02*
X003195Y009624D01*
X003195Y009546D02*
X007984Y009546D01*
X007984Y009469D02*
X003195Y009469D01*
X003195Y009392D02*
X007984Y009392D01*
X007984Y009315D02*
X003195Y009315D01*
X003195Y009237D02*
X007984Y009237D01*
X007984Y009160D02*
X003195Y009160D01*
X003195Y009083D02*
X008021Y009083D01*
X008293Y008783D02*
X008647Y008468D01*
X008647Y007208D01*
X008175Y006736D01*
X007938Y006736D01*
X007860Y006657D01*
X007860Y006460D01*
X007707Y006302D02*
X007544Y006302D01*
X007621Y006379D02*
X007640Y006379D01*
X007640Y006369D02*
X007769Y006241D01*
X007916Y006241D01*
X007916Y006212D01*
X008001Y006127D01*
X007938Y006127D01*
X007938Y005870D01*
X007860Y005870D01*
X007860Y006127D01*
X007723Y006127D01*
X007688Y006118D01*
X007656Y006099D01*
X007630Y006073D01*
X007612Y006041D01*
X007602Y006006D01*
X007602Y005870D01*
X007860Y005870D01*
X007860Y005791D01*
X007602Y005791D01*
X007602Y005668D01*
X007303Y005668D01*
X007369Y005733D01*
X007369Y006127D01*
X007640Y006399D01*
X007640Y006369D01*
X007663Y006618D02*
X007663Y006775D01*
X007781Y006893D01*
X008096Y006893D01*
X008490Y007287D01*
X008490Y008389D01*
X008214Y008625D01*
X007112Y008625D01*
X006836Y008350D01*
X006285Y008350D01*
X006088Y008153D01*
X005497Y008153D01*
X005367Y008022D01*
X005367Y007704D01*
X004934Y007704D02*
X004934Y007983D01*
X005242Y008310D01*
X006009Y008310D01*
X006206Y008507D01*
X006757Y008507D01*
X007033Y008783D01*
X008293Y008783D01*
X008481Y008802D02*
X009106Y008802D01*
X009538Y008421D01*
X008852Y008421D01*
X008794Y008362D01*
X008794Y008141D01*
X008786Y008134D01*
X008786Y008415D01*
X008789Y008419D01*
X008786Y008472D01*
X008786Y008525D01*
X008782Y008529D01*
X008782Y008533D01*
X008742Y008569D01*
X008705Y008607D01*
X008700Y008607D01*
X008481Y008802D01*
X008512Y008774D02*
X009138Y008774D01*
X009225Y008697D02*
X008599Y008697D01*
X008685Y008619D02*
X009313Y008619D01*
X009400Y008542D02*
X008772Y008542D01*
X008786Y008465D02*
X009488Y008465D01*
X009662Y008310D02*
X009663Y008310D01*
X009662Y008233D02*
X009689Y008233D01*
X009689Y008156D02*
X009662Y008156D01*
X009662Y008079D02*
X009689Y008079D01*
X009689Y008002D02*
X009662Y008002D01*
X009689Y007924D02*
X009621Y007924D01*
X009689Y007847D02*
X009381Y007847D01*
X009457Y007770D02*
X009689Y007770D01*
X009689Y007693D02*
X009457Y007693D01*
X008794Y008156D02*
X008786Y008156D01*
X008786Y008233D02*
X008794Y008233D01*
X008786Y008310D02*
X008794Y008310D01*
X008786Y008388D02*
X008819Y008388D01*
X009061Y009083D02*
X008540Y009083D01*
X008576Y009160D02*
X009058Y009160D01*
X009020Y009237D02*
X008576Y009237D01*
X008576Y009315D02*
X009000Y009315D01*
X009000Y009392D02*
X008576Y009392D01*
X008576Y009469D02*
X009000Y009469D01*
X009000Y009546D02*
X008576Y009546D01*
X008576Y009624D02*
X009000Y009624D01*
X008996Y009701D02*
X008550Y009701D01*
X008514Y009855D02*
X003195Y009855D01*
X003195Y009933D02*
X008514Y009933D01*
X008514Y010010D02*
X003195Y010010D01*
X003195Y010087D02*
X008514Y010087D01*
X008514Y010164D02*
X003195Y010164D01*
X003195Y010241D02*
X009178Y010241D01*
X009178Y010319D02*
X009163Y010319D01*
X009316Y010397D02*
X009238Y010476D01*
X008953Y010476D01*
X008850Y010500D01*
X008560Y010705D02*
X003102Y010705D01*
X003038Y010782D02*
X008565Y010782D01*
X008572Y010775D02*
X009127Y010775D01*
X009185Y010833D01*
X009185Y011152D01*
X009127Y011210D01*
X008572Y011210D01*
X008514Y011152D01*
X008514Y010833D01*
X008572Y010775D01*
X008514Y010859D02*
X003038Y010859D01*
X003038Y010937D02*
X008514Y010937D01*
X008514Y011014D02*
X003038Y011014D01*
X003038Y011091D02*
X008514Y011091D01*
X008531Y011168D02*
X003038Y011168D01*
X003038Y011246D02*
X009256Y011246D01*
X009256Y011323D02*
X009183Y011323D01*
X009185Y011325D02*
X009185Y011644D01*
X009127Y011702D01*
X008576Y011702D01*
X008576Y012037D01*
X008518Y012095D01*
X008042Y012095D01*
X007984Y012037D01*
X007984Y011639D01*
X008042Y011581D01*
X008514Y011581D01*
X008514Y011325D01*
X008572Y011267D01*
X009127Y011267D01*
X009185Y011325D01*
X009185Y011400D02*
X009256Y011400D01*
X009256Y011477D02*
X009185Y011477D01*
X009185Y011555D02*
X009256Y011555D01*
X009256Y011632D02*
X009185Y011632D01*
X009256Y011709D02*
X008576Y011709D01*
X008576Y011786D02*
X009256Y011786D01*
X009229Y011864D02*
X009125Y011864D01*
X009277Y012011D02*
X009395Y011893D01*
X009395Y010633D01*
X009513Y010515D01*
X009740Y010515D01*
X009755Y010500D01*
X009780Y010476D01*
X009631Y010476D01*
X009755Y010500D02*
X009755Y010008D01*
X009833Y010008D01*
X009671Y009846D01*
X009671Y009688D01*
X009890Y009701D02*
X010161Y009701D01*
X010161Y009778D02*
X009890Y009778D01*
X009890Y009624D02*
X010161Y009624D01*
X010161Y009546D02*
X009839Y009546D01*
X009713Y009315D02*
X010161Y009315D01*
X010161Y009237D02*
X009691Y009237D01*
X009691Y009160D02*
X010161Y009160D01*
X010161Y009083D02*
X009691Y009083D01*
X009780Y009006D02*
X010161Y009006D01*
X010161Y008928D02*
X009869Y008928D01*
X009958Y008851D02*
X010161Y008851D01*
X010161Y008774D02*
X010047Y008774D01*
X010136Y008697D02*
X010161Y008697D01*
X010143Y008507D02*
X010143Y005240D01*
X009907Y005003D01*
X009907Y004885D01*
X009889Y004666D02*
X009998Y004666D01*
X010126Y004794D01*
X010126Y004976D01*
X010101Y005001D01*
X010161Y005062D01*
X010161Y003933D01*
X010007Y003933D01*
X009874Y003933D01*
X009874Y004115D01*
X009998Y004115D01*
X010126Y004243D01*
X010126Y004425D01*
X009998Y004553D01*
X009967Y004553D01*
X009967Y004588D01*
X009889Y004666D01*
X009952Y004603D02*
X010161Y004603D01*
X010161Y004680D02*
X010012Y004680D01*
X010089Y004757D02*
X010161Y004757D01*
X010161Y004835D02*
X010126Y004835D01*
X010126Y004912D02*
X010161Y004912D01*
X010161Y004989D02*
X010113Y004989D01*
X009986Y005318D02*
X009671Y005003D01*
X009671Y004688D01*
X009828Y004531D01*
X009828Y004413D01*
X009907Y004334D01*
X010126Y004371D02*
X010161Y004371D01*
X010161Y004294D02*
X010126Y004294D01*
X010100Y004217D02*
X010161Y004217D01*
X010161Y004139D02*
X010023Y004139D01*
X010161Y004062D02*
X009874Y004062D01*
X009874Y003985D02*
X010161Y003985D01*
X010007Y003933D02*
X010007Y003731D01*
X010007Y003933D01*
X010007Y003908D02*
X010007Y003908D01*
X010007Y003831D02*
X010007Y003831D01*
X010007Y003753D02*
X010007Y003753D01*
X010007Y003731D02*
X010007Y003731D01*
X009711Y003753D02*
X009538Y003753D01*
X009615Y003676D02*
X009711Y003676D01*
X009729Y003599D02*
X009654Y003599D01*
X009654Y003522D02*
X009751Y003522D01*
X009751Y003444D02*
X009642Y003444D01*
X009609Y003367D02*
X009751Y003367D01*
X009751Y003290D02*
X009654Y003290D01*
X009654Y003213D02*
X009751Y003213D01*
X009751Y003135D02*
X009648Y003135D01*
X009571Y003058D02*
X009751Y003058D01*
X009751Y002981D02*
X009061Y002981D01*
X009061Y002904D02*
X009751Y002904D01*
X009751Y002826D02*
X009061Y002826D01*
X009002Y002749D02*
X009751Y002749D01*
X009710Y002528D02*
X009712Y002452D01*
X009710Y002450D01*
X009710Y002129D01*
X009198Y001618D01*
X009080Y001618D01*
X008844Y001381D01*
X008726Y001381D01*
X008859Y001204D02*
X010161Y001204D01*
X010161Y001127D02*
X008309Y001127D01*
X008387Y001204D02*
X008593Y001204D01*
X008515Y001282D02*
X008433Y001282D01*
X008433Y001359D02*
X008506Y001359D01*
X008506Y001436D02*
X008430Y001436D01*
X008450Y001578D02*
X008490Y001618D01*
X008686Y001618D01*
X008805Y001736D01*
X008805Y001893D01*
X009120Y002208D01*
X009120Y002450D01*
X009318Y002452D02*
X009318Y002092D01*
X009080Y001854D01*
X009367Y001591D02*
X010161Y001591D01*
X010161Y001668D02*
X009445Y001668D01*
X009522Y001745D02*
X010161Y001745D01*
X010161Y001822D02*
X009599Y001822D01*
X009676Y001900D02*
X010161Y001900D01*
X010161Y001977D02*
X009754Y001977D01*
X009831Y002054D02*
X010161Y002054D01*
X010161Y002131D02*
X009849Y002131D01*
X009849Y002208D02*
X010161Y002208D01*
X010161Y002286D02*
X010137Y002286D01*
X009986Y002444D02*
X010007Y002501D01*
X010007Y002747D01*
X009515Y002672D02*
X009515Y002672D01*
X009515Y002595D02*
X009515Y002595D01*
X009515Y002517D02*
X009515Y002517D01*
X009515Y002452D02*
X009515Y002155D01*
X009515Y002452D01*
X009515Y002452D01*
X009515Y002440D02*
X009515Y002440D01*
X009515Y002363D02*
X009515Y002363D01*
X009515Y002286D02*
X009515Y002286D01*
X009515Y002208D02*
X009515Y002208D01*
X009515Y002155D02*
X009457Y002155D01*
X009457Y002150D01*
X009457Y002073D01*
X009539Y002155D01*
X009515Y002155D01*
X009516Y002131D02*
X009457Y002131D01*
X009290Y001513D02*
X010161Y001513D01*
X010161Y001436D02*
X009095Y001436D01*
X009018Y001359D02*
X010161Y001359D01*
X010161Y001282D02*
X008940Y001282D01*
X008450Y001578D02*
X008135Y001578D01*
X007938Y001381D01*
X007742Y001381D01*
X007623Y001499D01*
X007151Y001499D01*
X007112Y001539D01*
X007112Y001929D01*
X007108Y001933D01*
X007250Y001732D02*
X007267Y001715D01*
X007665Y001715D01*
X007674Y001724D01*
X007695Y001703D01*
X007727Y001685D01*
X007763Y001675D01*
X007899Y001675D01*
X007899Y001933D01*
X007978Y001933D01*
X007978Y001675D01*
X008036Y001675D01*
X007997Y001636D01*
X007881Y001520D01*
X007799Y001520D01*
X007681Y001638D01*
X007250Y001638D01*
X007250Y001732D01*
X007250Y001668D02*
X008029Y001668D01*
X007978Y001745D02*
X007899Y001745D01*
X007899Y001822D02*
X007978Y001822D01*
X007978Y001900D02*
X007899Y001900D01*
X007938Y001972D02*
X008057Y002051D01*
X008057Y001814D01*
X007860Y001618D01*
X007951Y001591D02*
X007729Y001591D01*
X007545Y001342D02*
X007663Y001224D01*
X008096Y001224D01*
X008214Y001342D01*
X008135Y001263D01*
X008450Y001854D02*
X008253Y002051D01*
X008253Y002169D01*
X008175Y002247D01*
X008057Y002247D01*
X007860Y002444D01*
X007860Y002641D01*
X007747Y002754D01*
X007419Y002754D01*
X007419Y002557D02*
X007493Y002562D01*
X007112Y002562D01*
X006994Y002681D01*
X006994Y002877D01*
X006994Y003055D01*
X006915Y003133D01*
X006560Y003133D01*
X006442Y003015D01*
X006442Y002936D01*
X006364Y002838D01*
X006364Y002602D01*
X006632Y002333D01*
X006632Y001770D01*
X006435Y001770D02*
X006435Y002145D01*
X006358Y002145D01*
X006322Y002136D01*
X006290Y002117D01*
X006278Y002105D01*
X005823Y002105D01*
X005914Y002196D01*
X005914Y002378D01*
X005847Y002444D01*
X005909Y002506D01*
X006026Y002389D01*
X006026Y002275D01*
X006155Y002146D01*
X006336Y002146D01*
X006465Y002275D01*
X006465Y002304D01*
X006493Y002276D01*
X006493Y002145D01*
X006435Y002145D01*
X006435Y001770D01*
X006435Y001770D01*
X006435Y001770D01*
X006435Y001394D01*
X006435Y001770D01*
X006435Y001745D02*
X006435Y001745D01*
X006435Y001668D02*
X006435Y001668D01*
X006435Y001591D02*
X006435Y001591D01*
X006435Y001513D02*
X006435Y001513D01*
X006435Y001436D02*
X006435Y001436D01*
X006483Y001359D02*
X006340Y001359D01*
X006263Y001282D02*
X006483Y001282D01*
X006483Y001204D02*
X006187Y001204D01*
X006187Y001127D02*
X006525Y001127D01*
X006540Y001050D02*
X006150Y001050D01*
X006072Y000973D02*
X006540Y000973D01*
X006540Y000895D02*
X005995Y000895D01*
X005918Y000818D02*
X006589Y000818D01*
X007004Y000818D02*
X007005Y000818D01*
X007230Y000818D02*
X007309Y000818D01*
X007309Y000895D02*
X007230Y000895D01*
X007230Y000973D02*
X007309Y000973D01*
X007309Y001050D02*
X010161Y001050D01*
X010161Y000973D02*
X007566Y000973D01*
X007566Y000895D02*
X010161Y000895D01*
X010161Y000818D02*
X007533Y000818D01*
X007545Y001342D02*
X006994Y001342D01*
X006875Y001460D01*
X006875Y002444D01*
X006679Y002641D01*
X006679Y002799D01*
X006401Y003170D02*
X006345Y003226D01*
X006345Y003493D01*
X006426Y003574D01*
X006426Y003756D01*
X006297Y003884D01*
X006115Y003884D01*
X005987Y003756D01*
X005987Y003574D01*
X006067Y003493D01*
X006067Y003226D01*
X005987Y003145D01*
X005987Y002964D01*
X006115Y002835D01*
X006224Y002835D01*
X006225Y002830D01*
X006225Y002585D01*
X006222Y002585D01*
X005791Y003016D01*
X005674Y003016D01*
X005683Y003028D01*
X005718Y003098D01*
X005742Y003172D01*
X005754Y003248D01*
X005754Y003602D01*
X005300Y003602D01*
X005300Y003681D01*
X005221Y003681D01*
X005221Y003602D01*
X004767Y003602D01*
X004767Y003248D01*
X004779Y003172D01*
X004803Y003098D01*
X004838Y003028D01*
X004884Y002966D01*
X004912Y002937D01*
X004653Y002937D01*
X004571Y002856D01*
X004101Y002386D01*
X004101Y003486D01*
X003956Y003630D01*
X004053Y003630D01*
X004181Y003759D01*
X004181Y003941D01*
X004101Y004021D01*
X004101Y004080D01*
X004352Y004331D01*
X004466Y004331D01*
X004595Y004460D01*
X004595Y004506D01*
X006735Y004506D01*
X006735Y004361D01*
X006863Y004233D01*
X007045Y004233D01*
X007084Y004272D01*
X007084Y003161D01*
X007054Y003191D01*
X006972Y003272D01*
X006503Y003272D01*
X006422Y003191D01*
X006422Y003191D01*
X006401Y003170D01*
X006358Y003213D02*
X006444Y003213D01*
X006345Y003290D02*
X007084Y003290D01*
X007084Y003367D02*
X006345Y003367D01*
X006345Y003444D02*
X007084Y003444D01*
X007084Y003522D02*
X006373Y003522D01*
X006426Y003599D02*
X007084Y003599D01*
X007084Y003676D02*
X006426Y003676D01*
X006426Y003753D02*
X007084Y003753D01*
X007084Y003831D02*
X006351Y003831D01*
X006206Y003665D02*
X006206Y003055D01*
X006054Y003213D02*
X005749Y003213D01*
X005754Y003290D02*
X006067Y003290D01*
X006067Y003367D02*
X005754Y003367D01*
X005754Y003444D02*
X006067Y003444D01*
X006039Y003522D02*
X005754Y003522D01*
X005754Y003599D02*
X005987Y003599D01*
X005987Y003676D02*
X005300Y003676D01*
X005300Y003681D02*
X005754Y003681D01*
X005754Y004035D01*
X005742Y004111D01*
X005718Y004185D01*
X005683Y004255D01*
X005637Y004317D01*
X005582Y004372D01*
X005519Y004418D01*
X005450Y004453D01*
X005376Y004477D01*
X005300Y004489D01*
X005300Y003681D01*
X005300Y003753D02*
X005221Y003753D01*
X005221Y003681D02*
X005221Y004489D01*
X005145Y004477D01*
X005071Y004453D01*
X005002Y004418D01*
X004939Y004372D01*
X004884Y004317D01*
X004838Y004255D01*
X004803Y004185D01*
X004779Y004111D01*
X004767Y004035D01*
X004767Y003681D01*
X005221Y003681D01*
X005221Y003676D02*
X004098Y003676D01*
X004176Y003753D02*
X004767Y003753D01*
X004767Y003831D02*
X004181Y003831D01*
X004181Y003908D02*
X004767Y003908D01*
X004767Y003985D02*
X004137Y003985D01*
X004101Y004062D02*
X004771Y004062D01*
X004788Y004139D02*
X004161Y004139D01*
X004238Y004217D02*
X004819Y004217D01*
X004867Y004294D02*
X004315Y004294D01*
X004506Y004371D02*
X004938Y004371D01*
X005062Y004448D02*
X004583Y004448D01*
X004470Y004645D02*
X004375Y004551D01*
X003962Y004137D01*
X003962Y003850D01*
X003988Y003599D02*
X004767Y003599D01*
X004767Y003522D02*
X004065Y003522D01*
X004101Y003444D02*
X004767Y003444D01*
X004767Y003367D02*
X004101Y003367D01*
X004101Y003290D02*
X004767Y003290D01*
X004773Y003213D02*
X004101Y003213D01*
X004101Y003135D02*
X004791Y003135D01*
X004823Y003058D02*
X004101Y003058D01*
X004101Y002981D02*
X004873Y002981D01*
X004710Y002799D02*
X005497Y002799D01*
X005616Y002877D01*
X005734Y002877D01*
X006246Y002366D01*
X006399Y002208D02*
X006493Y002208D01*
X006483Y002286D02*
X006465Y002286D01*
X006435Y002131D02*
X006435Y002131D01*
X006435Y002054D02*
X006435Y002054D01*
X006435Y001977D02*
X006435Y001977D01*
X006435Y001900D02*
X006435Y001900D01*
X006435Y001822D02*
X006435Y001822D01*
X006246Y001762D02*
X006238Y001770D01*
X006246Y001723D01*
X006246Y001762D02*
X006246Y001460D01*
X006049Y001263D01*
X006049Y001145D01*
X005458Y000555D01*
X002505Y000555D01*
X001915Y001145D01*
X001915Y001460D01*
X001718Y001657D01*
X001639Y001657D01*
X001718Y001814D02*
X001797Y001814D01*
X002072Y001539D01*
X002072Y001224D01*
X002584Y000712D01*
X005379Y000712D01*
X005852Y001184D01*
X005852Y001303D01*
X006049Y001499D01*
X006049Y001762D01*
X006041Y001770D01*
X006049Y001723D01*
X005849Y002131D02*
X006314Y002131D01*
X006092Y002208D02*
X005914Y002208D01*
X005914Y002286D02*
X006026Y002286D01*
X006026Y002363D02*
X005914Y002363D01*
X005975Y002440D02*
X005851Y002440D01*
X005694Y002287D02*
X004671Y002287D01*
X004474Y002090D01*
X004474Y001738D01*
X004270Y001770D02*
X004270Y002122D01*
X004749Y002602D01*
X005694Y002602D01*
X005904Y002904D02*
X006047Y002904D01*
X005987Y002981D02*
X005826Y002981D01*
X005698Y003058D02*
X005987Y003058D01*
X005987Y003135D02*
X005730Y003135D01*
X005981Y002826D02*
X006225Y002826D01*
X006225Y002749D02*
X006058Y002749D01*
X006135Y002672D02*
X006225Y002672D01*
X006213Y002595D02*
X006225Y002595D01*
X005648Y001770D02*
X005655Y001762D01*
X005655Y001224D01*
X005301Y000870D01*
X002663Y000870D01*
X002230Y001303D01*
X002230Y001618D01*
X001875Y001972D01*
X001797Y001972D01*
X001639Y002129D01*
X001639Y003074D01*
X001915Y003350D01*
X001915Y003921D01*
X002053Y004059D01*
X002053Y004531D01*
X001915Y004669D01*
X001915Y005141D01*
X002269Y005496D01*
X002269Y006303D01*
X001797Y006775D01*
X001797Y008114D01*
X001403Y008507D01*
X001227Y008641D02*
X001312Y008727D01*
X001494Y008727D01*
X001500Y008720D01*
X001500Y008958D01*
X001582Y009040D01*
X001739Y009197D01*
X001975Y009197D01*
X001975Y009229D01*
X002013Y009267D01*
X001975Y009305D01*
X001975Y009313D01*
X001500Y009313D01*
X001227Y009040D01*
X001227Y008641D01*
X001227Y008697D02*
X001282Y008697D01*
X001227Y008774D02*
X001500Y008774D01*
X001500Y008851D02*
X001227Y008851D01*
X001227Y008928D02*
X001500Y008928D01*
X001548Y009006D02*
X001227Y009006D01*
X001269Y009083D02*
X001625Y009083D01*
X001702Y009160D02*
X001346Y009160D01*
X001424Y009237D02*
X001983Y009237D01*
X001797Y009059D02*
X001639Y008901D01*
X001639Y008586D01*
X001954Y008271D01*
X001954Y006854D01*
X002427Y006381D01*
X002427Y005436D01*
X002072Y005082D01*
X002072Y004728D01*
X002210Y004590D01*
X002210Y003980D01*
X002072Y003842D01*
X002072Y003271D01*
X001797Y002996D01*
X001797Y002208D01*
X001875Y002129D01*
X001954Y002129D01*
X002387Y001696D01*
X002387Y001381D01*
X002742Y001027D01*
X005222Y001027D01*
X005458Y001263D01*
X005458Y001762D01*
X005451Y001770D01*
X005319Y001434D02*
X005319Y001321D01*
X005164Y001166D01*
X003353Y001166D01*
X003353Y001166D01*
X003353Y001303D01*
X003096Y001303D01*
X003096Y001381D01*
X003353Y001381D01*
X003353Y001518D01*
X003344Y001553D01*
X003326Y001585D01*
X003304Y001606D01*
X003313Y001616D01*
X003313Y002013D01*
X003255Y002071D01*
X003195Y002071D01*
X003195Y002425D01*
X003227Y002457D01*
X003227Y002812D01*
X003345Y002812D01*
X003390Y002857D01*
X003783Y002857D01*
X003823Y002897D01*
X003823Y002386D01*
X003708Y002386D01*
X003629Y002307D01*
X003548Y002226D01*
X003548Y002074D01*
X003521Y002047D01*
X003521Y001492D01*
X003579Y001434D01*
X005319Y001434D01*
X005319Y001359D02*
X003096Y001359D01*
X003017Y001359D02*
X002606Y001359D01*
X002529Y001436D02*
X002760Y001436D01*
X002760Y001381D02*
X003017Y001381D01*
X003017Y001303D01*
X002760Y001303D01*
X002760Y001205D01*
X002526Y001439D01*
X002526Y001754D01*
X002445Y001835D01*
X002230Y002050D01*
X002230Y002247D01*
X002309Y002247D01*
X002309Y001990D01*
X002445Y001990D01*
X002480Y001999D01*
X002512Y002018D01*
X002538Y002044D01*
X002556Y002076D01*
X002565Y002107D01*
X002714Y002107D01*
X002843Y002235D01*
X002843Y002312D01*
X002918Y002387D01*
X002918Y002071D01*
X002858Y002071D01*
X002800Y002013D01*
X002800Y001616D01*
X002809Y001606D01*
X002788Y001585D01*
X002769Y001553D01*
X002760Y001518D01*
X002760Y001381D01*
X002760Y001282D02*
X002683Y001282D01*
X002760Y001513D02*
X002526Y001513D01*
X002526Y001591D02*
X002793Y001591D01*
X002800Y001668D02*
X002526Y001668D01*
X002526Y001745D02*
X002800Y001745D01*
X002800Y001822D02*
X002457Y001822D01*
X002380Y001900D02*
X002800Y001900D01*
X002800Y001977D02*
X002303Y001977D01*
X002309Y002054D02*
X002230Y002054D01*
X002230Y002131D02*
X002309Y002131D01*
X002309Y002208D02*
X002230Y002208D01*
X002230Y002247D02*
X002032Y002247D01*
X002012Y002268D01*
X001935Y002268D01*
X001935Y002938D01*
X002130Y003132D01*
X002211Y003214D01*
X002211Y003784D01*
X002268Y003841D01*
X002349Y003922D01*
X002349Y004647D01*
X002211Y004785D01*
X002211Y005025D01*
X002227Y005041D01*
X002227Y005031D01*
X002355Y004902D01*
X002469Y004902D01*
X002556Y004815D01*
X002556Y003329D01*
X002414Y003329D01*
X002286Y003201D01*
X002286Y003019D01*
X002289Y003016D01*
X002070Y003016D01*
X002012Y002958D01*
X002012Y002561D01*
X002022Y002551D01*
X002000Y002530D01*
X001982Y002498D01*
X001972Y002463D01*
X001972Y002326D01*
X002230Y002326D01*
X002230Y002247D01*
X002230Y002286D02*
X001935Y002286D01*
X001935Y002363D02*
X001972Y002363D01*
X001972Y002440D02*
X001935Y002440D01*
X001935Y002517D02*
X001993Y002517D01*
X002012Y002595D02*
X001935Y002595D01*
X001935Y002672D02*
X002012Y002672D01*
X002012Y002749D02*
X001935Y002749D01*
X001935Y002826D02*
X002012Y002826D01*
X002012Y002904D02*
X001935Y002904D01*
X001978Y002981D02*
X002035Y002981D01*
X002056Y003058D02*
X002286Y003058D01*
X002286Y003135D02*
X002133Y003135D01*
X002210Y003213D02*
X002298Y003213D01*
X002375Y003290D02*
X002211Y003290D01*
X002211Y003367D02*
X002556Y003367D01*
X002556Y003444D02*
X002211Y003444D01*
X002211Y003522D02*
X002556Y003522D01*
X002556Y003599D02*
X002211Y003599D01*
X002211Y003676D02*
X002556Y003676D01*
X002556Y003753D02*
X002211Y003753D01*
X002257Y003831D02*
X002556Y003831D01*
X002556Y003908D02*
X002334Y003908D01*
X002349Y003985D02*
X002556Y003985D01*
X002556Y004062D02*
X002349Y004062D01*
X002349Y004139D02*
X002556Y004139D01*
X002556Y004217D02*
X002349Y004217D01*
X002349Y004294D02*
X002556Y004294D01*
X002556Y004371D02*
X002349Y004371D01*
X002349Y004448D02*
X002556Y004448D01*
X002556Y004526D02*
X002349Y004526D01*
X002349Y004603D02*
X002556Y004603D01*
X002556Y004680D02*
X002316Y004680D01*
X002239Y004757D02*
X002556Y004757D01*
X002537Y004835D02*
X002211Y004835D01*
X002211Y004912D02*
X002346Y004912D01*
X002268Y004989D02*
X002211Y004989D01*
X002446Y005121D02*
X002643Y004925D01*
X002976Y004925D01*
X002892Y004919D01*
X002976Y004925D02*
X003044Y004925D01*
X002892Y005116D02*
X003209Y005116D01*
X003332Y005240D01*
X003627Y005417D02*
X003686Y005417D01*
X003805Y005299D01*
X003805Y005023D01*
X003504Y004722D01*
X002892Y004722D01*
X002892Y004526D02*
X003524Y004526D01*
X004060Y005043D01*
X004060Y005358D01*
X003942Y005476D01*
X004041Y005712D02*
X003450Y005712D01*
X003332Y005830D01*
X002742Y005830D01*
X002584Y005988D01*
X002584Y006897D01*
X002380Y007102D01*
X002401Y006884D02*
X002120Y006884D01*
X002445Y006559D01*
X002445Y006840D01*
X002401Y006884D01*
X002442Y006843D02*
X002161Y006843D01*
X002238Y006766D02*
X002445Y006766D01*
X002445Y006688D02*
X002316Y006688D01*
X002393Y006611D02*
X002445Y006611D01*
X002742Y006854D02*
X002742Y006066D01*
X002820Y005988D01*
X003411Y005988D01*
X003529Y005870D01*
X004100Y005870D01*
X004375Y005594D01*
X004375Y004885D01*
X004001Y004531D01*
X003726Y004255D01*
X003726Y003665D01*
X003962Y003429D01*
X003962Y002326D01*
X003883Y002247D01*
X003765Y002247D01*
X003686Y002169D01*
X003686Y001777D01*
X003679Y001770D01*
X003521Y001745D02*
X003313Y001745D01*
X003313Y001668D02*
X003521Y001668D01*
X003521Y001591D02*
X003320Y001591D01*
X003353Y001513D02*
X003521Y001513D01*
X003577Y001436D02*
X003353Y001436D01*
X003353Y001282D02*
X005280Y001282D01*
X005203Y001204D02*
X003353Y001204D01*
X003313Y001822D02*
X003521Y001822D01*
X003521Y001900D02*
X003313Y001900D01*
X003313Y001977D02*
X003521Y001977D01*
X003528Y002054D02*
X003272Y002054D01*
X003195Y002131D02*
X003548Y002131D01*
X003548Y002208D02*
X003195Y002208D01*
X003195Y002286D02*
X003607Y002286D01*
X003684Y002363D02*
X003195Y002363D01*
X003211Y002440D02*
X003823Y002440D01*
X003823Y002517D02*
X003227Y002517D01*
X003227Y002595D02*
X003823Y002595D01*
X003823Y002672D02*
X003227Y002672D01*
X003227Y002749D02*
X003823Y002749D01*
X003823Y002826D02*
X003359Y002826D01*
X003287Y002951D02*
X003332Y002996D01*
X003726Y002996D01*
X003805Y003074D01*
X003805Y003350D01*
X003568Y003586D01*
X003568Y004334D01*
X003844Y004610D01*
X004218Y004964D01*
X004218Y005535D01*
X004041Y005712D01*
X004250Y005916D02*
X004722Y005916D01*
X004722Y005962D02*
X004722Y005857D01*
X004668Y005803D01*
X004668Y005621D01*
X004796Y005493D01*
X004978Y005493D01*
X005107Y005621D01*
X005107Y005803D01*
X004999Y005910D01*
X004999Y005962D01*
X005319Y005962D01*
X005319Y005576D01*
X005401Y005495D01*
X005834Y005061D01*
X006070Y005061D01*
X006306Y004825D01*
X006854Y004825D01*
X006935Y004907D01*
X007084Y005055D01*
X007084Y004879D01*
X007072Y004867D01*
X007053Y004835D01*
X006864Y004835D01*
X006882Y004784D02*
X004470Y004784D01*
X004472Y004786D01*
X004513Y004824D01*
X004513Y004826D01*
X004514Y004828D01*
X004514Y004883D01*
X004516Y004939D01*
X004514Y004941D01*
X004514Y005651D01*
X004204Y005962D01*
X004722Y005962D01*
X004704Y005839D02*
X004327Y005839D01*
X004404Y005762D02*
X004668Y005762D01*
X004668Y005684D02*
X004481Y005684D01*
X004514Y005607D02*
X004682Y005607D01*
X004759Y005530D02*
X004514Y005530D01*
X004514Y005453D02*
X005443Y005453D01*
X005365Y005530D02*
X005015Y005530D01*
X005092Y005607D02*
X005319Y005607D01*
X005319Y005684D02*
X005107Y005684D01*
X005107Y005762D02*
X005319Y005762D01*
X005319Y005839D02*
X005071Y005839D01*
X004999Y005916D02*
X005319Y005916D01*
X005458Y005633D02*
X005458Y006211D01*
X005451Y006297D01*
X005648Y006297D02*
X005655Y006251D01*
X005655Y005712D01*
X005970Y005397D01*
X006167Y005397D01*
X006442Y005121D01*
X006718Y005121D01*
X006915Y005318D01*
X006915Y005712D01*
X007072Y005870D01*
X007072Y006342D01*
X007112Y006381D01*
X007112Y006696D01*
X007623Y007208D01*
X007938Y007208D01*
X008175Y007444D01*
X008175Y008192D01*
X008057Y008310D01*
X007269Y008310D01*
X007099Y008140D01*
X007099Y007704D01*
X007238Y008040D02*
X007238Y008083D01*
X007327Y008172D01*
X007999Y008172D01*
X008036Y008135D01*
X008036Y008080D01*
X007936Y008080D01*
X007936Y007734D01*
X007877Y007734D01*
X007877Y008080D01*
X007750Y008080D01*
X007715Y008070D01*
X007683Y008052D01*
X007671Y008040D01*
X007353Y008040D01*
X007316Y008002D01*
X007278Y008040D01*
X007238Y008040D01*
X007238Y008079D02*
X007747Y008079D01*
X007877Y008079D02*
X007936Y008079D01*
X007936Y008002D02*
X007877Y008002D01*
X007877Y007924D02*
X007936Y007924D01*
X007936Y007847D02*
X007877Y007847D01*
X007877Y007770D02*
X007936Y007770D01*
X007936Y007674D02*
X007936Y007402D01*
X007881Y007347D01*
X007877Y007347D01*
X007877Y007674D01*
X007936Y007674D01*
X007936Y007615D02*
X007877Y007615D01*
X007877Y007538D02*
X007936Y007538D01*
X007936Y007461D02*
X007877Y007461D01*
X007877Y007384D02*
X007918Y007384D01*
X007860Y007366D02*
X007584Y007366D01*
X007545Y007366D01*
X007505Y007326D01*
X007505Y007287D01*
X007466Y007247D01*
X007309Y007247D01*
X007371Y007152D02*
X007172Y007152D01*
X007172Y007090D02*
X007172Y007226D01*
X007163Y007262D01*
X007144Y007294D01*
X007118Y007320D01*
X007087Y007338D01*
X007051Y007347D01*
X006915Y007347D01*
X006915Y007090D01*
X007172Y007090D01*
X007172Y007011D02*
X007172Y006953D01*
X007566Y007347D01*
X007699Y007347D01*
X007683Y007356D01*
X007671Y007368D01*
X007353Y007368D01*
X007316Y007406D01*
X007278Y007368D01*
X006920Y007368D01*
X006911Y007378D01*
X006889Y007356D01*
X006858Y007338D01*
X006836Y007332D01*
X006836Y007090D01*
X006915Y007090D01*
X006915Y007011D01*
X007172Y007011D01*
X007172Y006997D02*
X007217Y006997D01*
X007294Y007075D02*
X006915Y007075D01*
X006915Y007011D02*
X006836Y007011D01*
X006836Y006754D01*
X006700Y006754D01*
X006664Y006763D01*
X006632Y006782D01*
X006611Y006803D01*
X006602Y006794D01*
X006500Y006794D01*
X006421Y006715D01*
X006379Y006673D01*
X006435Y006673D01*
X006435Y006297D01*
X006435Y006297D01*
X006435Y005922D01*
X006358Y005922D01*
X006347Y005924D01*
X006421Y005851D01*
X006421Y005851D01*
X006502Y005770D01*
X006502Y005691D01*
X006537Y005656D01*
X006651Y005656D01*
X006776Y005531D01*
X006776Y005770D01*
X006934Y005927D01*
X006934Y006399D01*
X006973Y006439D01*
X006973Y006754D01*
X006973Y006754D01*
X006915Y006754D01*
X006915Y007011D01*
X006915Y006997D02*
X006836Y006997D01*
X006836Y006920D02*
X006915Y006920D01*
X006915Y006843D02*
X006836Y006843D01*
X006836Y006766D02*
X006915Y006766D01*
X006973Y006688D02*
X006394Y006688D01*
X006435Y006673D02*
X006435Y006297D01*
X006435Y005922D01*
X006513Y005922D01*
X006548Y005931D01*
X006580Y005949D01*
X006592Y005962D01*
X006732Y005962D01*
X006790Y006020D01*
X006790Y006575D01*
X006732Y006633D01*
X006592Y006633D01*
X006580Y006645D01*
X006548Y006663D01*
X006513Y006673D01*
X006435Y006673D01*
X006435Y006611D02*
X006435Y006611D01*
X006435Y006534D02*
X006435Y006534D01*
X006435Y006457D02*
X006435Y006457D01*
X006435Y006379D02*
X006435Y006379D01*
X006435Y006302D02*
X006435Y006302D01*
X006435Y006297D02*
X006435Y006297D01*
X006435Y006225D02*
X006435Y006225D01*
X006435Y006148D02*
X006435Y006148D01*
X006435Y006071D02*
X006435Y006071D01*
X006435Y005993D02*
X006435Y005993D01*
X006356Y005916D02*
X006923Y005916D01*
X006934Y005993D02*
X006764Y005993D01*
X006790Y006071D02*
X006934Y006071D01*
X006934Y006148D02*
X006790Y006148D01*
X006790Y006225D02*
X006934Y006225D01*
X006934Y006302D02*
X006790Y006302D01*
X006790Y006379D02*
X006934Y006379D01*
X006973Y006457D02*
X006790Y006457D01*
X006790Y006534D02*
X006973Y006534D01*
X006973Y006611D02*
X006754Y006611D01*
X006660Y006766D02*
X006472Y006766D01*
X006364Y006854D02*
X006364Y007011D01*
X006403Y007051D01*
X006364Y006854D02*
X006238Y006728D01*
X006238Y006297D01*
X006041Y006297D02*
X006041Y006034D01*
X006364Y005712D01*
X006364Y005633D01*
X006560Y005436D01*
X006700Y005607D02*
X006776Y005607D01*
X006776Y005684D02*
X006509Y005684D01*
X006502Y005762D02*
X006776Y005762D01*
X006845Y005839D02*
X006433Y005839D01*
X006049Y005712D02*
X005845Y005916D01*
X005845Y006297D01*
X005458Y005633D02*
X005891Y005200D01*
X006127Y005200D01*
X006364Y004964D01*
X006797Y004964D01*
X007072Y005240D01*
X007072Y005633D01*
X007230Y005791D01*
X007230Y006184D01*
X007663Y006618D01*
X007466Y006225D02*
X007916Y006225D01*
X007980Y006148D02*
X007389Y006148D01*
X007369Y006071D02*
X007628Y006071D01*
X007602Y005993D02*
X007369Y005993D01*
X007369Y005916D02*
X007602Y005916D01*
X007602Y005762D02*
X007369Y005762D01*
X007369Y005839D02*
X007860Y005839D01*
X007860Y005916D02*
X007938Y005916D01*
X007938Y005993D02*
X007860Y005993D01*
X007860Y006071D02*
X007938Y006071D01*
X008135Y006303D02*
X008175Y006263D01*
X008175Y005594D01*
X008135Y005555D01*
X008135Y005436D01*
X008057Y005358D01*
X007899Y005358D01*
X007840Y005318D01*
X007840Y004964D01*
X007795Y004919D01*
X007419Y004919D01*
X007419Y004722D02*
X007419Y004722D01*
X007044Y004722D01*
X007044Y004672D01*
X006994Y004672D01*
X006963Y004703D01*
X006882Y004784D01*
X006908Y004757D02*
X007044Y004757D01*
X007044Y004722D02*
X007419Y004722D01*
X007084Y004912D02*
X006941Y004912D01*
X007018Y004989D02*
X007084Y004989D01*
X007053Y004835D02*
X007044Y004800D01*
X007044Y004722D01*
X007044Y004680D02*
X006985Y004680D01*
X006824Y004645D02*
X006954Y004515D01*
X006954Y004452D01*
X006802Y004294D02*
X005654Y004294D01*
X005702Y004217D02*
X007084Y004217D01*
X007084Y004139D02*
X005733Y004139D01*
X005750Y004062D02*
X007084Y004062D01*
X007084Y003985D02*
X005754Y003985D01*
X005754Y003908D02*
X007084Y003908D01*
X006735Y004371D02*
X005583Y004371D01*
X005460Y004448D02*
X006735Y004448D01*
X006824Y004645D02*
X004470Y004645D01*
X004514Y004835D02*
X006297Y004835D01*
X006220Y004912D02*
X004515Y004912D01*
X004514Y004989D02*
X006142Y004989D01*
X005829Y005066D02*
X004514Y005066D01*
X004514Y005144D02*
X005752Y005144D01*
X005674Y005221D02*
X004514Y005221D01*
X004514Y005298D02*
X005597Y005298D01*
X005520Y005375D02*
X004514Y005375D01*
X004860Y005739D02*
X004887Y005712D01*
X004860Y005739D02*
X004860Y006297D01*
X004980Y006688D02*
X005071Y006688D01*
X005066Y006766D02*
X004987Y006766D01*
X004987Y006843D02*
X005066Y006843D01*
X005066Y006997D02*
X004987Y006997D01*
X004263Y007538D02*
X004227Y007538D01*
X004227Y007615D02*
X004263Y007615D01*
X004263Y007693D02*
X003930Y007693D01*
X003930Y007770D02*
X003851Y007770D01*
X003851Y007743D02*
X003851Y008080D01*
X003675Y008080D01*
X003640Y008070D01*
X003608Y008052D01*
X003582Y008026D01*
X003564Y007994D01*
X003554Y007959D01*
X003554Y007743D01*
X003851Y007743D01*
X003851Y007693D02*
X003394Y007693D01*
X003433Y007615D02*
X003554Y007615D01*
X003554Y007538D02*
X003435Y007538D01*
X003317Y007770D02*
X003554Y007770D01*
X003554Y007847D02*
X002784Y007847D01*
X002784Y007770D02*
X003111Y007770D01*
X003034Y007693D02*
X002747Y007693D01*
X002784Y007615D02*
X002995Y007615D01*
X002995Y007538D02*
X002844Y007538D01*
X002921Y007461D02*
X003005Y007461D01*
X002959Y007423D02*
X002959Y007072D01*
X002983Y007086D01*
X003019Y007096D01*
X003155Y007096D01*
X003155Y006838D01*
X003234Y006838D01*
X003491Y006838D01*
X003491Y006974D01*
X003482Y007010D01*
X003463Y007042D01*
X003437Y007068D01*
X003406Y007086D01*
X003370Y007096D01*
X003234Y007096D01*
X003234Y006838D01*
X003234Y006759D01*
X003491Y006759D01*
X003491Y006623D01*
X003482Y006587D01*
X003463Y006556D01*
X003442Y006534D01*
X003521Y006534D01*
X003521Y006575D02*
X003521Y006465D01*
X003451Y006465D01*
X003451Y006525D01*
X003442Y006534D01*
X003521Y006575D02*
X003548Y006602D01*
X003548Y006675D01*
X003669Y006797D01*
X003625Y006842D01*
X003625Y007023D01*
X003753Y007152D01*
X003935Y007152D01*
X003844Y006933D02*
X003844Y006775D01*
X003686Y006618D01*
X003686Y006304D01*
X003679Y006297D02*
X003690Y006326D01*
X003194Y006326D01*
X002937Y006302D02*
X002880Y006302D01*
X002880Y006225D02*
X002937Y006225D01*
X002937Y006148D02*
X002880Y006148D01*
X002880Y006126D02*
X002880Y006796D01*
X002922Y006838D01*
X003155Y006838D01*
X003155Y006759D01*
X002897Y006759D01*
X002897Y006623D01*
X002907Y006587D01*
X002925Y006556D01*
X002947Y006534D01*
X002937Y006525D01*
X002937Y006128D01*
X002939Y006126D01*
X002880Y006126D01*
X002880Y006379D02*
X002937Y006379D01*
X002937Y006457D02*
X002880Y006457D01*
X002880Y006534D02*
X002947Y006534D01*
X002901Y006611D02*
X002880Y006611D01*
X002880Y006688D02*
X002897Y006688D01*
X002880Y006766D02*
X003155Y006766D01*
X003155Y006843D02*
X003234Y006843D01*
X003234Y006920D02*
X003155Y006920D01*
X003155Y006997D02*
X003234Y006997D01*
X003234Y007075D02*
X003155Y007075D01*
X002963Y007075D02*
X002959Y007075D01*
X002959Y007152D02*
X003753Y007152D01*
X003676Y007075D02*
X003425Y007075D01*
X003485Y006997D02*
X003625Y006997D01*
X003625Y006920D02*
X003491Y006920D01*
X003491Y006843D02*
X003625Y006843D01*
X003638Y006766D02*
X003234Y006766D01*
X003491Y006688D02*
X003561Y006688D01*
X003548Y006611D02*
X003488Y006611D01*
X003883Y006578D02*
X003883Y006265D01*
X003883Y006578D02*
X004041Y006736D01*
X004080Y006736D01*
X004218Y006893D01*
X004227Y007770D02*
X004263Y007770D01*
X004263Y007847D02*
X004227Y007847D01*
X004227Y007924D02*
X004263Y007924D01*
X004284Y008002D02*
X004213Y008002D01*
X004109Y008079D02*
X004833Y008079D01*
X004768Y008388D02*
X003687Y008388D01*
X003610Y008465D02*
X004846Y008465D01*
X004923Y008542D02*
X003533Y008542D01*
X003449Y008233D02*
X002784Y008233D01*
X002784Y008156D02*
X003527Y008156D01*
X003568Y008002D02*
X002784Y008002D01*
X002784Y007924D02*
X003554Y007924D01*
X003672Y008079D02*
X002754Y008079D01*
X002784Y008310D02*
X003136Y008310D01*
X003057Y008586D02*
X003057Y010555D01*
X002899Y010712D01*
X002899Y011224D01*
X002702Y011421D01*
X002392Y011421D01*
X002016Y011632D02*
X001326Y011632D01*
X001348Y011709D02*
X007984Y011709D01*
X007984Y011786D02*
X001348Y011786D01*
X001348Y011864D02*
X007984Y011864D01*
X007984Y011941D02*
X000894Y011941D01*
X000894Y012018D02*
X000815Y012018D01*
X000815Y012095D02*
X000894Y012095D01*
X000894Y012172D02*
X000815Y012172D01*
X000815Y012250D02*
X000894Y012250D01*
X000894Y011864D02*
X000815Y011864D01*
X000815Y011786D02*
X000894Y011786D01*
X000894Y011709D02*
X000815Y011709D01*
X000815Y011632D02*
X000894Y011632D01*
X000440Y011555D02*
X001975Y011555D01*
X001975Y011477D02*
X000440Y011477D01*
X000440Y011400D02*
X001975Y011400D01*
X001975Y011323D02*
X000440Y011323D01*
X000440Y011246D02*
X001967Y011246D01*
X001935Y011168D02*
X000440Y011168D01*
X000440Y011091D02*
X001935Y011091D01*
X001935Y011014D02*
X000440Y011014D01*
X000440Y010937D02*
X001935Y010937D01*
X001949Y010859D02*
X000440Y010859D01*
X000440Y010782D02*
X001975Y010782D01*
X001975Y010705D02*
X000440Y010705D01*
X000440Y010628D02*
X001949Y010628D01*
X001872Y010550D02*
X000440Y010550D01*
X000440Y010473D02*
X001795Y010473D01*
X001737Y010396D02*
X000440Y010396D01*
X000440Y010319D02*
X001737Y010319D01*
X001720Y010241D02*
X000440Y010241D01*
X000440Y010164D02*
X001407Y010164D01*
X001330Y010087D02*
X000440Y010087D01*
X000440Y010010D02*
X001253Y010010D01*
X001175Y009933D02*
X000440Y009933D01*
X000440Y009855D02*
X001098Y009855D01*
X001021Y009778D02*
X000440Y009778D01*
X000440Y009701D02*
X000944Y009701D01*
X000866Y009624D02*
X000440Y009624D01*
X000440Y009546D02*
X000789Y009546D01*
X000712Y009469D02*
X000440Y009469D01*
X000440Y009392D02*
X000635Y009392D01*
X000557Y009315D02*
X000440Y009315D01*
X000440Y009237D02*
X000556Y009237D01*
X000556Y009160D02*
X000440Y009160D01*
X000440Y009083D02*
X000556Y009083D01*
X000556Y009006D02*
X000440Y009006D01*
X000440Y008928D02*
X000556Y008928D01*
X000556Y008851D02*
X000440Y008851D01*
X000440Y008774D02*
X000556Y008774D01*
X000556Y008697D02*
X000440Y008697D01*
X000440Y008619D02*
X000556Y008619D01*
X000556Y008542D02*
X000440Y008542D01*
X000440Y008465D02*
X000556Y008465D01*
X000556Y008388D02*
X000440Y008388D01*
X000440Y008310D02*
X000556Y008310D01*
X000556Y008233D02*
X000440Y008233D01*
X000440Y008156D02*
X000556Y008156D01*
X000612Y008079D02*
X000440Y008079D01*
X000440Y008002D02*
X000689Y008002D01*
X000766Y007924D02*
X000440Y007924D01*
X000440Y007847D02*
X000829Y007847D01*
X000829Y007770D02*
X000440Y007770D01*
X000440Y007693D02*
X000884Y007693D01*
X001049Y007838D02*
X000694Y008192D01*
X000694Y009255D01*
X001482Y010043D01*
X001718Y010043D01*
X001875Y010200D01*
X001875Y010358D01*
X002163Y010645D01*
X002784Y010628D02*
X002787Y010628D01*
X002784Y010550D02*
X002864Y010550D01*
X002918Y010473D02*
X002778Y010473D01*
X002822Y010396D02*
X002918Y010396D01*
X002918Y010319D02*
X002824Y010319D01*
X003195Y010319D02*
X008536Y010319D01*
X008514Y010396D02*
X003195Y010396D01*
X003195Y010473D02*
X008514Y010473D01*
X008514Y010550D02*
X003195Y010550D01*
X003180Y010628D02*
X008514Y010628D01*
X008517Y011323D02*
X002996Y011323D01*
X002919Y011400D02*
X008514Y011400D01*
X008514Y011477D02*
X002842Y011477D01*
X002784Y011555D02*
X008514Y011555D01*
X008576Y011864D02*
X008800Y011864D01*
X008743Y011941D02*
X008576Y011941D01*
X008576Y012018D02*
X008743Y012018D01*
X008743Y012095D02*
X001348Y012095D01*
X001348Y012018D02*
X007984Y012018D01*
X007709Y012404D02*
X010161Y012404D01*
X010161Y012327D02*
X000440Y012327D01*
X000440Y012404D02*
X003930Y012404D01*
X003966Y012390D02*
X004091Y012390D01*
X004206Y012438D01*
X004295Y012526D01*
X004343Y012641D01*
X004343Y012767D01*
X004295Y012882D01*
X004206Y012971D01*
X004091Y013018D01*
X003966Y013018D01*
X003850Y012971D01*
X003762Y012882D01*
X003714Y012767D01*
X003714Y012641D01*
X003762Y012526D01*
X003850Y012438D01*
X003966Y012390D01*
X003806Y012481D02*
X000440Y012481D01*
X000440Y012559D02*
X003748Y012559D01*
X003716Y012636D02*
X000440Y012636D01*
X000440Y012713D02*
X003714Y012713D01*
X003724Y012790D02*
X000440Y012790D01*
X000440Y012868D02*
X003756Y012868D01*
X003824Y012945D02*
X000440Y012945D01*
X000440Y013022D02*
X007944Y013022D01*
X007944Y012945D02*
X007815Y012945D01*
X007789Y012971D02*
X007877Y012882D01*
X007925Y012767D01*
X007925Y012641D01*
X007877Y012526D01*
X007789Y012438D01*
X007673Y012390D01*
X007548Y012390D01*
X007433Y012438D01*
X007344Y012526D01*
X007296Y012641D01*
X007296Y012767D01*
X007344Y012882D01*
X007433Y012971D01*
X007548Y013018D01*
X007673Y013018D01*
X007789Y012971D01*
X007883Y012868D02*
X007953Y012868D01*
X007915Y012790D02*
X008030Y012790D01*
X007925Y012713D02*
X010161Y012713D01*
X010161Y012636D02*
X007923Y012636D01*
X007891Y012559D02*
X010161Y012559D01*
X010161Y012481D02*
X007833Y012481D01*
X007513Y012404D02*
X004126Y012404D01*
X004250Y012481D02*
X007389Y012481D01*
X007331Y012559D02*
X004308Y012559D01*
X004340Y012636D02*
X007299Y012636D01*
X007296Y012713D02*
X004343Y012713D01*
X004333Y012790D02*
X007306Y012790D01*
X007338Y012868D02*
X004301Y012868D01*
X004232Y012945D02*
X007407Y012945D01*
X007944Y013099D02*
X000440Y013099D01*
X000440Y013177D02*
X002610Y013177D01*
X002571Y013254D02*
X000440Y013254D01*
X000440Y013331D02*
X002570Y013331D01*
X002570Y013408D02*
X000440Y013408D01*
X000440Y013486D02*
X002570Y013486D01*
X002570Y013563D02*
X000440Y013563D01*
X000440Y013640D02*
X002926Y013640D01*
X002926Y013563D02*
X003005Y013563D01*
X003005Y013640D02*
X007944Y013640D01*
X007944Y013563D02*
X003360Y013563D01*
X003360Y013486D02*
X008241Y013486D01*
X008241Y013408D02*
X008320Y013408D01*
X008320Y013331D02*
X008241Y013331D01*
X008241Y013254D02*
X008320Y013254D01*
X008320Y013177D02*
X008241Y013177D01*
X008241Y013099D02*
X008320Y013099D01*
X008320Y013022D02*
X008241Y013022D01*
X008241Y012945D02*
X008320Y012945D01*
X008320Y012868D02*
X008241Y012868D01*
X008241Y012790D02*
X008320Y012790D01*
X008530Y012790D02*
X010161Y012790D01*
X010161Y012868D02*
X008607Y012868D01*
X008616Y012945D02*
X010161Y012945D01*
X010161Y013022D02*
X008616Y013022D01*
X008616Y013099D02*
X010161Y013099D01*
X010161Y013177D02*
X008616Y013177D01*
X008616Y013254D02*
X010161Y013254D01*
X010161Y013331D02*
X008616Y013331D01*
X008616Y013408D02*
X010161Y013408D01*
X010161Y013486D02*
X008320Y013486D01*
X008616Y013563D02*
X010161Y013563D01*
X010161Y013640D02*
X008616Y013640D01*
X008616Y013717D02*
X010160Y013717D01*
X010144Y013795D02*
X008616Y013795D01*
X008616Y013872D02*
X010112Y013872D01*
X010052Y013949D02*
X008616Y013949D01*
X008616Y014026D02*
X009938Y014026D01*
X010161Y012250D02*
X001330Y012250D01*
X001348Y012172D02*
X008813Y012172D01*
X008962Y012011D02*
X009277Y012011D01*
X009389Y012095D02*
X010161Y012095D01*
X010161Y012018D02*
X009466Y012018D01*
X009534Y011941D02*
X010161Y011941D01*
X010161Y011864D02*
X009534Y011864D01*
X009534Y011786D02*
X010161Y011786D01*
X010161Y011709D02*
X010082Y011709D01*
X010128Y011632D02*
X010161Y011632D01*
X010161Y011555D02*
X010131Y011555D01*
X010161Y011477D02*
X009775Y011477D01*
X009775Y011465D02*
X009775Y011227D01*
X009775Y011012D01*
X009736Y011012D01*
X009736Y011465D01*
X009775Y011465D01*
X009775Y011400D02*
X009736Y011400D01*
X009736Y011323D02*
X009775Y011323D01*
X009775Y011246D02*
X009736Y011246D01*
X009736Y011168D02*
X009775Y011168D01*
X009775Y011091D02*
X009736Y011091D01*
X009736Y011014D02*
X009775Y011014D01*
X009775Y010937D02*
X009736Y010937D01*
X009736Y010859D02*
X009775Y010859D01*
X009775Y010782D02*
X009736Y010782D01*
X009755Y010500D02*
X009819Y010436D01*
X009894Y010241D02*
X010161Y010241D01*
X010161Y010164D02*
X010091Y010164D01*
X010091Y010087D02*
X010161Y010087D01*
X010161Y010010D02*
X010091Y010010D01*
X010091Y009933D02*
X010161Y009933D01*
X010161Y009855D02*
X010091Y009855D01*
X010069Y010319D02*
X010161Y010319D01*
X010161Y010396D02*
X010091Y010396D01*
X010091Y010473D02*
X010161Y010473D01*
X010161Y010550D02*
X010091Y010550D01*
X010091Y010628D02*
X010161Y010628D01*
X010161Y010705D02*
X010046Y010705D01*
X010096Y010782D02*
X010161Y010782D01*
X010161Y010859D02*
X010131Y010859D01*
X010131Y010937D02*
X010161Y010937D01*
X010161Y011014D02*
X010131Y011014D01*
X010131Y011091D02*
X010161Y011091D01*
X010161Y011168D02*
X010119Y011168D01*
X010161Y011246D02*
X010061Y011246D01*
X010124Y011323D02*
X010161Y011323D01*
X010161Y011400D02*
X010131Y011400D01*
X009775Y011555D02*
X009736Y011555D01*
X009736Y011632D02*
X009775Y011632D01*
X009775Y011709D02*
X009736Y011709D01*
X010161Y012172D02*
X009111Y012172D01*
X009169Y011168D02*
X009256Y011168D01*
X009256Y011091D02*
X009185Y011091D01*
X009185Y011014D02*
X009256Y011014D01*
X009256Y010937D02*
X009185Y010937D01*
X009185Y010859D02*
X009256Y010859D01*
X009256Y010782D02*
X009134Y010782D01*
X009140Y010705D02*
X009256Y010705D01*
X009256Y010628D02*
X009185Y010628D01*
X009316Y010397D02*
X009316Y009570D01*
X009494Y009393D01*
X009553Y009334D01*
X009553Y009019D01*
X010143Y008507D01*
X008332Y008271D02*
X008332Y007366D01*
X008017Y007051D01*
X007702Y007051D01*
X007348Y006696D01*
X007348Y006618D01*
X006915Y007152D02*
X006836Y007152D01*
X006836Y007229D02*
X006915Y007229D01*
X006915Y007306D02*
X006836Y007306D01*
X006696Y007384D02*
X006636Y007384D01*
X006636Y007461D02*
X006696Y007461D01*
X006696Y007538D02*
X006636Y007538D01*
X006636Y007615D02*
X006696Y007615D01*
X006619Y007306D02*
X006603Y007306D01*
X006246Y007810D02*
X006246Y008074D01*
X006364Y008192D01*
X006915Y008192D01*
X007190Y008468D01*
X008135Y008468D01*
X008332Y008271D01*
X008015Y008156D02*
X007311Y008156D01*
X007293Y007384D02*
X007338Y007384D01*
X007466Y007287D02*
X007505Y007326D01*
X007526Y007306D02*
X007132Y007306D01*
X007172Y007229D02*
X007448Y007229D01*
X007505Y007287D02*
X007584Y007366D01*
X006669Y008851D02*
X003195Y008851D01*
X003195Y008774D02*
X006040Y008774D01*
X005963Y008697D02*
X003195Y008697D01*
X003219Y008619D02*
X005886Y008619D01*
X006746Y008928D02*
X003195Y008928D01*
X003195Y009006D02*
X006823Y009006D01*
X007991Y011632D02*
X002744Y011632D01*
X002926Y013177D02*
X003005Y013177D01*
X003005Y013254D02*
X002926Y013254D01*
X002926Y013331D02*
X003005Y013331D01*
X003005Y013408D02*
X002926Y013408D01*
X002926Y013486D02*
X003005Y013486D01*
X003360Y013408D02*
X007944Y013408D01*
X007944Y013331D02*
X003360Y013331D01*
X003360Y013254D02*
X007944Y013254D01*
X007944Y013177D02*
X003320Y013177D01*
X003360Y013717D02*
X007944Y013717D01*
X007944Y013795D02*
X003360Y013795D01*
X003360Y013872D02*
X007944Y013872D01*
X007944Y013949D02*
X003360Y013949D01*
X003360Y014026D02*
X007944Y014026D01*
X003930Y008079D02*
X003851Y008079D01*
X003851Y008002D02*
X003930Y008002D01*
X003930Y007924D02*
X003851Y007924D01*
X003851Y007847D02*
X003930Y007847D01*
X003351Y007229D02*
X002959Y007229D01*
X002959Y007306D02*
X003274Y007306D01*
X002820Y007366D02*
X002820Y006933D01*
X002742Y006854D01*
X002820Y007366D02*
X002683Y007503D01*
X002388Y007503D01*
X002380Y007495D01*
X001639Y007877D02*
X001639Y006696D01*
X002112Y006224D01*
X002112Y005555D01*
X001757Y005200D01*
X001757Y004610D01*
X001895Y004472D01*
X001895Y004137D01*
X001757Y003999D01*
X001757Y003429D01*
X001482Y003153D01*
X001482Y002051D01*
X001718Y001814D01*
X002274Y002754D02*
X002269Y002759D01*
X002274Y002754D02*
X002892Y002754D01*
X002965Y002759D01*
X002892Y002951D02*
X003287Y002951D01*
X003057Y002557D02*
X002892Y002557D01*
X002661Y002326D01*
X002623Y002326D01*
X002843Y002286D02*
X002918Y002286D01*
X002918Y002363D02*
X002894Y002363D01*
X002918Y002208D02*
X002816Y002208D01*
X002739Y002131D02*
X002918Y002131D01*
X002841Y002054D02*
X002544Y002054D01*
X003057Y001814D02*
X003057Y002557D01*
X002892Y003148D02*
X002543Y003148D01*
X002505Y003110D01*
X002268Y003841D02*
X002268Y003841D01*
X001501Y004295D02*
X001442Y004236D01*
X001442Y003586D01*
X000898Y003522D02*
X000874Y003522D01*
X000706Y003889D02*
X000706Y003992D01*
X000852Y004137D01*
X000925Y004137D01*
X001141Y004294D01*
X001312Y004558D02*
X000688Y004558D01*
X000609Y004480D01*
X000440Y004796D02*
X000440Y004968D01*
X000828Y004968D01*
X000828Y004892D01*
X001115Y004892D01*
X001115Y004833D01*
X000828Y004833D01*
X000828Y004796D01*
X000440Y004796D01*
X000440Y004835D02*
X001115Y004835D01*
X001312Y004558D02*
X001442Y004688D01*
X001442Y005614D01*
X001344Y005712D01*
X001535Y005954D02*
X001718Y005751D01*
X001687Y005993D02*
X001815Y005993D01*
X001815Y006071D02*
X001617Y006071D01*
X001535Y005954D02*
X000609Y005954D01*
X000906Y006148D02*
X001755Y006148D01*
X001678Y006225D02*
X001265Y006225D01*
X001339Y006302D02*
X001601Y006302D01*
X001524Y006379D02*
X001348Y006379D01*
X001348Y006457D02*
X001446Y006457D01*
X001369Y006534D02*
X001348Y006534D01*
X001343Y006611D02*
X000894Y006611D01*
X000894Y006688D02*
X000815Y006688D01*
X000815Y006766D02*
X000894Y006766D01*
X000894Y006843D02*
X000815Y006843D01*
X000815Y006920D02*
X000894Y006920D01*
X001312Y006920D02*
X001343Y006920D01*
X001343Y006997D02*
X000440Y006997D01*
X000440Y007075D02*
X001343Y007075D01*
X001343Y007152D02*
X000440Y007152D01*
X000440Y007229D02*
X001343Y007229D01*
X001343Y007306D02*
X000440Y007306D01*
X000440Y007384D02*
X001343Y007384D01*
X001343Y007461D02*
X000440Y007461D01*
X000440Y007538D02*
X001343Y007538D01*
X001343Y007615D02*
X000440Y007615D01*
X001088Y008429D02*
X001639Y007877D01*
X001343Y007693D02*
X001213Y007693D01*
X001268Y007770D02*
X001275Y007770D01*
X001088Y008429D02*
X001088Y009098D01*
X001442Y009452D01*
X002584Y009452D01*
X002368Y009059D02*
X001797Y009059D01*
X002708Y005116D02*
X002892Y005116D01*
X004101Y002904D02*
X004619Y002904D01*
X004542Y002826D02*
X004101Y002826D01*
X004101Y002749D02*
X004464Y002749D01*
X004387Y002672D02*
X004101Y002672D01*
X004101Y002595D02*
X004310Y002595D01*
X004233Y002517D02*
X004101Y002517D01*
X004101Y002440D02*
X004155Y002440D01*
X004080Y002169D02*
X004710Y002799D01*
X004080Y002169D02*
X004080Y001659D01*
X005532Y000432D02*
X010033Y000432D01*
X010104Y000509D02*
X005609Y000509D01*
X005686Y000586D02*
X010136Y000586D01*
X010158Y000664D02*
X005763Y000664D01*
X005841Y000741D02*
X010161Y000741D01*
X009891Y000355D02*
X000711Y000355D01*
X000569Y000432D02*
X002432Y000432D01*
X002355Y000509D02*
X000497Y000509D01*
X000465Y000586D02*
X002277Y000586D01*
X005221Y003831D02*
X005300Y003831D01*
X005300Y003908D02*
X005221Y003908D01*
X005221Y003985D02*
X005300Y003985D01*
X005300Y004062D02*
X005221Y004062D01*
X005221Y004139D02*
X005300Y004139D01*
X005300Y004217D02*
X005221Y004217D01*
X005221Y004294D02*
X005300Y004294D01*
X005300Y004371D02*
X005221Y004371D01*
X005221Y004448D02*
X005300Y004448D01*
X005754Y003831D02*
X006062Y003831D01*
X005987Y003753D02*
X005754Y003753D01*
X007032Y003213D02*
X007084Y003213D01*
X007054Y003191D02*
X007054Y003191D01*
X007755Y003135D02*
X008176Y003135D01*
X008176Y003058D02*
X007755Y003058D01*
X007755Y002981D02*
X008176Y002981D01*
X008176Y002904D02*
X007755Y002904D01*
X007871Y002826D02*
X008176Y002826D01*
X008176Y002749D02*
X007948Y002749D01*
X007998Y002672D02*
X008176Y002672D01*
X008224Y002595D02*
X007998Y002595D01*
X007998Y002517D02*
X008566Y002517D01*
X008566Y002440D02*
X008060Y002440D01*
X008255Y002363D02*
X008566Y002363D01*
X008566Y002286D02*
X008333Y002286D01*
X008392Y002208D02*
X008610Y002208D01*
X008560Y002054D02*
X008769Y002054D01*
X008692Y001977D02*
X008637Y001977D01*
X008846Y002131D02*
X008392Y002131D01*
X008728Y002452D02*
X008728Y002604D01*
X008923Y002877D01*
X008923Y003114D01*
X009001Y003192D01*
X009395Y003192D01*
X009434Y003232D01*
X009434Y003547D02*
X008923Y003547D01*
X008864Y003488D01*
X008864Y003433D01*
X008746Y003314D01*
X008746Y002905D01*
X008627Y002747D01*
X008433Y002747D01*
X008176Y003213D02*
X007820Y003213D01*
X007903Y003290D02*
X008176Y003290D01*
X008176Y003367D02*
X007990Y003367D01*
X008074Y003444D02*
X008176Y003444D01*
X008176Y003522D02*
X008078Y003522D01*
X008077Y003599D02*
X008154Y003599D01*
X008136Y003676D02*
X008077Y003676D01*
X008077Y003753D02*
X008136Y003753D01*
X008136Y003731D02*
X008433Y003731D01*
X008136Y003731D01*
X008141Y003831D02*
X008077Y003831D01*
X008077Y003908D02*
X008193Y003908D01*
X008077Y003985D02*
X008566Y003985D01*
X008566Y004062D02*
X008077Y004062D01*
X008077Y004139D02*
X008566Y004139D01*
X008728Y004234D02*
X008728Y004026D01*
X008729Y003753D02*
X009331Y003753D01*
X009515Y004026D02*
X009515Y004214D01*
X009356Y004373D01*
X009198Y004526D02*
X009100Y004526D01*
X009103Y004448D02*
X009136Y004448D01*
X009136Y004371D02*
X009103Y004371D01*
X009136Y004294D02*
X009063Y004294D01*
X008925Y004376D02*
X008883Y004433D01*
X008925Y004376D02*
X008925Y004026D01*
X008728Y004234D02*
X008588Y004373D01*
X008743Y004603D02*
X008282Y004603D01*
X008199Y004526D02*
X008430Y004526D01*
X008369Y004448D02*
X008117Y004448D01*
X008077Y004371D02*
X008369Y004371D01*
X008369Y004294D02*
X008077Y004294D01*
X008077Y004217D02*
X008435Y004217D01*
X008433Y003908D02*
X008433Y003908D01*
X008433Y003831D02*
X008433Y003831D01*
X008433Y003753D02*
X008433Y003753D01*
X008433Y003731D02*
X008433Y003731D01*
X008729Y003676D02*
X008856Y003676D01*
X008779Y003599D02*
X008711Y003599D01*
X008725Y003522D02*
X008689Y003522D01*
X009023Y004603D02*
X009560Y004603D01*
X009532Y004680D02*
X008365Y004680D01*
X008373Y004757D02*
X008629Y004757D01*
X008633Y004755D02*
X008668Y004746D01*
X008805Y004746D01*
X008805Y005003D01*
X008547Y005003D01*
X008547Y004867D01*
X008557Y004831D01*
X008575Y004800D01*
X008601Y004774D01*
X008633Y004755D01*
X008556Y004835D02*
X008372Y004835D01*
X008437Y004912D02*
X008547Y004912D01*
X008547Y004989D02*
X008471Y004989D01*
X008805Y004989D02*
X008883Y004989D01*
X008883Y004912D02*
X008805Y004912D01*
X008805Y004835D02*
X008883Y004835D01*
X008883Y004757D02*
X008805Y004757D01*
X009059Y004757D02*
X009532Y004757D01*
X009514Y004526D02*
X009637Y004526D01*
X009689Y004448D02*
X009575Y004448D01*
X009575Y004371D02*
X009688Y004371D01*
X009688Y004294D02*
X009631Y004294D01*
X010026Y004526D02*
X010161Y004526D01*
X010161Y004448D02*
X010103Y004448D01*
X008017Y005397D02*
X007899Y005358D01*
X007602Y005684D02*
X007319Y005684D01*
X002570Y013717D02*
X000442Y013717D01*
X000457Y013795D02*
X002570Y013795D01*
X002570Y013872D02*
X000489Y013872D01*
X000549Y013949D02*
X002570Y013949D01*
X002570Y014026D02*
X000663Y014026D01*
X000828Y004912D02*
X000440Y004912D01*
D32*
X000609Y005284D02*
X000913Y005284D01*
X001145Y005375D01*
X000706Y003889D02*
X000609Y003810D01*
X002892Y003344D02*
X003337Y003344D01*
X003411Y003271D01*
X003044Y002759D02*
X003017Y002759D01*
X002978Y002754D01*
X002892Y002754D01*
X002892Y002557D02*
X003057Y002550D01*
X004073Y001770D02*
X004080Y001659D01*
X004474Y001738D02*
X004467Y001770D01*
X006632Y001770D02*
X006632Y001231D01*
X006797Y001066D01*
X007466Y001972D02*
X007466Y002550D01*
X007419Y002557D01*
X007532Y002562D01*
X009120Y002450D02*
X009122Y002452D01*
X007582Y004925D02*
X007419Y004919D01*
X006875Y007051D02*
X006875Y007326D01*
X006666Y007536D01*
X006666Y007704D01*
X006246Y007810D02*
X006233Y007704D01*
X005869Y007635D02*
X005800Y007704D01*
X006167Y007051D02*
X006403Y007051D01*
X006324Y006967D01*
X006167Y007051D02*
X005980Y006864D01*
X005835Y006883D01*
X006875Y007051D02*
X006915Y007090D01*
X007860Y007366D02*
X007899Y007405D01*
X007899Y007697D01*
X007906Y007704D01*
X003876Y006297D02*
X003883Y006265D01*
X003686Y006304D02*
X003679Y006297D01*
X002408Y007523D02*
X002380Y007495D01*
X002368Y008665D02*
X001915Y008665D01*
X002352Y008704D02*
X002380Y008676D01*
X002368Y008665D01*
X002368Y009059D02*
X002380Y009070D01*
X002380Y009464D02*
X002408Y009492D01*
X002623Y009492D01*
X002584Y009452D01*
X002368Y009846D02*
X002380Y009858D01*
X002380Y010645D02*
X002163Y010645D01*
X002392Y011421D02*
X002380Y011432D01*
X002408Y011460D01*
D33*
X001364Y008940D03*
X001403Y008507D03*
X001049Y007838D03*
X000616Y007799D03*
X001088Y007129D03*
X001344Y005712D03*
X001718Y005751D03*
X002368Y004822D03*
X002446Y005121D03*
X003332Y005240D03*
X003627Y005417D03*
X003942Y005476D03*
X004375Y004551D03*
X004671Y005240D03*
X004887Y005712D03*
X005222Y005673D03*
X006049Y005712D03*
X006560Y005436D03*
X006994Y004807D03*
X006954Y004452D03*
X006206Y003665D03*
X006206Y003055D03*
X006679Y002799D03*
X006994Y002877D03*
X007108Y001933D03*
X007860Y001618D03*
X008214Y001342D03*
X008450Y001854D03*
X008663Y002066D03*
X009080Y001854D03*
X008726Y001381D03*
X009151Y002803D03*
X009434Y003232D03*
X009434Y003547D03*
X009356Y004373D03*
X008883Y004433D03*
X008588Y004373D03*
X007840Y004964D03*
X007545Y005830D03*
X007860Y006460D03*
X008135Y006303D03*
X008627Y006440D03*
X009553Y007169D03*
X009749Y007444D03*
X009553Y007681D03*
X009238Y007681D03*
X009198Y008507D03*
X009277Y009177D03*
X009494Y009393D03*
X009671Y009688D03*
X009828Y009177D03*
X009868Y011814D03*
X008962Y012011D03*
X007742Y009373D03*
X007309Y007247D03*
X007348Y006618D03*
X009749Y005436D03*
X009907Y004885D03*
X009907Y004334D03*
X009986Y002444D03*
X009946Y001854D03*
X007978Y002917D03*
X006246Y002366D03*
X005694Y002287D03*
X005694Y002602D03*
X006521Y000673D03*
X003962Y003850D03*
X003411Y003271D03*
X003490Y002759D03*
X002623Y002326D03*
X002505Y003110D03*
X001501Y004295D03*
X000773Y003389D03*
X000616Y004885D03*
X002348Y006775D03*
X003096Y007169D03*
X003214Y007562D03*
X003332Y008074D03*
X003923Y008873D03*
X003844Y006933D03*
X001915Y008665D03*
X001167Y001775D03*
X003529Y001303D03*
D34*
X001088Y000988D03*
X009513Y000988D03*
X009513Y013413D03*
X001088Y013413D03*
M02*
