G75*
%MOIN*%
%OFA0B0*%
%FSLAX24Y24*%
%IPPOS*%
%LPD*%
%AMOC8*
5,1,8,0,0,1.08239X$1,22.5*
%
%ADD10C,0.0000*%
D10*
X000301Y000700D02*
X000301Y013700D01*
X000303Y013744D01*
X000309Y013787D01*
X000318Y013829D01*
X000331Y013871D01*
X000348Y013911D01*
X000368Y013950D01*
X000391Y013987D01*
X000418Y014021D01*
X000447Y014054D01*
X000480Y014083D01*
X000514Y014110D01*
X000551Y014133D01*
X000590Y014153D01*
X000630Y014170D01*
X000672Y014183D01*
X000714Y014192D01*
X000757Y014198D01*
X000801Y014200D01*
X009801Y014200D01*
X009845Y014198D01*
X009888Y014192D01*
X009930Y014183D01*
X009972Y014170D01*
X010012Y014153D01*
X010051Y014133D01*
X010088Y014110D01*
X010122Y014083D01*
X010155Y014054D01*
X010184Y014021D01*
X010211Y013987D01*
X010234Y013950D01*
X010254Y013911D01*
X010271Y013871D01*
X010284Y013829D01*
X010293Y013787D01*
X010299Y013744D01*
X010301Y013700D01*
X010301Y000700D01*
X010299Y000656D01*
X010293Y000613D01*
X010284Y000571D01*
X010271Y000529D01*
X010254Y000489D01*
X010234Y000450D01*
X010211Y000413D01*
X010184Y000379D01*
X010155Y000346D01*
X010122Y000317D01*
X010088Y000290D01*
X010051Y000267D01*
X010012Y000247D01*
X009972Y000230D01*
X009930Y000217D01*
X009888Y000208D01*
X009845Y000202D01*
X009801Y000200D01*
X000801Y000200D01*
X000757Y000202D01*
X000714Y000208D01*
X000672Y000217D01*
X000630Y000230D01*
X000590Y000247D01*
X000551Y000267D01*
X000514Y000290D01*
X000480Y000317D01*
X000447Y000346D01*
X000418Y000379D01*
X000391Y000413D01*
X000368Y000450D01*
X000348Y000489D01*
X000331Y000529D01*
X000318Y000571D01*
X000309Y000613D01*
X000303Y000656D01*
X000301Y000700D01*
X003853Y012704D02*
X003855Y012730D01*
X003861Y012756D01*
X003870Y012780D01*
X003883Y012803D01*
X003900Y012823D01*
X003919Y012841D01*
X003941Y012856D01*
X003964Y012867D01*
X003989Y012875D01*
X004015Y012879D01*
X004041Y012879D01*
X004067Y012875D01*
X004092Y012867D01*
X004116Y012856D01*
X004137Y012841D01*
X004156Y012823D01*
X004173Y012803D01*
X004186Y012780D01*
X004195Y012756D01*
X004201Y012730D01*
X004203Y012704D01*
X004201Y012678D01*
X004195Y012652D01*
X004186Y012628D01*
X004173Y012605D01*
X004156Y012585D01*
X004137Y012567D01*
X004115Y012552D01*
X004092Y012541D01*
X004067Y012533D01*
X004041Y012529D01*
X004015Y012529D01*
X003989Y012533D01*
X003964Y012541D01*
X003940Y012552D01*
X003919Y012567D01*
X003900Y012585D01*
X003883Y012605D01*
X003870Y012628D01*
X003861Y012652D01*
X003855Y012678D01*
X003853Y012704D01*
X007436Y012704D02*
X007438Y012730D01*
X007444Y012756D01*
X007453Y012780D01*
X007466Y012803D01*
X007483Y012823D01*
X007502Y012841D01*
X007524Y012856D01*
X007547Y012867D01*
X007572Y012875D01*
X007598Y012879D01*
X007624Y012879D01*
X007650Y012875D01*
X007675Y012867D01*
X007699Y012856D01*
X007720Y012841D01*
X007739Y012823D01*
X007756Y012803D01*
X007769Y012780D01*
X007778Y012756D01*
X007784Y012730D01*
X007786Y012704D01*
X007784Y012678D01*
X007778Y012652D01*
X007769Y012628D01*
X007756Y012605D01*
X007739Y012585D01*
X007720Y012567D01*
X007698Y012552D01*
X007675Y012541D01*
X007650Y012533D01*
X007624Y012529D01*
X007598Y012529D01*
X007572Y012533D01*
X007547Y012541D01*
X007523Y012552D01*
X007502Y012567D01*
X007483Y012585D01*
X007466Y012605D01*
X007453Y012628D01*
X007444Y012652D01*
X007438Y012678D01*
X007436Y012704D01*
M02*
